ISO-10303-21;
HEADER;
/* Generated by software containing ST-Developer
 * from STEP Tools, Inc. (www.steptools.com) 
 */
/* OPTION: using custom renumber hook */

FILE_DESCRIPTION(
/* description */ ('STEP AP242',
'CAx-IF Rec.Pracs.---Representation and Presentation of Product Manufa
cturing Information (PMI)---4.0---2014-10-13',
'CAx-IF Rec.Pracs.---3D Tessellated Geometry---0.4---2014-09-14','2;1'),

/* implementation_level */ '2;1');

FILE_NAME(
/* name */ '680507b6c9accf630d5e7d69',
/* time_stamp */ '2025-04-20T14:41:59Z',
/* author */ (''),
/* organization */ (''),
/* preprocessor_version */ 'ST-DEVELOPER v20',
/* originating_system */ 'ONSHAPE BY PTC INC, 1.196',
/* authorisation */ '  ');

FILE_SCHEMA (('AP242_MANAGED_MODEL_BASED_3D_ENGINEERING_MIM_LF { 1 0 10303 442 1 1 4 }'));
ENDSEC;

DATA;
#10=SHAPE_REPRESENTATION_RELATIONSHIP('','',#246,#11);
#11=ADVANCED_BREP_SHAPE_REPRESENTATION('',(#244),#956);
#12=(
BOUNDED_SURFACE()
B_SPLINE_SURFACE(3,2,((#864,#865,#866),(#867,#868,#869),(#870,#871,#872),
(#873,#874,#875),(#876,#877,#878)),.UNSPECIFIED.,.F.,.F.,.F.)
B_SPLINE_SURFACE_WITH_KNOTS((4,1,4),(3,3),(0.0122830810970342,0.0139771697342872,
0.0156712583715403),(0.,1.),.UNSPECIFIED.)
GEOMETRIC_REPRESENTATION_ITEM()
RATIONAL_B_SPLINE_SURFACE(((1.,0.923391715000748,1.),(1.,0.923391715125815,
1.),(1.,0.904440208036058,1.),(1.,0.861525674013967,1.),(1.,0.837438244316557,
1.)))
REPRESENTATION_ITEM('')
SURFACE()
);
#13=(
BOUNDED_SURFACE()
B_SPLINE_SURFACE(3,2,((#943,#944,#945),(#946,#947,#948),(#949,#950,#951),
(#952,#953,#954)),.UNSPECIFIED.,.F.,.F.,.F.)
B_SPLINE_SURFACE_WITH_KNOTS((4,4),(3,3),(0.0145154303407914,0.0178817008436761),
(0.,1.),.PIECEWISE_BEZIER_KNOTS.)
GEOMETRIC_REPRESENTATION_ITEM()
RATIONAL_B_SPLINE_SURFACE(((1.,0.837441530641542,1.),(1.,0.885455481929308,
1.),(1.,0.923391713995632,1.),(1.,0.923391715000748,1.)))
REPRESENTATION_ITEM('')
SURFACE()
);
#14=TOROIDAL_SURFACE('',#262,0.0035433,0.000508);
#15=B_SPLINE_SURFACE_WITH_KNOTS('',3,3,((#398,#399,#400,#401,#402,#403,
#404,#405,#406,#407),(#408,#409,#410,#411,#412,#413,#414,#415,#416,#417),
(#418,#419,#420,#421,#422,#423,#424,#425,#426,#427),(#428,#429,#430,#431,
#432,#433,#434,#435,#436,#437),(#438,#439,#440,#441,#442,#443,#444,#445,
#446,#447),(#448,#449,#450,#451,#452,#453,#454,#455,#456,#457)),
 .UNSPECIFIED.,.F.,.F.,.F.,(4,2,4),(4,2,2,2,4),(0.,0.5,1.),(0.,0.25,0.5,
0.75,1.),.UNSPECIFIED.);
#16=B_SPLINE_SURFACE_WITH_KNOTS('',3,3,((#480,#481,#482,#483,#484,#485,
#486,#487,#488,#489),(#490,#491,#492,#493,#494,#495,#496,#497,#498,#499),
(#500,#501,#502,#503,#504,#505,#506,#507,#508,#509),(#510,#511,#512,#513,
#514,#515,#516,#517,#518,#519),(#520,#521,#522,#523,#524,#525,#526,#527,
#528,#529),(#530,#531,#532,#533,#534,#535,#536,#537,#538,#539),(#540,#541,
#542,#543,#544,#545,#546,#547,#548,#549),(#550,#551,#552,#553,#554,#555,
#556,#557,#558,#559),(#560,#561,#562,#563,#564,#565,#566,#567,#568,#569),
(#570,#571,#572,#573,#574,#575,#576,#577,#578,#579)),.UNSPECIFIED.,.F.,
 .F.,.F.,(4,2,2,2,4),(4,2,2,2,4),(0.,0.25,0.5,0.75,1.),(0.,0.25,0.375,0.5,
1.),.UNSPECIFIED.);
#17=B_SPLINE_SURFACE_WITH_KNOTS('',3,3,((#599,#600,#601,#602,#603,#604),
(#605,#606,#607,#608,#609,#610),(#611,#612,#613,#614,#615,#616),(#617,#618,
#619,#620,#621,#622),(#623,#624,#625,#626,#627,#628),(#629,#630,#631,#632,
#633,#634),(#635,#636,#637,#638,#639,#640),(#641,#642,#643,#644,#645,#646),
(#647,#648,#649,#650,#651,#652),(#653,#654,#655,#656,#657,#658)),
 .UNSPECIFIED.,.F.,.F.,.F.,(4,2,2,2,4),(4,2,4),(0.,0.25,0.375,0.5,1.),(0.,
0.5,1.),.UNSPECIFIED.);
#18=B_SPLINE_SURFACE_WITH_KNOTS('',3,3,((#669,#670,#671,#672,#673,#674,
#675,#676,#677,#678),(#679,#680,#681,#682,#683,#684,#685,#686,#687,#688),
(#689,#690,#691,#692,#693,#694,#695,#696,#697,#698),(#699,#700,#701,#702,
#703,#704,#705,#706,#707,#708),(#709,#710,#711,#712,#713,#714,#715,#716,
#717,#718),(#719,#720,#721,#722,#723,#724,#725,#726,#727,#728)),
 .UNSPECIFIED.,.F.,.F.,.F.,(4,2,4),(4,2,2,2,4),(0.,0.5,1.),(0.,0.25,0.375,
0.5,1.),.UNSPECIFIED.);
#19=B_SPLINE_SURFACE_WITH_KNOTS('',3,3,((#744,#745,#746,#747,#748,#749,
#750,#751,#752,#753),(#754,#755,#756,#757,#758,#759,#760,#761,#762,#763),
(#764,#765,#766,#767,#768,#769,#770,#771,#772,#773),(#774,#775,#776,#777,
#778,#779,#780,#781,#782,#783),(#784,#785,#786,#787,#788,#789,#790,#791,
#792,#793),(#794,#795,#796,#797,#798,#799,#800,#801,#802,#803),(#804,#805,
#806,#807,#808,#809,#810,#811,#812,#813),(#814,#815,#816,#817,#818,#819,
#820,#821,#822,#823),(#824,#825,#826,#827,#828,#829,#830,#831,#832,#833),
(#834,#835,#836,#837,#838,#839,#840,#841,#842,#843)),.UNSPECIFIED.,.F.,
 .F.,.F.,(4,2,2,2,4),(4,2,2,2,4),(0.,0.25,0.375,0.5,1.),(0.,0.25,0.5,0.75,
1.),.UNSPECIFIED.);
#20=B_SPLINE_SURFACE_WITH_KNOTS('',3,3,((#879,#880,#881,#882,#883,#884),
(#885,#886,#887,#888,#889,#890),(#891,#892,#893,#894,#895,#896),(#897,#898,
#899,#900,#901,#902),(#903,#904,#905,#906,#907,#908),(#909,#910,#911,#912,
#913,#914),(#915,#916,#917,#918,#919,#920),(#921,#922,#923,#924,#925,#926),
(#927,#928,#929,#930,#931,#932),(#933,#934,#935,#936,#937,#938)),
 .UNSPECIFIED.,.F.,.F.,.F.,(4,2,2,2,4),(4,2,4),(0.,0.25,0.5,0.75,1.),(0.,
0.5,1.),.UNSPECIFIED.);
#21=LINE('',#359,#23);
#22=LINE('',#363,#24);
#23=VECTOR('',#273,1.);
#24=VECTOR('',#278,1.);
#25=PLANE('',#251);
#26=PLANE('',#253);
#27=PLANE('',#259);
#28=PLANE('',#260);
#29=CIRCLE('',#249,0.0059563);
#30=CIRCLE('',#250,0.0059563);
#31=CIRCLE('',#252,0.000508);
#32=CIRCLE('',#254,0.000508);
#33=CIRCLE('',#257,0.0040513);
#34=CIRCLE('',#258,0.0040513);
#35=CIRCLE('',#261,0.0035433);
#36=ORIENTED_EDGE('',*,*,#102,.F.);
#37=ORIENTED_EDGE('',*,*,#103,.F.);
#38=ORIENTED_EDGE('',*,*,#104,.T.);
#39=ORIENTED_EDGE('',*,*,#105,.T.);
#40=ORIENTED_EDGE('',*,*,#106,.F.);
#41=ORIENTED_EDGE('',*,*,#107,.T.);
#42=ORIENTED_EDGE('',*,*,#108,.T.);
#43=ORIENTED_EDGE('',*,*,#109,.F.);
#44=ORIENTED_EDGE('',*,*,#110,.F.);
#45=ORIENTED_EDGE('',*,*,#111,.T.);
#46=ORIENTED_EDGE('',*,*,#107,.F.);
#47=ORIENTED_EDGE('',*,*,#112,.F.);
#48=ORIENTED_EDGE('',*,*,#105,.F.);
#49=ORIENTED_EDGE('',*,*,#113,.T.);
#50=ORIENTED_EDGE('',*,*,#102,.T.);
#51=ORIENTED_EDGE('',*,*,#112,.T.);
#52=ORIENTED_EDGE('',*,*,#114,.T.);
#53=ORIENTED_EDGE('',*,*,#115,.T.);
#54=ORIENTED_EDGE('',*,*,#116,.T.);
#55=ORIENTED_EDGE('',*,*,#110,.T.);
#56=ORIENTED_EDGE('',*,*,#106,.T.);
#57=ORIENTED_EDGE('',*,*,#117,.F.);
#58=ORIENTED_EDGE('',*,*,#117,.T.);
#59=ORIENTED_EDGE('',*,*,#118,.F.);
#60=ORIENTED_EDGE('',*,*,#119,.T.);
#61=ORIENTED_EDGE('',*,*,#120,.F.);
#62=ORIENTED_EDGE('',*,*,#121,.F.);
#63=ORIENTED_EDGE('',*,*,#109,.T.);
#64=ORIENTED_EDGE('',*,*,#122,.T.);
#65=ORIENTED_EDGE('',*,*,#123,.T.);
#66=ORIENTED_EDGE('',*,*,#123,.F.);
#67=ORIENTED_EDGE('',*,*,#124,.T.);
#68=ORIENTED_EDGE('',*,*,#125,.T.);
#69=ORIENTED_EDGE('',*,*,#126,.T.);
#70=ORIENTED_EDGE('',*,*,#126,.F.);
#71=ORIENTED_EDGE('',*,*,#127,.T.);
#72=ORIENTED_EDGE('',*,*,#118,.T.);
#73=ORIENTED_EDGE('',*,*,#128,.T.);
#74=ORIENTED_EDGE('',*,*,#128,.F.);
#75=ORIENTED_EDGE('',*,*,#120,.T.);
#76=ORIENTED_EDGE('',*,*,#129,.T.);
#77=ORIENTED_EDGE('',*,*,#130,.T.);
#78=ORIENTED_EDGE('',*,*,#130,.F.);
#79=ORIENTED_EDGE('',*,*,#131,.T.);
#80=ORIENTED_EDGE('',*,*,#132,.F.);
#81=ORIENTED_EDGE('',*,*,#133,.T.);
#82=ORIENTED_EDGE('',*,*,#125,.F.);
#83=ORIENTED_EDGE('',*,*,#115,.F.);
#84=ORIENTED_EDGE('',*,*,#131,.F.);
#85=ORIENTED_EDGE('',*,*,#129,.F.);
#86=ORIENTED_EDGE('',*,*,#119,.F.);
#87=ORIENTED_EDGE('',*,*,#127,.F.);
#88=ORIENTED_EDGE('',*,*,#111,.F.);
#89=ORIENTED_EDGE('',*,*,#116,.F.);
#90=ORIENTED_EDGE('',*,*,#124,.F.);
#91=ORIENTED_EDGE('',*,*,#122,.F.);
#92=ORIENTED_EDGE('',*,*,#108,.F.);
#93=ORIENTED_EDGE('',*,*,#103,.T.);
#94=ORIENTED_EDGE('',*,*,#121,.T.);
#95=ORIENTED_EDGE('',*,*,#133,.F.);
#96=ORIENTED_EDGE('',*,*,#134,.F.);
#97=ORIENTED_EDGE('',*,*,#113,.F.);
#98=ORIENTED_EDGE('',*,*,#104,.F.);
#99=ORIENTED_EDGE('',*,*,#134,.T.);
#100=ORIENTED_EDGE('',*,*,#132,.T.);
#101=ORIENTED_EDGE('',*,*,#114,.F.);
#102=EDGE_CURVE('',#135,#135,#156,.T.);
#103=EDGE_CURVE('',#136,#137,#157,.T.);
#104=EDGE_CURVE('',#136,#138,#158,.T.);
#105=EDGE_CURVE('',#138,#139,#29,.T.);
#106=EDGE_CURVE('',#140,#139,#159,.T.);
#107=EDGE_CURVE('',#140,#141,#30,.T.);
#108=EDGE_CURVE('',#141,#142,#160,.T.);
#109=EDGE_CURVE('',#137,#142,#161,.T.);
#110=EDGE_CURVE('',#143,#140,#21,.F.);
#111=EDGE_CURVE('',#143,#141,#31,.T.);
#112=EDGE_CURVE('',#139,#144,#22,.T.);
#113=EDGE_CURVE('',#138,#144,#32,.T.);
#114=EDGE_CURVE('',#144,#145,#162,.T.);
#115=EDGE_CURVE('',#145,#146,#33,.T.);
#116=EDGE_CURVE('',#146,#143,#163,.T.);
#117=EDGE_CURVE('',#147,#147,#34,.T.);
#118=EDGE_CURVE('',#148,#149,#164,.T.);
#119=EDGE_CURVE('',#148,#150,#35,.F.);
#120=EDGE_CURVE('',#149,#150,#165,.T.);
#121=EDGE_CURVE('',#137,#151,#166,.F.);
#122=EDGE_CURVE('',#142,#152,#167,.F.);
#123=EDGE_CURVE('',#152,#151,#168,.F.);
#124=EDGE_CURVE('',#152,#146,#169,.T.);
#125=EDGE_CURVE('',#146,#153,#170,.F.);
#126=EDGE_CURVE('',#153,#151,#171,.F.);
#127=EDGE_CURVE('',#153,#148,#172,.F.);
#128=EDGE_CURVE('',#149,#151,#173,.F.);
#129=EDGE_CURVE('',#150,#154,#174,.F.);
#130=EDGE_CURVE('',#154,#151,#175,.F.);
#131=EDGE_CURVE('',#154,#145,#176,.F.);
#132=EDGE_CURVE('',#155,#145,#177,.T.);
#133=EDGE_CURVE('',#155,#151,#178,.F.);
#134=EDGE_CURVE('',#136,#155,#179,.F.);
#135=VERTEX_POINT('',#318);
#136=VERTEX_POINT('',#324);
#137=VERTEX_POINT('',#325);
#138=VERTEX_POINT('',#330);
#139=VERTEX_POINT('',#332);
#140=VERTEX_POINT('',#344);
#141=VERTEX_POINT('',#346);
#142=VERTEX_POINT('',#352);
#143=VERTEX_POINT('',#360);
#144=VERTEX_POINT('',#364);
#145=VERTEX_POINT('',#372);
#146=VERTEX_POINT('',#374);
#147=VERTEX_POINT('',#381);
#148=VERTEX_POINT('',#389);
#149=VERTEX_POINT('',#390);
#150=VERTEX_POINT('',#392);
#151=VERTEX_POINT('',#464);
#152=VERTEX_POINT('',#469);
#153=VERTEX_POINT('',#588);
#154=VERTEX_POINT('',#733);
#155=VERTEX_POINT('',#852);
#156=B_SPLINE_CURVE_WITH_KNOTS('',3,(#299,#300,#301,#302,#303,#304,#305,
#306,#307,#308,#309,#310,#311,#312,#313,#314,#315,#316,#317),
 .UNSPECIFIED.,.T.,.F.,(1,1,1,1,1,1,1,1,1,1,1,1,1,1,1,1,1,1,1,1,1,1,1),
(-0.00699231104812496,-0.00466154069874997,-0.00233077034937499,0.,0.00233077034937499,
0.00466154069874998,0.00699231104812496,0.00932308139749995,0.0116538517468749,
0.0139846220962499,0.0163153924456249,0.0186461627949999,0.0209769331443749,
0.0233077034937499,0.0256384738431249,0.0279692441924999,0.0303000145418748,
0.0326307848912498,0.0349615552406248,0.0372923255899998,0.0396230959393748,
0.0419538662887498,0.0442846366381248),.UNSPECIFIED.);
#157=B_SPLINE_CURVE_WITH_KNOTS('',3,(#319,#320,#321,#322,#323),
 .UNSPECIFIED.,.F.,.F.,(4,1,4),(0.,0.5,1.),.UNSPECIFIED.);
#158=B_SPLINE_CURVE_WITH_KNOTS('',3,(#326,#327,#328,#329),.UNSPECIFIED.,
 .F.,.F.,(4,4),(0.00384799010701377,0.00712980084811424),.UNSPECIFIED.);
#159=B_SPLINE_CURVE_WITH_KNOTS('',3,(#333,#334,#335,#336,#337,#338,#339,
#340,#341,#342,#343),.UNSPECIFIED.,.F.,.F.,(4,1,1,1,1,1,1,1,4),(1.29557898963706E-17,
0.00163747118996406,0.0032749423799281,0.00491241356989214,0.00654988475985618,
0.00818735594982023,0.00982482713978427,0.0114622983297483,0.0130997695197124),
 .UNSPECIFIED.);
#160=B_SPLINE_CURVE_WITH_KNOTS('',3,(#347,#348,#349,#350,#351),
 .UNSPECIFIED.,.F.,.F.,(4,1,4),(0.,0.00165467990675346,0.00330935981350691),
 .UNSPECIFIED.);
#161=B_SPLINE_CURVE_WITH_KNOTS('',3,(#353,#354,#355,#356,#357),
 .UNSPECIFIED.,.F.,.F.,(4,1,4),(0.,0.5,1.),.UNSPECIFIED.);
#162=B_SPLINE_CURVE_WITH_KNOTS('',3,(#368,#369,#370,#371),.UNSPECIFIED.,
 .F.,.F.,(4,4),(0.,0.00297947025002108),.UNSPECIFIED.);
#163=B_SPLINE_CURVE_WITH_KNOTS('',3,(#375,#376,#377,#378,#379),
 .UNSPECIFIED.,.F.,.F.,(4,1,4),(0.,0.0014888319641803,0.0029776639283606),
 .UNSPECIFIED.);
#164=B_SPLINE_CURVE_WITH_KNOTS('',3,(#384,#385,#386,#387,#388),
 .UNSPECIFIED.,.F.,.F.,(4,1,4),(0.,0.5,1.),.UNSPECIFIED.);
#165=B_SPLINE_CURVE_WITH_KNOTS('',3,(#393,#394,#395,#396,#397),
 .UNSPECIFIED.,.F.,.F.,(4,1,4),(0.,0.5,1.),.UNSPECIFIED.);
#166=B_SPLINE_CURVE_WITH_KNOTS('',3,(#458,#459,#460,#461,#462,#463),
 .UNSPECIFIED.,.F.,.F.,(4,2,4),(0.,0.5,1.),.UNSPECIFIED.);
#167=B_SPLINE_CURVE_WITH_KNOTS('',3,(#465,#466,#467,#468),.UNSPECIFIED.,
 .F.,.F.,(4,4),(0.,1.),.UNSPECIFIED.);
#168=B_SPLINE_CURVE_WITH_KNOTS('',3,(#470,#471,#472,#473,#474,#475,#476,
#477,#478,#479),.UNSPECIFIED.,.F.,.F.,(4,2,2,2,4),(0.,0.25,0.5,0.75,1.),
 .UNSPECIFIED.);
#169=B_SPLINE_CURVE_WITH_KNOTS('',3,(#580,#581,#582,#583),.UNSPECIFIED.,
 .F.,.F.,(4,4),(0.,1.),.UNSPECIFIED.);
#170=B_SPLINE_CURVE_WITH_KNOTS('',3,(#584,#585,#586,#587),.UNSPECIFIED.,
 .F.,.F.,(4,4),(0.,1.),.UNSPECIFIED.);
#171=B_SPLINE_CURVE_WITH_KNOTS('',3,(#589,#590,#591,#592,#593,#594,#595,
#596,#597,#598),.UNSPECIFIED.,.F.,.F.,(4,2,2,2,4),(0.,0.25,0.375,0.5,1.),
 .UNSPECIFIED.);
#172=B_SPLINE_CURVE_WITH_KNOTS('',3,(#659,#660,#661,#662),.UNSPECIFIED.,
 .F.,.F.,(4,4),(0.,1.),.UNSPECIFIED.);
#173=B_SPLINE_CURVE_WITH_KNOTS('',3,(#663,#664,#665,#666,#667,#668),
 .UNSPECIFIED.,.F.,.F.,(4,2,4),(0.,0.5,1.),.UNSPECIFIED.);
#174=B_SPLINE_CURVE_WITH_KNOTS('',3,(#729,#730,#731,#732),.UNSPECIFIED.,
 .F.,.F.,(4,4),(0.,1.),.UNSPECIFIED.);
#175=B_SPLINE_CURVE_WITH_KNOTS('',3,(#734,#735,#736,#737,#738,#739,#740,
#741,#742,#743),.UNSPECIFIED.,.F.,.F.,(4,2,2,2,4),(0.,0.25,0.375,0.5,1.),
 .UNSPECIFIED.);
#176=B_SPLINE_CURVE_WITH_KNOTS('',3,(#844,#845,#846,#847),.UNSPECIFIED.,
 .F.,.F.,(4,4),(0.,1.),.UNSPECIFIED.);
#177=B_SPLINE_CURVE_WITH_KNOTS('',3,(#848,#849,#850,#851),.UNSPECIFIED.,
 .F.,.F.,(4,4),(0.,1.),.UNSPECIFIED.);
#178=B_SPLINE_CURVE_WITH_KNOTS('',3,(#853,#854,#855,#856,#857,#858,#859,
#860,#861,#862),.UNSPECIFIED.,.F.,.F.,(4,2,2,2,4),(0.,0.25,0.5,0.75,1.),
 .UNSPECIFIED.);
#179=B_SPLINE_CURVE_WITH_KNOTS('',3,(#939,#940,#941,#942),.UNSPECIFIED.,
 .F.,.F.,(4,4),(0.,1.),.UNSPECIFIED.);
#180=EDGE_LOOP('',(#36));
#181=EDGE_LOOP('',(#37,#38,#39,#40,#41,#42,#43));
#182=EDGE_LOOP('',(#44,#45,#46));
#183=EDGE_LOOP('',(#47,#48,#49));
#184=EDGE_LOOP('',(#50));
#185=EDGE_LOOP('',(#51,#52,#53,#54,#55,#56));
#186=EDGE_LOOP('',(#57));
#187=EDGE_LOOP('',(#58));
#188=EDGE_LOOP('',(#59,#60,#61));
#189=EDGE_LOOP('',(#62,#63,#64,#65));
#190=EDGE_LOOP('',(#66,#67,#68,#69));
#191=EDGE_LOOP('',(#70,#71,#72,#73));
#192=EDGE_LOOP('',(#74,#75,#76,#77));
#193=EDGE_LOOP('',(#78,#79,#80,#81));
#194=EDGE_LOOP('',(#82,#83,#84,#85,#86,#87));
#195=EDGE_LOOP('',(#88,#89,#90,#91,#92));
#196=EDGE_LOOP('',(#93,#94,#95,#96));
#197=EDGE_LOOP('',(#97,#98,#99,#100,#101));
#198=FACE_BOUND('',#180,.T.);
#199=FACE_BOUND('',#181,.T.);
#200=FACE_BOUND('',#182,.T.);
#201=FACE_BOUND('',#183,.T.);
#202=FACE_BOUND('',#184,.T.);
#203=FACE_BOUND('',#185,.T.);
#204=FACE_BOUND('',#186,.T.);
#205=FACE_BOUND('',#187,.T.);
#206=FACE_BOUND('',#188,.T.);
#207=FACE_BOUND('',#189,.T.);
#208=FACE_BOUND('',#190,.T.);
#209=FACE_BOUND('',#191,.T.);
#210=FACE_BOUND('',#192,.T.);
#211=FACE_BOUND('',#193,.T.);
#212=FACE_BOUND('',#194,.T.);
#213=FACE_BOUND('',#195,.T.);
#214=FACE_BOUND('',#196,.T.);
#215=FACE_BOUND('',#197,.T.);
#216=CYLINDRICAL_SURFACE('',#248,0.0059563);
#217=CYLINDRICAL_SURFACE('',#255,0.0381);
#218=CYLINDRICAL_SURFACE('',#256,0.0040513);
#219=ADVANCED_FACE('',(#198,#199),#216,.T.);
#220=ADVANCED_FACE('',(#200),#25,.F.);
#221=ADVANCED_FACE('',(#201),#26,.F.);
#222=ADVANCED_FACE('',(#202),#217,.T.);
#223=ADVANCED_FACE('',(#203,#204),#218,.T.);
#224=ADVANCED_FACE('',(#205),#27,.T.);
#225=ADVANCED_FACE('',(#206),#28,.F.);
#226=ADVANCED_FACE('',(#207),#15,.T.);
#227=ADVANCED_FACE('',(#208),#16,.T.);
#228=ADVANCED_FACE('',(#209),#17,.T.);
#229=ADVANCED_FACE('',(#210),#18,.T.);
#230=ADVANCED_FACE('',(#211),#19,.T.);
#231=ADVANCED_FACE('',(#212),#14,.T.);
#232=ADVANCED_FACE('',(#213),#12,.F.);
#233=ADVANCED_FACE('',(#214),#20,.T.);
#234=ADVANCED_FACE('',(#215),#13,.F.);
#235=CLOSED_SHELL('',(#219,#220,#221,#222,#223,#224,#225,#226,#227,#228,
#229,#230,#231,#232,#233,#234));
#236=STYLED_ITEM('',(#237),#244);
#237=PRESENTATION_STYLE_ASSIGNMENT((#238));
#238=SURFACE_STYLE_USAGE(.BOTH.,#239);
#239=SURFACE_SIDE_STYLE('',(#240));
#240=SURFACE_STYLE_FILL_AREA(#241);
#241=FILL_AREA_STYLE('',(#242));
#242=FILL_AREA_STYLE_COLOUR('',#243);
#243=COLOUR_RGB('',0.615686274509804,0.811764705882353,0.929411764705882);
#244=MANIFOLD_SOLID_BREP('Part 1',#235);
#245=SHAPE_DEFINITION_REPRESENTATION(#961,#246);
#246=SHAPE_REPRESENTATION('Part 1',(#247),#956);
#247=AXIS2_PLACEMENT_3D('',#297,#263,#264);
#248=AXIS2_PLACEMENT_3D('',#298,#265,#266);
#249=AXIS2_PLACEMENT_3D('',#331,#267,#268);
#250=AXIS2_PLACEMENT_3D('',#345,#269,#270);
#251=AXIS2_PLACEMENT_3D('',#358,#271,#272);
#252=AXIS2_PLACEMENT_3D('',#361,#274,#275);
#253=AXIS2_PLACEMENT_3D('',#362,#276,#277);
#254=AXIS2_PLACEMENT_3D('',#365,#279,#280);
#255=AXIS2_PLACEMENT_3D('',#366,#281,#282);
#256=AXIS2_PLACEMENT_3D('',#367,#283,#284);
#257=AXIS2_PLACEMENT_3D('',#373,#285,#286);
#258=AXIS2_PLACEMENT_3D('',#380,#287,#288);
#259=AXIS2_PLACEMENT_3D('',#382,#289,#290);
#260=AXIS2_PLACEMENT_3D('',#383,#291,#292);
#261=AXIS2_PLACEMENT_3D('',#391,#293,#294);
#262=AXIS2_PLACEMENT_3D('',#863,#295,#296);
#263=DIRECTION('',(0.,0.,1.));
#264=DIRECTION('',(1.,0.,0.));
#265=DIRECTION('',(-1.,0.,0.));
#266=DIRECTION('',(0.,0.,1.));
#267=DIRECTION('',(1.,0.,0.));
#268=DIRECTION('',(0.,0.,-1.));
#269=DIRECTION('',(1.,0.,0.));
#270=DIRECTION('',(0.,0.,-1.));
#271=DIRECTION('',(1.,0.,0.));
#272=DIRECTION('',(0.,1.,0.));
#273=DIRECTION('',(0.,0.,-1.));
#274=DIRECTION('',(1.,0.,0.));
#275=DIRECTION('',(0.,0.,-1.));
#276=DIRECTION('',(1.,0.,0.));
#277=DIRECTION('',(0.,1.,0.));
#278=DIRECTION('',(0.,0.,-1.));
#279=DIRECTION('',(1.,0.,0.));
#280=DIRECTION('',(0.,0.,-1.));
#281=DIRECTION('',(0.,0.,1.));
#282=DIRECTION('',(1.,0.,0.));
#283=DIRECTION('',(0.,0.,-1.));
#284=DIRECTION('',(-1.,0.,0.));
#285=DIRECTION('',(0.,0.,1.));
#286=DIRECTION('',(1.,0.,0.));
#287=DIRECTION('',(0.,0.,1.));
#288=DIRECTION('',(1.,0.,0.));
#289=DIRECTION('',(0.,0.,1.));
#290=DIRECTION('',(1.,0.,0.));
#291=DIRECTION('',(0.,0.,1.));
#292=DIRECTION('',(1.,0.,0.));
#293=DIRECTION('',(0.,0.,1.));
#294=DIRECTION('',(1.,0.,0.));
#295=DIRECTION('',(0.,0.,1.));
#296=DIRECTION('',(1.,0.,0.));
#297=CARTESIAN_POINT('',(0.,0.,0.));
#298=CARTESIAN_POINT('',(0.0381,0.,3.64718186488069E-19));
#299=CARTESIAN_POINT('',(0.0380492557656633,-0.00234581556046617,-0.00564346097222729));
#300=CARTESIAN_POINT('',(0.0381253469542718,6.17027747936501E-7,-0.00611254367337454));
#301=CARTESIAN_POINT('',(0.0380493564172493,0.00234334744947442,-0.00564416433427453));
#302=CARTESIAN_POINT('',(0.0378666345571995,0.00432104522341105,-0.00432043240484459));
#303=CARTESIAN_POINT('',(0.0376829781133812,0.00564364529098541,-0.00234381384036336));
#304=CARTESIAN_POINT('',(0.0376059552572473,0.00611169331145506,-4.93977920872819E-6));
#305=CARTESIAN_POINT('',(0.0376824175806434,0.00564737114873477,0.00233642093922667));
#306=CARTESIAN_POINT('',(0.0378663906366636,0.00432317461711763,0.00431877611792839));
#307=CARTESIAN_POINT('',(0.0380492556942198,0.00234581646696678,0.00564346050824556));
#308=CARTESIAN_POINT('',(0.0381253469541981,-6.15379073873965E-7,0.00611254367275239));
#309=CARTESIAN_POINT('',(0.0380493564889878,-0.00234334653959564,0.0056441648007439));
#310=CARTESIAN_POINT('',(0.0378666346166182,-0.00432104474149975,0.00432043293349064));
#311=CARTESIAN_POINT('',(0.0376829781294637,-0.00564364520215813,0.00234381418583046));
#312=CARTESIAN_POINT('',(0.0376059552492377,-0.00611169335549541,4.93977961008077E-6));
#313=CARTESIAN_POINT('',(0.0376824175965995,-0.00564737106140068,-0.00233642128629863));
#314=CARTESIAN_POINT('',(0.037866390697135,-0.00432317412590774,-0.00431877665573845));
#315=CARTESIAN_POINT('',(0.0380492557656633,-0.00234581556046617,-0.00564346097222729));
#316=CARTESIAN_POINT('',(0.0381253469542718,6.17027747936501E-7,-0.00611254367337454));
#317=CARTESIAN_POINT('',(0.0380493564172493,0.00234334744947442,-0.00564416433427453));
#318=CARTESIAN_POINT('',(0.0381,0.,-0.0059563));
#319=CARTESIAN_POINT('',(0.00294686526498925,0.0032055694760324,-0.00502014282907662));
#320=CARTESIAN_POINT('',(0.00348887973338888,0.00278253468479506,-0.00529026809448457));
#321=CARTESIAN_POINT('',(0.00432036605131996,0.00177031344376777,-0.00577536268516955));
#322=CARTESIAN_POINT('',(0.0045913732855198,0.000599523291124347,-0.0059563));
#323=CARTESIAN_POINT('',(0.0045913732855198,-1.24962064301735E-17,-0.0059563));
#324=CARTESIAN_POINT('',(0.00294686526498925,0.00320556947603239,-0.00502014282907662));
#325=CARTESIAN_POINT('',(0.00459137328551983,7.29436372976138E-19,-0.0059563));
#326=CARTESIAN_POINT('',(0.0029468652649893,0.00320556947603248,-0.00502014282907659));
#327=CARTESIAN_POINT('',(0.00214234355631443,0.00383348753526817,-0.00461919109669217));
#328=CARTESIAN_POINT('',(0.00110553635585246,0.00420100530451867,-0.00422244764578629));
#329=CARTESIAN_POINT('',(-7.87100157583139E-19,0.00420100530451867,-0.00422244764578629));
#330=CARTESIAN_POINT('',(0.,0.00420100530451867,-0.00422244764578627));
#331=CARTESIAN_POINT('',(0.,0.,3.64718186488069E-19));
#332=CARTESIAN_POINT('',(0.,0.0040513,0.00436628881316846));
#333=CARTESIAN_POINT('',(1.38777878078145E-17,-0.0040513,0.00436628881316845));
#334=CARTESIAN_POINT('',(0.000556061361832898,-0.0040513,0.00436628881316846));
#335=CARTESIAN_POINT('',(0.00162997833250388,-0.0038200041457547,0.00459306456706744));
#336=CARTESIAN_POINT('',(0.00291815376787082,-0.00294569225308374,0.00522729619758285));
#337=CARTESIAN_POINT('',(0.00381330669745862,-0.0016574442379146,0.00579112445052852));
#338=CARTESIAN_POINT('',(0.00416801345574381,-6.83823928582681E-6,0.00603740484210199));
#339=CARTESIAN_POINT('',(0.0038223943472267,0.00163795561390591,0.00579702548338953));
#340=CARTESIAN_POINT('',(0.00292214451295806,0.00294272289146228,0.00522988123081283));
#341=CARTESIAN_POINT('',(0.00164084560529321,0.00381567835755895,0.00459648312341527));
#342=CARTESIAN_POINT('',(0.000556554473228049,0.0040513,0.00436628881316846));
#343=CARTESIAN_POINT('',(1.3683589583752E-17,0.0040513,0.00436628881316846));
#344=CARTESIAN_POINT('',(0.,-0.0040513,0.00436628881316846));
#345=CARTESIAN_POINT('',(0.,0.,3.64718186488069E-19));
#346=CARTESIAN_POINT('',(0.,-0.00420100530451867,-0.00422244764578627));
#347=CARTESIAN_POINT('',(0.,-0.00420100530451867,-0.00422244764578627));
#348=CARTESIAN_POINT('',(0.000553109660718373,-0.00420100530451867,-0.00422244764578627));
#349=CARTESIAN_POINT('',(0.00164460428556369,-0.00400942606355715,-0.00442188974263712));
#350=CARTESIAN_POINT('',(0.00254361391711092,-0.0035203015721507,-0.00481917332785033));
#351=CARTESIAN_POINT('',(0.00294686526498921,-0.0032055694760324,-0.00502014282907666));
#352=CARTESIAN_POINT('',(0.00294686526498919,-0.00320556947603244,-0.00502014282907659));
#353=CARTESIAN_POINT('',(0.0045913732855198,-1.24962064301735E-17,-0.0059563));
#354=CARTESIAN_POINT('',(0.0045913732855198,-0.000599400487318482,-0.0059563));
#355=CARTESIAN_POINT('',(0.00432031184740587,-0.00177041715107552,-0.00577533567141338));
#356=CARTESIAN_POINT('',(0.00348898814121705,-0.00278245007398551,-0.00529032212199688));
#357=CARTESIAN_POINT('',(0.00294686526498916,-0.00320556947603244,-0.00502014282907659));
#358=CARTESIAN_POINT('',(0.,0.,0.));
#359=CARTESIAN_POINT('',(0.,-0.0040513,0.0194437));
#360=CARTESIAN_POINT('',(5.54725859719066E-33,-0.0040513,-0.00458257111237786));
#361=CARTESIAN_POINT('',(-1.76809478015067E-17,-0.0045593,-0.00458257111237785));
#362=CARTESIAN_POINT('',(0.,0.,0.));
#363=CARTESIAN_POINT('',(0.,0.0040513,0.0194437));
#364=CARTESIAN_POINT('',(5.54725859719066E-33,0.0040513,-0.00458257111237786));
#365=CARTESIAN_POINT('',(-3.15108153562254E-23,0.0045593,-0.00458257111237786));
#366=CARTESIAN_POINT('',(1.16647607618785E-18,0.,-0.0254));
#367=CARTESIAN_POINT('',(0.,2.48070578869284E-19,0.0194437));
#368=CARTESIAN_POINT('',(5.54725859719066E-33,0.0040513,-0.00458257111237786));
#369=CARTESIAN_POINT('',(0.0010113693794884,0.0040513,-0.00458257111237786));
#370=CARTESIAN_POINT('',(0.00192226142467376,0.00368110759466199,-0.00502448539710919));
#371=CARTESIAN_POINT('',(0.00261852373128569,0.00309133711501895,-0.0054483));
#372=CARTESIAN_POINT('',(0.00261852373128569,0.00309133711501895,-0.0054483));
#373=CARTESIAN_POINT('',(0.,2.48070578869284E-19,-0.0054483));
#374=CARTESIAN_POINT('',(0.00261852373128569,-0.00309133711501895,-0.0054483));
#375=CARTESIAN_POINT('',(0.00261852373128569,-0.00309133711501895,-0.0054483));
#376=CARTESIAN_POINT('',(0.00227049582169341,-0.00338613490203143,-0.0052364555429641));
#377=CARTESIAN_POINT('',(0.001492671772548,-0.00385451150471028,-0.00481209782621138));
#378=CARTESIAN_POINT('',(0.000505525035556045,-0.0040513,-0.00458257111237786));
#379=CARTESIAN_POINT('',(7.04507930623163E-20,-0.0040513,-0.00458257111237786));
#380=CARTESIAN_POINT('',(0.,2.48070578869284E-19,0.0194437));
#381=CARTESIAN_POINT('',(0.0040513,2.48070578869284E-19,0.0194437));
#382=CARTESIAN_POINT('',(0.,0.,0.0194437));
#383=CARTESIAN_POINT('',(0.,0.,-0.0059563));
#384=CARTESIAN_POINT('',(0.00229018219758216,-0.00270370863664667,-0.0059563));
#385=CARTESIAN_POINT('',(0.00273265495677376,-0.00232891113728576,-0.0059563));
#386=CARTESIAN_POINT('',(0.0034187136141971,-0.00144851778577486,-0.0059563));
#387=CARTESIAN_POINT('',(0.0036399499937929,-0.000494266483299877,-0.0059563));
#388=CARTESIAN_POINT('',(0.0036399499937929,4.33680868994202E-19,-0.0059563));
#389=CARTESIAN_POINT('',(0.00229018219758216,-0.00270370863664667,-0.0059563));
#390=CARTESIAN_POINT('',(0.0036399499937929,4.33680868994202E-19,-0.0059563));
#391=CARTESIAN_POINT('',(0.,2.48070578869284E-19,-0.0059563));
#392=CARTESIAN_POINT('',(0.00229018219758216,0.00270370863664667,-0.0059563));
#393=CARTESIAN_POINT('',(0.0036399499937929,4.33680868994202E-19,-0.0059563));
#394=CARTESIAN_POINT('',(0.0036399499937929,0.000493857331610888,-0.0059563));
#395=CARTESIAN_POINT('',(0.00341853683648919,0.00144887210155587,-0.0059563));
#396=CARTESIAN_POINT('',(0.00273300851218961,0.00232861165741272,-0.0059563));
#397=CARTESIAN_POINT('',(0.00229018219758216,0.00270370863664667,-0.0059563));
#398=CARTESIAN_POINT('',(0.00413609358990758,2.17807077902629E-10,-0.00596540540483524));
#399=CARTESIAN_POINT('',(0.00415679079440165,-0.000271199803198799,-0.00596530524575236));
#400=CARTESIAN_POINT('',(0.00414469479487931,-0.000548412281368758,-0.00596122035463051));
#401=CARTESIAN_POINT('',(0.00404255024254362,-0.00109557571378155,-0.00592477622610487));
#402=CARTESIAN_POINT('',(0.00395250168973028,-0.00136552666802438,-0.00589241698870106));
#403=CARTESIAN_POINT('',(0.00368208588555443,-0.00187888061432762,-0.00577911928540742));
#404=CARTESIAN_POINT('',(0.0035281410924461,-0.00213255944705343,-0.00570404094776892));
#405=CARTESIAN_POINT('',(0.00317909830136025,-0.00262049623958112,-0.00549873277358566));
#406=CARTESIAN_POINT('',(0.00298400030338274,-0.002854754199383,-0.00536850293704089));
#407=CARTESIAN_POINT('',(0.00276648599155644,-0.00307258942668678,-0.00520155108758154));
#408=CARTESIAN_POINT('',(0.00421888232277094,2.13796417320052E-10,-0.00596500472695805));
#409=CARTESIAN_POINT('',(0.0042258544888685,-0.000217866814948863,-0.00596459873575795));
#410=CARTESIAN_POINT('',(0.00422429552299038,-0.000455212826887324,-0.00596061895630132));
#411=CARTESIAN_POINT('',(0.00414920861234701,-0.000958996085502158,-0.00592749528618037));
#412=CARTESIAN_POINT('',(0.00407639106519789,-0.00122615694209746,-0.00589822920213232));
#413=CARTESIAN_POINT('',(0.0038016852612338,-0.00177769874524027,-0.00577983531634558));
#414=CARTESIAN_POINT('',(0.00363933197979644,-0.00204974943983812,-0.00570007320283342));
#415=CARTESIAN_POINT('',(0.00326048364862005,-0.00258045890282228,-0.00547845272015776));
#416=CARTESIAN_POINT('',(0.00304398859888101,-0.00283911767120861,-0.00533659435099427));
#417=CARTESIAN_POINT('',(0.00279835216029561,-0.00308810472035699,-0.00515320489679826));
#418=CARTESIAN_POINT('',(0.00429766805816778,3.27700740548839E-10,-0.00596238990407938));
#419=CARTESIAN_POINT('',(0.00429742615843091,-0.000191233136181168,-0.00596240929239604));
#420=CARTESIAN_POINT('',(0.00428672797822477,-0.000414431717873239,-0.00595909962108146));
#421=CARTESIAN_POINT('',(0.00419645524014086,-0.000908556450637972,-0.00592330064023069));
#422=CARTESIAN_POINT('',(0.00411759107987922,-0.00118006556092243,-0.00589067685054194));
#423=CARTESIAN_POINT('',(0.00384082754910834,-0.00175067867229925,-0.00576332375729038));
#424=CARTESIAN_POINT('',(0.00367585753941316,-0.00203477628767698,-0.00567656443326554));
#425=CARTESIAN_POINT('',(0.0032933712396075,-0.00258734173404265,-0.00544258869217998));
#426=CARTESIAN_POINT('',(0.00307585494949703,-0.00285577455816501,-0.00529547473505288));
#427=CARTESIAN_POINT('',(0.00283238062328104,-0.00311192712587216,-0.00511243427811402));
#428=CARTESIAN_POINT('',(0.00447848602715947,1.18918482218324E-10,-0.00595196130497912));
#429=CARTESIAN_POINT('',(0.00447851830596195,-0.000197515915364407,-0.00595195401996005));
#430=CARTESIAN_POINT('',(0.00444864377990589,-0.000430701727281935,-0.00594449626232026));
#431=CARTESIAN_POINT('',(0.00431683764133019,-0.00094386034773869,-0.00589196548716639));
#432=CARTESIAN_POINT('',(0.00421526122761861,-0.00122390368816581,-0.00584681089935322));
#433=CARTESIAN_POINT('',(0.003926710329064,-0.00180166907522657,-0.00570135867243805));
#434=CARTESIAN_POINT('',(0.0037528977173462,-0.00209043544976478,-0.00560442484581897));
#435=CARTESIAN_POINT('',(0.00335716586444812,-0.0026456534758156,-0.00536257128102118));
#436=CARTESIAN_POINT('',(0.00313524662326783,-0.00291203178404877,-0.00521786560887716));
#437=CARTESIAN_POINT('',(0.00289475791506553,-0.00316085892780299,-0.00505255681105455));
#438=CARTESIAN_POINT('',(0.00452500234969649,6.1906877220958E-11,-0.0059563));
#439=CARTESIAN_POINT('',(0.00452500238321287,-0.000230432117503673,-0.00595630000307855));
#440=CARTESIAN_POINT('',(0.00448497237653816,-0.00048793279552039,-0.00594345702157621));
#441=CARTESIAN_POINT('',(0.00433483637884927,-0.00103022280001501,-0.0058746531538643));
#442=CARTESIAN_POINT('',(0.00422473038783509,-0.00131471088176403,-0.00581867589397796));
#443=CARTESIAN_POINT('',(0.00394442651750997,-0.00188087149296559,-0.00566067222198753));
#444=CARTESIAN_POINT('',(0.00377422863819902,-0.00216231519770685,-0.00555879916399986));
#445=CARTESIAN_POINT('',(0.00338372508732306,-0.0026979556983733,-0.0053187569861248));
#446=CARTESIAN_POINT('',(0.00316341941575804,-0.00295207582147073,-0.00518081107843952));
#447=CARTESIAN_POINT('',(0.00292305189608734,-0.00318559894039279,-0.00503289484463593));
#448=CARTESIAN_POINT('',(0.00459137328551981,-1.91569218765379E-18,-0.0059563));
#449=CARTESIAN_POINT('',(0.00459137328551981,-0.000296198637292995,-0.0059563));
#450=CARTESIAN_POINT('',(0.00455711270175876,-0.0005923753668961,-0.0059340350833835));
#451=CARTESIAN_POINT('',(0.00442007036671453,-0.00117299168853706,-0.0058470309939964));
#452=CARTESIAN_POINT('',(0.00431728861543136,-0.00145739139394564,-0.00578230822094752));
#453=CARTESIAN_POINT('',(0.00404320394534292,-0.00200395103778189,-0.0056163385114643));
#454=CARTESIAN_POINT('',(0.00387190102653764,-0.00226608202118135,-0.0055151209897656));
#455=CARTESIAN_POINT('',(0.00346077402140498,-0.00275993825353386,-0.0052853030277511));
#456=CARTESIAN_POINT('',(0.0032209499350776,-0.00299165018429369,-0.00515673917210502));
#457=CARTESIAN_POINT('',(0.00294686526498917,-0.00320556947603244,-0.00502014282907659));
#458=CARTESIAN_POINT('',(0.00413609358990758,2.17807077902629E-10,-0.00596540540483524));
#459=CARTESIAN_POINT('',(0.00421888232277094,2.13796417320052E-10,-0.00596500472695805));
#460=CARTESIAN_POINT('',(0.00429766805816778,3.27700740548839E-10,-0.00596238990407938));
#461=CARTESIAN_POINT('',(0.00447848602715947,1.18918482218324E-10,-0.00595196130497912));
#462=CARTESIAN_POINT('',(0.00452500234969649,6.1906877220958E-11,-0.0059563));
#463=CARTESIAN_POINT('',(0.00459137328551981,-1.91569218765379E-18,-0.0059563));
#464=CARTESIAN_POINT('',(0.00413609358990758,2.17807077902629E-10,-0.00596540540483524));
#465=CARTESIAN_POINT('',(0.00276648599155644,-0.00307258942668678,-0.00520155108758154));
#466=CARTESIAN_POINT('',(0.00283021832903478,-0.00310362001402721,-0.00510485870601498));
#467=CARTESIAN_POINT('',(0.00289923852718551,-0.00316562840475314,-0.00504564686019527));
#468=CARTESIAN_POINT('',(0.00294686526498917,-0.00320556947603244,-0.00502014282907659));
#469=CARTESIAN_POINT('',(0.00276648599155642,-0.00307258942668678,-0.00520155108758156));
#470=CARTESIAN_POINT('',(0.00413609358990758,2.17807077902629E-10,-0.00596540540483524));
#471=CARTESIAN_POINT('',(0.00415679079440165,-0.000271199803198799,-0.00596530524575236));
#472=CARTESIAN_POINT('',(0.00414469479487931,-0.000548412281368758,-0.00596122035463051));
#473=CARTESIAN_POINT('',(0.00404255024254362,-0.00109557571378155,-0.00592477622610486));
#474=CARTESIAN_POINT('',(0.00395250168973028,-0.00136552666802438,-0.00589241698870106));
#475=CARTESIAN_POINT('',(0.00368208588555443,-0.00187888061432762,-0.00577911928540743));
#476=CARTESIAN_POINT('',(0.0035281410924461,-0.00213255944705343,-0.00570404094776893));
#477=CARTESIAN_POINT('',(0.00317909830136025,-0.00262049623958112,-0.00549873277358566));
#478=CARTESIAN_POINT('',(0.00298400030338274,-0.002854754199383,-0.00536850293704089));
#479=CARTESIAN_POINT('',(0.00276648599155644,-0.00307258942668678,-0.00520155108758154));
#480=CARTESIAN_POINT('',(0.00413609358990758,2.17807077902629E-10,-0.00596540540483524));
#481=CARTESIAN_POINT('',(0.00411539642796997,-0.000271199801193468,-0.00596550558469096));
#482=CARTESIAN_POINT('',(0.00404833293127074,-0.000528102054494826,-0.00596168672681157));
#483=CARTESIAN_POINT('',(0.00389514559631389,-0.000904027935916586,-0.00595919756012876));
#484=CARTESIAN_POINT('',(0.00383531780301026,-0.00102776531330213,-0.0059589076912572));
#485=CARTESIAN_POINT('',(0.0037009577551394,-0.00127410076023287,-0.00596092727301599));
#486=CARTESIAN_POINT('',(0.00362642550057217,-0.00139669882977806,-0.00596323672364634));
#487=CARTESIAN_POINT('',(0.00322406866300799,-0.00201184888707758,-0.0059850813075274));
#488=CARTESIAN_POINT('',(0.00291452676351242,-0.00247103944868519,-0.00593615101640629));
#489=CARTESIAN_POINT('',(0.00254471274009291,-0.00295879264129509,-0.00580745506551629));
#490=CARTESIAN_POINT('',(0.00415679079440165,-0.000271199803198799,-0.00596530524575236));
#491=CARTESIAN_POINT('',(0.00410791751720234,-0.000479985014891777,-0.00596296562117481));
#492=CARTESIAN_POINT('',(0.00403237082867185,-0.000692103115237238,-0.00595886733349989));
#493=CARTESIAN_POINT('',(0.00387788618169558,-0.00102133194435053,-0.0059549984395442));
#494=CARTESIAN_POINT('',(0.00381952010598797,-0.00113291699169949,-0.00595414270239236));
#495=CARTESIAN_POINT('',(0.00368867146844002,-0.0013607028327137,-0.0059545879496567));
#496=CARTESIAN_POINT('',(0.00361629159574048,-0.00147690253171587,-0.00595579143288989));
#497=CARTESIAN_POINT('',(0.00321720512014771,-0.0020717403076132,-0.00597274322846508));
#498=CARTESIAN_POINT('',(0.00292241133158122,-0.00251475270490353,-0.00591790631214338));
#499=CARTESIAN_POINT('',(0.00256625337441007,-0.00297820487404512,-0.00577868271317028));
#500=CARTESIAN_POINT('',(0.00414469479487931,-0.000548412281368758,-0.00596122035463051));
#501=CARTESIAN_POINT('',(0.00408528603361614,-0.000709253278398572,-0.00595659503250162));
#502=CARTESIAN_POINT('',(0.00400719215890627,-0.000886650136147643,-0.00595086378109711));
#503=CARTESIAN_POINT('',(0.00385385389853799,-0.00117703087725325,-0.00594330547380662));
#504=CARTESIAN_POINT('',(0.00379669260050319,-0.0012778722701868,-0.00594104033987343));
#505=CARTESIAN_POINT('',(0.0036686387608306,-0.00148744351188787,-0.00593817251975706));
#506=CARTESIAN_POINT('',(0.00359790025290405,-0.00159617171866078,-0.0059374235817994));
#507=CARTESIAN_POINT('',(0.00320435324563658,-0.0021589725751616,-0.00594419998521397));
#508=CARTESIAN_POINT('',(0.00291668855461942,-0.00257725138545093,-0.00588437086915723));
#509=CARTESIAN_POINT('',(0.0025858303872098,-0.00299524740464396,-0.00574494356145725));
#510=CARTESIAN_POINT('',(0.00404255024254362,-0.00109557571378155,-0.00592477622610486));
#511=CARTESIAN_POINT('',(0.00397677227316547,-0.00118703475760681,-0.00591977959252076));
#512=CARTESIAN_POINT('',(0.00389937737196783,-0.00131089204576323,-0.00591223907979155));
#513=CARTESIAN_POINT('',(0.00375387488580542,-0.00153447359855843,-0.00589844878016726));
#514=CARTESIAN_POINT('',(0.00370045282236346,-0.00161530034893946,-0.00589354026711357));
#515=CARTESIAN_POINT('',(0.00358142811398529,-0.00178760796611495,-0.00588420279618097));
#516=CARTESIAN_POINT('',(0.00351601801118812,-0.00187908678041618,-0.00587959102358394));
#517=CARTESIAN_POINT('',(0.0031508695476951,-0.00235819936127429,-0.00586483912353929));
#518=CARTESIAN_POINT('',(0.00288467915445362,-0.00271125749462556,-0.00579849611755887));
#519=CARTESIAN_POINT('',(0.00261771954166946,-0.00302406342118149,-0.0056738750137366));
#520=CARTESIAN_POINT('',(0.00395250168973028,-0.00136552666802438,-0.00589241698870106));
#521=CARTESIAN_POINT('',(0.00389122591685896,-0.00143589176877117,-0.00588905760469648));
#522=CARTESIAN_POINT('',(0.00381724513563191,-0.0015411026276628,-0.00588120222611384));
#523=CARTESIAN_POINT('',(0.0036785265147243,-0.00173682977262923,-0.00586479140284524));
#524=CARTESIAN_POINT('',(0.0036276441569611,-0.00180839090667724,-0.00585864457719435));
#525=CARTESIAN_POINT('',(0.00351482753820839,-0.00196162263961976,-0.00584617217411658));
#526=CARTESIAN_POINT('',(0.00345307298321531,-0.00204329132285392,-0.00583967596961947));
#527=CARTESIAN_POINT('',(0.00311057364482271,-0.00247053767530151,-0.0058137443685991));
#528=CARTESIAN_POINT('',(0.0028583925312496,-0.00278276492325277,-0.00574615680894665));
#529=CARTESIAN_POINT('',(0.00263003168332937,-0.00303583690712017,-0.00563654561772898));
#530=CARTESIAN_POINT('',(0.00368208588555443,-0.00187888061432762,-0.00577911928540743));
#531=CARTESIAN_POINT('',(0.00362282093162294,-0.00193011311013547,-0.00577816526868284));
#532=CARTESIAN_POINT('',(0.00355482515492342,-0.0020092028781104,-0.00577082001582517));
#533=CARTESIAN_POINT('',(0.00343555904158367,-0.00215503136761426,-0.00575356088079169));
#534=CARTESIAN_POINT('',(0.00339291189864856,-0.00220817336772081,-0.00574683529887346));
#535=CARTESIAN_POINT('',(0.00330091092948101,-0.00232099388014018,-0.00573258354996594));
#536=CARTESIAN_POINT('',(0.00325168546467462,-0.00238067102412417,-0.00572493550649789));
#537=CARTESIAN_POINT('',(0.00298528277283747,-0.00268904062562549,-0.00569045535134116));
#538=CARTESIAN_POINT('',(0.00279190628241829,-0.00290622642800865,-0.00563445193791657));
#539=CARTESIAN_POINT('',(0.00264405346740441,-0.00305358519397956,-0.00556463993585856));
#540=CARTESIAN_POINT('',(0.0035281410924461,-0.00213255944705343,-0.00570404094776893));
#541=CARTESIAN_POINT('',(0.00347292992658279,-0.00217444078704433,-0.00570555997879922));
#542=CARTESIAN_POINT('',(0.00340918915087504,-0.00223984323565964,-0.00569987171712508));
#543=CARTESIAN_POINT('',(0.00330084014805429,-0.00235917174256792,-0.0056847006872632));
#544=CARTESIAN_POINT('',(0.00326259171926277,-0.00240248552201208,-0.00567858460841966));
#545=CARTESIAN_POINT('',(0.0031816811291204,-0.00249377795877107,-0.00566534051887177));
#546=CARTESIAN_POINT('',(0.00313910882076778,-0.00254175565825571,-0.0056581271946323));
#547=CARTESIAN_POINT('',(0.00291399852149825,-0.00278725517966205,-0.00562432647068121));
#548=CARTESIAN_POINT('',(0.00275232303387575,-0.0029590807727002,-0.0055781108738311));
#549=CARTESIAN_POINT('',(0.00264598886785895,-0.00305998726303207,-0.00553057996516316));
#550=CARTESIAN_POINT('',(0.00317909830136025,-0.00262049623958112,-0.00549873277358566));
#551=CARTESIAN_POINT('',(0.00313852253858812,-0.00264067046371169,-0.00550870595948991));
#552=CARTESIAN_POINT('',(0.00309132574147022,-0.00267435232165449,-0.00551318964419868));
#553=CARTESIAN_POINT('',(0.0030156606203584,-0.00273555661951591,-0.00551473937922363));
#554=CARTESIAN_POINT('',(0.00298962465299394,-0.00275773834343059,-0.00551440686003574));
#555=CARTESIAN_POINT('',(0.00293672238116515,-0.00280404642057598,-0.00551267074769354));
#556=CARTESIAN_POINT('',(0.00290988174898603,-0.00282817250014091,-0.0055112427792435));
#557=CARTESIAN_POINT('',(0.00277535804214145,-0.00294961735578989,-0.0055035731154097));
#558=CARTESIAN_POINT('',(0.00268177827680872,-0.00303742062210566,-0.00548991907439981));
#559=CARTESIAN_POINT('',(0.0026396688877737,-0.00307325679538343,-0.00547631442759478));
#560=CARTESIAN_POINT('',(0.00298400030338274,-0.002854754199383,-0.00536850293704089));
#561=CARTESIAN_POINT('',(0.0029540061556336,-0.00286257246347021,-0.0053844572300642));
#562=CARTESIAN_POINT('',(0.00291915073189519,-0.00287827557109635,-0.00539744235331768));
#563=CARTESIAN_POINT('',(0.00286535430831785,-0.0029079616519935,-0.00541359904232379));
#564=CARTESIAN_POINT('',(0.00284716995246377,-0.00291887891553553,-0.00541843110601347));
#565=CARTESIAN_POINT('',(0.00281125991576805,-0.00294180794146382,-0.00542717702789823));
#566=CARTESIAN_POINT('',(0.00279353423492642,-0.00295381970385008,-0.00543109088609331));
#567=CARTESIAN_POINT('',(0.00270846027908855,-0.00301424149378756,-0.00544883664615742));
#568=CARTESIAN_POINT('',(0.00265131453196223,-0.00306342299066245,-0.00545795248301003));
#569=CARTESIAN_POINT('',(0.00263157070208708,-0.00308028565042815,-0.00545609341510888));
#570=CARTESIAN_POINT('',(0.00276648599155644,-0.00307258942668678,-0.00520155108758154));
#571=CARTESIAN_POINT('',(0.00275055290718685,-0.00306483177985167,-0.00522572418297318));
#572=CARTESIAN_POINT('',(0.00273509632417662,-0.00305923802136329,-0.00525228027634739));
#573=CARTESIAN_POINT('',(0.00271336753477104,-0.00305460972102163,-0.00529236244097159));
#574=CARTESIAN_POINT('',(0.00270636728582079,-0.0030536940104729,-0.00530576449994014));
#575=CARTESIAN_POINT('',(0.00269297570513535,-0.0030532027859842,-0.00533209688066303));
#576=CARTESIAN_POINT('',(0.00268658437340014,-0.00305362727204423,-0.00534502720241737));
#577=CARTESIAN_POINT('',(0.00265645889654113,-0.00305931540422915,-0.00540711343798231));
#578=CARTESIAN_POINT('',(0.00263818381917206,-0.00307468399542241,-0.00544810584787673));
#579=CARTESIAN_POINT('',(0.00261852373128568,-0.00309133711501895,-0.0054483));
#580=CARTESIAN_POINT('',(0.00276648599155644,-0.00307258942668678,-0.00520155108758154));
#581=CARTESIAN_POINT('',(0.00270275365407808,-0.00304155883934634,-0.0052982434691481));
#582=CARTESIAN_POINT('',(0.00265784390705844,-0.00305803087582587,-0.00544791169575346));
#583=CARTESIAN_POINT('',(0.00261852373128568,-0.00309133711501895,-0.0054483));
#584=CARTESIAN_POINT('',(0.0025447127400929,-0.00295879264129509,-0.00580745506551629));
#585=CARTESIAN_POINT('',(0.00267504605925481,-0.00307624789769111,-0.00563336566192037));
#586=CARTESIAN_POINT('',(0.0026516280420997,-0.00306329603756635,-0.00546807437061783));
#587=CARTESIAN_POINT('',(0.00261852373128568,-0.00309133711501896,-0.0054483));
#588=CARTESIAN_POINT('',(0.00254471274009291,-0.00295879264129509,-0.00580745506551629));
#589=CARTESIAN_POINT('',(0.00413609358990758,2.17807077902629E-10,-0.00596540540483524));
#590=CARTESIAN_POINT('',(0.00411539642796997,-0.000271199801193468,-0.00596550558469096));
#591=CARTESIAN_POINT('',(0.00404833293127074,-0.000528102054494826,-0.00596168672681157));
#592=CARTESIAN_POINT('',(0.00389514559631389,-0.000904027935916586,-0.00595919756012876));
#593=CARTESIAN_POINT('',(0.00383531780301026,-0.00102776531330213,-0.0059589076912572));
#594=CARTESIAN_POINT('',(0.0037009577551394,-0.00127410076023287,-0.00596092727301599));
#595=CARTESIAN_POINT('',(0.00362642550057217,-0.00139669882977806,-0.00596323672364634));
#596=CARTESIAN_POINT('',(0.00322406866300799,-0.00201184888707758,-0.00598508130752739));
#597=CARTESIAN_POINT('',(0.00291452676351242,-0.00247103944868519,-0.00593615101640629));
#598=CARTESIAN_POINT('',(0.00254471274009291,-0.00295879264129509,-0.00580745506551629));
#599=CARTESIAN_POINT('',(0.00413609358990758,2.17807077902629E-10,-0.00596540540483524));
#600=CARTESIAN_POINT('',(0.00405330485704422,2.21817738702048E-10,-0.00596580608271244));
#601=CARTESIAN_POINT('',(0.00398008702966424,7.07076673631432E-11,-0.00596392692110983));
#602=CARTESIAN_POINT('',(0.00378743197304557,7.52512402992656E-11,-0.00596432862657453));
#603=CARTESIAN_POINT('',(0.00372727522752392,7.13729278123233E-11,-0.0059563));
#604=CARTESIAN_POINT('',(0.0036399499937929,4.33680868994202E-19,-0.0059563));
#605=CARTESIAN_POINT('',(0.00411539642796997,-0.000271199801193468,-0.00596550558469096));
#606=CARTESIAN_POINT('',(0.00404637633608478,-0.00019970323317908,-0.00596546737264373));
#607=CARTESIAN_POINT('',(0.00398019153572534,-0.000192546393608321,-0.00596392701912838));
#608=CARTESIAN_POINT('',(0.00378731654944395,-0.000214009352104844,-0.00596432856202347));
#609=CARTESIAN_POINT('',(0.0037272752275172,-0.000242629292853912,-0.0059563));
#610=CARTESIAN_POINT('',(0.0036399499937929,-0.000242686604100668,-0.0059563));
#611=CARTESIAN_POINT('',(0.00404833293127074,-0.000528102054494826,-0.00596168672681157));
#612=CARTESIAN_POINT('',(0.00400660652873351,-0.000410598022024493,-0.00596519595891269));
#613=CARTESIAN_POINT('',(0.00394736524303868,-0.000398597152311507,-0.00596356827453847));
#614=CARTESIAN_POINT('',(0.00375790026608498,-0.000435581347623932,-0.00596364325638088));
#615=CARTESIAN_POINT('',(0.00369378083310658,-0.000483969959968414,-0.0059563));
#616=CARTESIAN_POINT('',(0.00361182983137185,-0.000485373208201335,-0.0059563));
#617=CARTESIAN_POINT('',(0.00389514559631389,-0.000904027935916586,-0.00595919756012876));
#618=CARTESIAN_POINT('',(0.0038887119080321,-0.000750711056053812,-0.00596756057825845));
#619=CARTESIAN_POINT('',(0.00383932822951814,-0.000732492508357097,-0.00596442036749671));
#620=CARTESIAN_POINT('',(0.00366453885399961,-0.000778714830159732,-0.00596242129329075));
#621=CARTESIAN_POINT('',(0.00359799539254763,-0.000841450889767632,-0.0059563));
#622=CARTESIAN_POINT('',(0.00352746934410868,-0.000844515678120431,-0.0059563));
#623=CARTESIAN_POINT('',(0.00383531780301026,-0.00102776531330213,-0.0059589076912572));
#624=CARTESIAN_POINT('',(0.00383967947161708,-0.000868041251436668,-0.0059688030102949));
#625=CARTESIAN_POINT('',(0.0037934887180274,-0.000847924872283646,-0.00596492836905411));
#626=CARTESIAN_POINT('',(0.0036251984298456,-0.000894887260337635,-0.00596197777262173));
#627=CARTESIAN_POINT('',(0.00355847627087081,-0.000959856187888616,-0.0059563));
#628=CARTESIAN_POINT('',(0.00349231914108236,-0.000963415262054811,-0.0059563));
#629=CARTESIAN_POINT('',(0.0037009577551394,-0.00127410076023287,-0.00596092727301599));
#630=CARTESIAN_POINT('',(0.00372023871110213,-0.00111160503546261,-0.00597359340169212));
#631=CARTESIAN_POINT('',(0.00368017735304203,-0.00108763893687712,-0.00596766566918016));
#632=CARTESIAN_POINT('',(0.00352899117573069,-0.00113063712395216,-0.00596163327996226));
#633=CARTESIAN_POINT('',(0.00346503970164661,-0.0011947239229724,-0.0059563));
#634=CARTESIAN_POINT('',(0.00340795865381918,-0.00119877071180762,-0.0059563));
#635=CARTESIAN_POINT('',(0.00362642550057217,-0.00139669882977806,-0.00596323672364634));
#636=CARTESIAN_POINT('',(0.00365001986586574,-0.00123783241757439,-0.00597698650679251));
#637=CARTESIAN_POINT('',(0.00361289497841091,-0.00121191443101275,-0.00596974011348841));
#638=CARTESIAN_POINT('',(0.00347221908520154,-0.00125021145412313,-0.0059616548808416));
#639=CARTESIAN_POINT('',(0.00341112225409923,-0.0013111863599352,-0.0059563));
#640=CARTESIAN_POINT('',(0.00335874836958233,-0.00131522657762605,-0.0059563));
#641=CARTESIAN_POINT('',(0.00322406866300799,-0.00201184888707758,-0.00598508130752739));
#642=CARTESIAN_POINT('',(0.00323938757881847,-0.00189388289052286,-0.00600905212409795));
#643=CARTESIAN_POINT('',(0.00321612749347493,-0.00185706154212323,-0.00599344255035044));
#644=CARTESIAN_POINT('',(0.00314116148580889,-0.00185623136608533,-0.0059675784183865));
#645=CARTESIAN_POINT('',(0.00310749659446217,-0.00188755929801872,-0.0059563));
#646=CARTESIAN_POINT('',(0.00307754674537176,-0.001889360179665,-0.0059563));
#647=CARTESIAN_POINT('',(0.00291452676351242,-0.00247103944868519,-0.00593615101640629));
#648=CARTESIAN_POINT('',(0.00289875762737482,-0.00238361293624852,-0.0059726404249321));
#649=CARTESIAN_POINT('',(0.00285713087637073,-0.00234436848683217,-0.00596951605622506));
#650=CARTESIAN_POINT('',(0.00278764102876487,-0.00231966500377555,-0.00596057406524585));
#651=CARTESIAN_POINT('',(0.00275567311667186,-0.00232965205894804,-0.0059563));
#652=CARTESIAN_POINT('',(0.00274010479631907,-0.00232260073472601,-0.0059563));
#653=CARTESIAN_POINT('',(0.00254471274009291,-0.00295879264129509,-0.00580745506551629));
#654=CARTESIAN_POINT('',(0.0025016314714586,-0.00291996817579503,-0.00586499977020832));
#655=CARTESIAN_POINT('',(0.00245068524053905,-0.00287234032594752,-0.00590507413468091));
#656=CARTESIAN_POINT('',(0.00235977485349687,-0.00278158174812803,-0.00595006609158907));
#657=CARTESIAN_POINT('',(0.00231998131633576,-0.00273888842925167,-0.0059563));
#658=CARTESIAN_POINT('',(0.00229018219758216,-0.00270370863664667,-0.0059563));
#659=CARTESIAN_POINT('',(0.00229018219758214,-0.00270370863664667,-0.0059563));
#660=CARTESIAN_POINT('',(0.00238293606754615,-0.00279946853132595,-0.0059563));
#661=CARTESIAN_POINT('',(0.00247597276613083,-0.00289386982841118,-0.00590152892592364));
#662=CARTESIAN_POINT('',(0.0025447127400929,-0.00295879264129509,-0.00580745506551629));
#663=CARTESIAN_POINT('',(0.00413609358990758,2.17807077902629E-10,-0.00596540540483524));
#664=CARTESIAN_POINT('',(0.00405330485704422,2.21817738702048E-10,-0.00596580608271244));
#665=CARTESIAN_POINT('',(0.00398008702966424,7.07076673631432E-11,-0.00596392692110983));
#666=CARTESIAN_POINT('',(0.00378743197304557,7.52512402992656E-11,-0.00596432862657453));
#667=CARTESIAN_POINT('',(0.00372727522752392,7.13729278123233E-11,-0.0059563));
#668=CARTESIAN_POINT('',(0.0036399499937929,4.33680868994202E-19,-0.0059563));
#669=CARTESIAN_POINT('',(0.00413609358990758,2.17807077902629E-10,-0.00596540540483524));
#670=CARTESIAN_POINT('',(0.0041153963854135,0.000271200238812954,-0.00596550556391813));
#671=CARTESIAN_POINT('',(0.00404833286532745,0.000528102577385745,-0.00596168668193081));
#672=CARTESIAN_POINT('',(0.00389514546154232,0.000904028620417106,-0.00595919747510877));
#673=CARTESIAN_POINT('',(0.00383531763967127,0.00102776605728959,-0.00595890759219458));
#674=CARTESIAN_POINT('',(0.00370095751299916,0.00127410161922891,-0.00596092714471322));
#675=CARTESIAN_POINT('',(0.00362642520819809,0.00139669974429575,-0.00596323658014605));
#676=CARTESIAN_POINT('',(0.003224068039256,0.0020118500312916,-0.00598508108557954));
#677=CARTESIAN_POINT('',(0.00291452656489085,0.00247103977160873,-0.00593615090105467));
#678=CARTESIAN_POINT('',(0.00254471274009291,0.00295879264129509,-0.00580745506551629));
#679=CARTESIAN_POINT('',(0.00405330485704422,2.21817738702048E-10,-0.00596580608271244));
#680=CARTESIAN_POINT('',(0.00404637632823358,0.000199703643267354,-0.0059654673514358));
#681=CARTESIAN_POINT('',(0.00400660651531516,0.000410598485921923,-0.00596519591875536));
#682=CARTESIAN_POINT('',(0.00388871183490445,0.000750711655178879,-0.00596756050325947));
#683=CARTESIAN_POINT('',(0.00383967936996082,0.000868041904710641,-0.00596880292293414));
#684=CARTESIAN_POINT('',(0.00372023852606928,0.00111160580257503,-0.00597359328890704));
#685=CARTESIAN_POINT('',(0.00365001962518066,0.00123783324442348,-0.00597698638185329));
#686=CARTESIAN_POINT('',(0.00323938697941769,0.00189388399803645,-0.00600905192088245));
#687=CARTESIAN_POINT('',(0.00289875741749436,0.00238361328988291,-0.00597264032990554));
#688=CARTESIAN_POINT('',(0.0025016314714586,0.00291996817579503,-0.00586499977020832));
#689=CARTESIAN_POINT('',(0.00398008702966424,7.07076673631432E-11,-0.00596392692110983));
#690=CARTESIAN_POINT('',(0.00398019153851996,0.000192546535013012,-0.0059639270031134));
#691=CARTESIAN_POINT('',(0.00394736523994929,0.000398597365412995,-0.0059635682458841));
#692=CARTESIAN_POINT('',(0.00383932817236547,0.000732492871987625,-0.00596442031456632));
#693=CARTESIAN_POINT('',(0.00379348863524836,0.000847925293241871,-0.00596492830746725));
#694=CARTESIAN_POINT('',(0.00368017719849212,0.00108763947617859,-0.00596766558985064));
#695=CARTESIAN_POINT('',(0.00361289477691229,0.00121191503137687,-0.00596974002598112));
#696=CARTESIAN_POINT('',(0.00321612700068366,0.00185706243012619,-0.00599344240488677));
#697=CARTESIAN_POINT('',(0.00285713066681047,0.00234436884056981,-0.00596951599230149));
#698=CARTESIAN_POINT('',(0.00245068524053905,0.00287234032594752,-0.00590507413468091));
#699=CARTESIAN_POINT('',(0.00378743197304557,7.52512402992656E-11,-0.00596432862657453));
#700=CARTESIAN_POINT('',(0.00378731655617095,0.000214009502520111,-0.00596432855661199));
#701=CARTESIAN_POINT('',(0.00375790026340152,0.00043558152990749,-0.00596364324781519));
#702=CARTESIAN_POINT('',(0.00366453881527175,0.000778715076772233,-0.00596242127788983));
#703=CARTESIAN_POINT('',(0.00362519837541529,0.000894887531141223,-0.00596197775475261));
#704=CARTESIAN_POINT('',(0.00352899108293092,0.00113063744347369,-0.00596163325707675));
#705=CARTESIAN_POINT('',(0.00347221896933265,0.00125021179819508,-0.00596165485586212));
#706=CARTESIAN_POINT('',(0.00314116124221741,0.00185623182066923,-0.00596757837461587));
#707=CARTESIAN_POINT('',(0.00278764087363746,0.00231966526015768,-0.00596057404892134));
#708=CARTESIAN_POINT('',(0.00235977485349687,0.00278158174812803,-0.00595006609158907));
#709=CARTESIAN_POINT('',(0.00372727522752392,7.13729278123233E-11,-0.0059563));
#710=CARTESIAN_POINT('',(0.00372727522753064,0.000242629435599767,-0.0059563));
#711=CARTESIAN_POINT('',(0.00369378082060768,0.000483970113783864,-0.0059563));
#712=CARTESIAN_POINT('',(0.00359799535657925,0.000841451060992966,-0.0059563));
#713=CARTESIAN_POINT('',(0.00355847622629578,0.000959856365051492,-0.0059563));
#714=CARTESIAN_POINT('',(0.00346503964063925,0.00119472410964571,-0.0059563));
#715=CARTESIAN_POINT('',(0.00341112218526619,0.0013111865501814,-0.0059563));
#716=CARTESIAN_POINT('',(0.00310749649432304,0.00188755949363487,-0.0059563));
#717=CARTESIAN_POINT('',(0.00275567301651928,0.00232965221887772,-0.0059563));
#718=CARTESIAN_POINT('',(0.00231998131633576,0.00273888842925167,-0.0059563));
#719=CARTESIAN_POINT('',(0.0036399499937929,4.33680868994202E-19,-0.0059563));
#720=CARTESIAN_POINT('',(0.0036399499937929,0.000242686604100669,-0.0059563));
#721=CARTESIAN_POINT('',(0.00361182983137185,0.000485373208201336,-0.0059563));
#722=CARTESIAN_POINT('',(0.00352746934410868,0.000844515678120431,-0.0059563));
#723=CARTESIAN_POINT('',(0.00349231914108236,0.000963415262054812,-0.0059563));
#724=CARTESIAN_POINT('',(0.00340795865381918,0.00119877071180762,-0.0059563));
#725=CARTESIAN_POINT('',(0.00335874836958233,0.00131522657762605,-0.0059563));
#726=CARTESIAN_POINT('',(0.00307754674537176,0.001889360179665,-0.0059563));
#727=CARTESIAN_POINT('',(0.00274010479631907,0.00232260073472601,-0.0059563));
#728=CARTESIAN_POINT('',(0.00229018219758216,0.00270370863664667,-0.0059563));
#729=CARTESIAN_POINT('',(0.00254471274009291,0.00295879264129509,-0.00580745506551629));
#730=CARTESIAN_POINT('',(0.00247597276613084,0.00289386982841117,-0.00590152892592363));
#731=CARTESIAN_POINT('',(0.00238293606754616,0.00279946853132594,-0.0059563));
#732=CARTESIAN_POINT('',(0.00229018219758215,0.00270370863664667,-0.0059563));
#733=CARTESIAN_POINT('',(0.00254471274009291,0.00295879264129509,-0.00580745506551629));
#734=CARTESIAN_POINT('',(0.00413609358990758,2.17807077902629E-10,-0.00596540540483524));
#735=CARTESIAN_POINT('',(0.0041153963854135,0.000271200238812954,-0.00596550556391813));
#736=CARTESIAN_POINT('',(0.00404833286532745,0.000528102577385745,-0.00596168668193081));
#737=CARTESIAN_POINT('',(0.00389514546154232,0.000904028620417106,-0.00595919747510877));
#738=CARTESIAN_POINT('',(0.00383531763967127,0.00102776605728959,-0.00595890759219458));
#739=CARTESIAN_POINT('',(0.00370095751299916,0.00127410161922891,-0.00596092714471322));
#740=CARTESIAN_POINT('',(0.00362642520819809,0.00139669974429575,-0.00596323658014605));
#741=CARTESIAN_POINT('',(0.003224068039256,0.0020118500312916,-0.00598508108557954));
#742=CARTESIAN_POINT('',(0.00291452656489085,0.00247103977160873,-0.00593615090105467));
#743=CARTESIAN_POINT('',(0.00254471274009291,0.00295879264129509,-0.00580745506551629));
#744=CARTESIAN_POINT('',(0.00413609358990758,2.17807077902629E-10,-0.00596540540483524));
#745=CARTESIAN_POINT('',(0.00415679075184518,0.000271200236807624,-0.00596530522497953));
#746=CARTESIAN_POINT('',(0.00414469469934405,0.000548412863401617,-0.00596122031701855));
#747=CARTESIAN_POINT('',(0.00404254989662573,0.00109557672729083,-0.00592477609472249));
#748=CARTESIAN_POINT('',(0.00395250114640856,0.00136552796458605,-0.00589241678038742));
#749=CARTESIAN_POINT('',(0.00368208467941964,0.00187888244539204,-0.00577911879517963));
#750=CARTESIAN_POINT('',(0.00352813946712924,0.00213256160189181,-0.00570404025562352));
#751=CARTESIAN_POINT('',(0.00317909570648397,0.00262049899079177,-0.00549873153316294));
#752=CARTESIAN_POINT('',(0.0029839971581291,0.00285475722319194,-0.00536850135025847));
#753=CARTESIAN_POINT('',(0.0027664822525057,0.00307259261539577,-0.00520154907095785));
#754=CARTESIAN_POINT('',(0.0041153963854135,0.000271200238812954,-0.00596550556391813));
#755=CARTESIAN_POINT('',(0.0041079174265579,0.00047998550181335,-0.00596296558448406));
#756=CARTESIAN_POINT('',(0.0040852858900697,0.000709253950505163,-0.00595659498066194));
#757=CARTESIAN_POINT('',(0.00397677184782647,0.00118703594391517,-0.00591977944111776));
#758=CARTESIAN_POINT('',(0.00389122526378151,0.00143589328488475,-0.00588905736848742));
#759=CARTESIAN_POINT('',(0.00362281948140584,0.00193011530293063,-0.00577816469339104));
#760=CARTESIAN_POINT('',(0.00347292796637192,0.00217444338423038,-0.00570555915518974));
#761=CARTESIAN_POINT('',(0.00313851936867118,0.0026406738292106,-0.00550870443976413));
#762=CARTESIAN_POINT('',(0.00295400228600436,0.00286257619289108,-0.00538445526253982));
#763=CARTESIAN_POINT('',(0.00275054825955074,0.00306483576667547,-0.0052257216469456));
#764=CARTESIAN_POINT('',(0.00404833286532745,0.000528102577385745,-0.00596168668193081));
#765=CARTESIAN_POINT('',(0.0040323707161441,0.000692103702762754,-0.00595886727607932));
#766=CARTESIAN_POINT('',(0.00400719194704612,0.000886650960381929,-0.00595086368033427));
#767=CARTESIAN_POINT('',(0.00389937672526308,0.00131089353493915,-0.00591223879174349));
#768=CARTESIAN_POINT('',(0.00381724415514312,0.00154110454625428,-0.00588120179353533));
#769=CARTESIAN_POINT('',(0.00355482314103242,0.00200920569619311,-0.00577081911048692));
#770=CARTESIAN_POINT('',(0.00340918650038732,0.00223984656930399,-0.00569987049032797));
#771=CARTESIAN_POINT('',(0.00309132165004733,0.00267435659501152,-0.0055131875814134));
#772=CARTESIAN_POINT('',(0.00291914583605514,0.00287828026851877,-0.00539743977602945));
#773=CARTESIAN_POINT('',(0.00273509057587077,0.00305924298537121,-0.00525227707712801));
#774=CARTESIAN_POINT('',(0.00389514546154232,0.000904028620417106,-0.00595919747510877));
#775=CARTESIAN_POINT('',(0.00387788600712283,0.00102133269338354,-0.00595499834477047));
#776=CARTESIAN_POINT('',(0.00385385354791039,0.00117703192070551,-0.00594330528543343));
#777=CARTESIAN_POINT('',(0.00375387386937802,0.00153447548820164,-0.00589844825778455));
#778=CARTESIAN_POINT('',(0.00367852501060414,0.00173683221544861,-0.00586479063935482));
#779=CARTESIAN_POINT('',(0.0034355562084278,0.00215503497380765,-0.00575355945678449));
#780=CARTESIAN_POINT('',(0.00330083653362023,0.00235917598991487,-0.00568469885016802));
#781=CARTESIAN_POINT('',(0.00301565535283643,0.00273556197748331,-0.00551473657307716));
#782=CARTESIAN_POINT('',(0.00286534816875988,0.00290796747918151,-0.00541359568028977));
#783=CARTESIAN_POINT('',(0.00271336054882356,0.00305461578554878,-0.00529235846462367));
#784=CARTESIAN_POINT('',(0.00383531763967127,0.00102776605728959,-0.00595890759219458));
#785=CARTESIAN_POINT('',(0.0038195199058405,0.0011329177963387,-0.005954142594099));
#786=CARTESIAN_POINT('',(0.00379669219753573,0.00127787338522127,-0.00594104011988758));
#787=CARTESIAN_POINT('',(0.00370045167637296,0.00161530236310586,-0.00589353966167697));
#788=CARTESIAN_POINT('',(0.00362764247283776,0.00180839351099709,-0.00585864369729569));
#789=CARTESIAN_POINT('',(0.00339290879674992,0.00220817721165193,-0.00574683369801152));
#790=CARTESIAN_POINT('',(0.00326258779540459,0.00240249004209877,-0.00567858256695004));
#791=CARTESIAN_POINT('',(0.00298961902779317,0.0027577440167395,-0.00551440381796716));
#792=CARTESIAN_POINT('',(0.00284716344759956,0.00291888506560596,-0.00541842750404752));
#793=CARTESIAN_POINT('',(0.00270635995621995,0.00305370038096363,-0.0053057603008259));
#794=CARTESIAN_POINT('',(0.00370095751299916,0.00127410161922891,-0.00596092714471322));
#795=CARTESIAN_POINT('',(0.00368867119581023,0.00136070374205488,-0.00595458781261247));
#796=CARTESIAN_POINT('',(0.00366863823985304,0.0014874447501039,-0.00593817223842896));
#797=CARTESIAN_POINT('',(0.00358142672519579,0.00178761016991537,-0.00588420203951166));
#798=CARTESIAN_POINT('',(0.00351482553193492,0.00196162548148492,-0.00584617108571674));
#799=CARTESIAN_POINT('',(0.00330090738290311,0.00232099805876174,-0.00573258164510882));
#800=CARTESIAN_POINT('',(0.00318167671084392,0.0024937828553273,-0.00566533813401366));
#801=CARTESIAN_POINT('',(0.00293671623026011,0.00280405251258995,-0.00551266733538759));
#802=CARTESIAN_POINT('',(0.00281125290354931,0.00294181451058331,-0.00542717306827389));
#803=CARTESIAN_POINT('',(0.00269296794293035,0.00305320954100631,-0.00533209238079274));
#804=CARTESIAN_POINT('',(0.00362642520819809,0.00139669974429575,-0.00596323658014605));
#805=CARTESIAN_POINT('',(0.0036162912757212,0.00147690349015031,-0.00595579128105462));
#806=CARTESIAN_POINT('',(0.00359789966553341,0.00159617300847235,-0.005937423271402));
#807=CARTESIAN_POINT('',(0.00351601650825916,0.00187908904932267,-0.00587959019956119));
#808=CARTESIAN_POINT('',(0.00345307083395157,0.00204329424075946,-0.00583967478989703));
#809=CARTESIAN_POINT('',(0.00325168174155781,0.00238067529969527,-0.00572493347505059));
#810=CARTESIAN_POINT('',(0.00313910421707546,0.00254176065853954,-0.00565812467114532));
#811=CARTESIAN_POINT('',(0.00290987542993505,0.0028281786955178,-0.0055112392327323));
#812=CARTESIAN_POINT('',(0.00279352708065938,0.00295382636913621,-0.00543108680874252));
#813=CARTESIAN_POINT('',(0.00268657652224436,0.00305363410563414,-0.00534502262455735));
#814=CARTESIAN_POINT('',(0.003224068039256,0.0020118500312916,-0.00598508108557954));
#815=CARTESIAN_POINT('',(0.00321720448641383,0.00207174147036993,-0.00597274299554093));
#816=CARTESIAN_POINT('',(0.00320435229821711,0.00215897403087857,-0.00594419954505327));
#817=CARTESIAN_POINT('',(0.00315086759750107,0.00235820170396601,-0.00586483805448885));
#818=CARTESIAN_POINT('',(0.00311057100669181,0.00247054061279621,-0.0058137428775038));
#819=CARTESIAN_POINT('',(0.00298527861611997,0.00268904480717304,-0.00569045295044165));
#820=CARTESIAN_POINT('',(0.00291399355817286,0.00278726001290061,-0.00562432358213189));
#821=CARTESIAN_POINT('',(0.00277535166021437,0.00294962323913285,-0.00550356934560188));
#822=CARTESIAN_POINT('',(0.00270845328453797,0.0030142477748587,-0.00544883248295175));
#823=CARTESIAN_POINT('',(0.00265645152967527,0.00305932179805988,-0.00540710901267382));
#824=CARTESIAN_POINT('',(0.00291452656489085,0.00247103977160873,-0.00593615090105467));
#825=CARTESIAN_POINT('',(0.0029224111385891,0.00251475301247165,-0.00591790618662924));
#826=CARTESIAN_POINT('',(0.00291668837655911,0.00257725165614508,-0.0058843707466492));
#827=CARTESIAN_POINT('',(0.00288467901735656,0.00271125767926258,-0.00579849601791132));
#828=CARTESIAN_POINT('',(0.00285839242018397,0.00278276505870664,-0.00574615672915348));
#829=CARTESIAN_POINT('',(0.00279190622701004,0.00290622648351495,-0.00563445190519135));
#830=CARTESIAN_POINT('',(0.00275232300739827,0.00295908079661136,-0.00557811086476898));
#831=CARTESIAN_POINT('',(0.00268177828659324,0.00303742061162802,-0.00548991909006943));
#832=CARTESIAN_POINT('',(0.00265131454844827,0.00306342297670592,-0.00545795249995913));
#833=CARTESIAN_POINT('',(0.00263818381803753,0.00307468399638341,-0.00544810584788793));
#834=CARTESIAN_POINT('',(0.00254471274009291,0.00295879264129509,-0.00580745506551629));
#835=CARTESIAN_POINT('',(0.00256625337441007,0.00297820487404512,-0.00577868271317028));
#836=CARTESIAN_POINT('',(0.0025858303872098,0.00299524740464396,-0.00574494356145725));
#837=CARTESIAN_POINT('',(0.00261771954166946,0.00302406342118149,-0.00567387501373661));
#838=CARTESIAN_POINT('',(0.00263003168332937,0.00303583690712017,-0.00563654561772898));
#839=CARTESIAN_POINT('',(0.00264405346740441,0.00305358519397956,-0.00556463993585857));
#840=CARTESIAN_POINT('',(0.00264598886785895,0.00305998726303206,-0.00553057996516315));
#841=CARTESIAN_POINT('',(0.00263966888777371,0.00307325679538342,-0.00547631442759479));
#842=CARTESIAN_POINT('',(0.00263157070208709,0.00308028565042815,-0.00545609341510888));
#843=CARTESIAN_POINT('',(0.00261852373128569,0.00309133711501895,-0.0054483));
#844=CARTESIAN_POINT('',(0.00261852373128569,0.00309133711501895,-0.0054483));
#845=CARTESIAN_POINT('',(0.00265162804209969,0.00306329603756635,-0.00546807437061783));
#846=CARTESIAN_POINT('',(0.0026750460592548,0.00307624789769111,-0.00563336566192036));
#847=CARTESIAN_POINT('',(0.00254471274009291,0.00295879264129509,-0.00580745506551629));
#848=CARTESIAN_POINT('',(0.0027664822525057,0.00307259261539577,-0.00520154907095785));
#849=CARTESIAN_POINT('',(0.00270274628068586,0.00304156522051459,-0.00529823937490885));
#850=CARTESIAN_POINT('',(0.00265784390478938,0.00305803087774788,-0.00544791169577586));
#851=CARTESIAN_POINT('',(0.00261852373128569,0.00309133711501895,-0.0054483));
#852=CARTESIAN_POINT('',(0.00276648225250569,0.00307259261539577,-0.00520154907095787));
#853=CARTESIAN_POINT('',(0.00413609358990758,2.17807077902629E-10,-0.00596540540483524));
#854=CARTESIAN_POINT('',(0.00415679075184518,0.000271200236807624,-0.00596530522497953));
#855=CARTESIAN_POINT('',(0.00414469469934405,0.000548412863401617,-0.00596122031701855));
#856=CARTESIAN_POINT('',(0.00404254989662573,0.00109557672729083,-0.00592477609472249));
#857=CARTESIAN_POINT('',(0.00395250114640856,0.00136552796458605,-0.00589241678038742));
#858=CARTESIAN_POINT('',(0.00368208467941964,0.00187888244539204,-0.00577911879517963));
#859=CARTESIAN_POINT('',(0.00352813946712924,0.00213256160189181,-0.00570404025562352));
#860=CARTESIAN_POINT('',(0.00317909570648397,0.00262049899079177,-0.00549873153316294));
#861=CARTESIAN_POINT('',(0.0029839971581291,0.00285475722319194,-0.00536850135025847));
#862=CARTESIAN_POINT('',(0.0027664822525057,0.00307259261539577,-0.00520154907095785));
#863=CARTESIAN_POINT('',(0.,2.48070578869284E-19,-0.0054483));
#864=CARTESIAN_POINT('',(-1.68325808229605E-17,-0.00420100530451866,-0.00422244764578627));
#865=CARTESIAN_POINT('',(-1.57327793212356E-17,-0.0040513,-0.00437139272010238));
#866=CARTESIAN_POINT('',(-1.49570843524356E-17,-0.0040513,-0.00458257111237785));
#867=CARTESIAN_POINT('',(0.000562404796165566,-0.0042010053058885,-0.00422244764442339));
#868=CARTESIAN_POINT('',(0.000525658592690825,-0.00405130000145848,-0.00437139271875698));
#869=CARTESIAN_POINT('',(0.00049974130912762,-0.0040513,-0.00458257111090297));
#870=CARTESIAN_POINT('',(0.00169765089329864,-0.0039955102104055,-0.00443614141075163));
#871=CARTESIAN_POINT('',(0.00161258995941021,-0.0038224049206855,-0.0045931130657709));
#872=CARTESIAN_POINT('',(0.00150849758941794,-0.00385312784650193,-0.0048144903621165));
#873=CARTESIAN_POINT('',(0.00258877596397994,-0.00349203666887175,-0.0048398824881303));
#874=CARTESIAN_POINT('',(0.00240664170883529,-0.00329421533445809,-0.00498124281163613));
#875=CARTESIAN_POINT('',(0.00230033296164916,-0.00336759587841461,-0.00525266563525846));
#876=CARTESIAN_POINT('',(0.00298686265206814,-0.00317398460946868,-0.00504017176184078));
#877=CARTESIAN_POINT('',(0.0027495913472246,-0.00297804724204988,-0.00516356084816429));
#878=CARTESIAN_POINT('',(0.00265406458498535,-0.0030608777938246,-0.00547003715730694));
#879=CARTESIAN_POINT('',(0.00413609358990758,2.17807077902629E-10,-0.00596540540483524));
#880=CARTESIAN_POINT('',(0.00421888232277094,2.13796417320052E-10,-0.00596500472695805));
#881=CARTESIAN_POINT('',(0.00429766805816778,3.27700740548839E-10,-0.00596238990407938));
#882=CARTESIAN_POINT('',(0.00447848602715947,1.18918482218324E-10,-0.00595196130497912));
#883=CARTESIAN_POINT('',(0.00452500234969649,6.1906877220958E-11,-0.0059563));
#884=CARTESIAN_POINT('',(0.00459137328551981,-1.91569218765379E-18,-0.0059563));
#885=CARTESIAN_POINT('',(0.00415679075184518,0.000271200236807624,-0.00596530522497953));
#886=CARTESIAN_POINT('',(0.00422585440054375,0.000217867262002111,-0.00596459872513002));
#887=CARTESIAN_POINT('',(0.00429742604722942,0.000191233791532256,-0.00596240928388974));
#888=CARTESIAN_POINT('',(0.00447851820540569,0.000197516153284081,-0.00595195401367985));
#889=CARTESIAN_POINT('',(0.00452500231618012,0.000230432241317428,-0.00595629999692146));
#890=CARTESIAN_POINT('',(0.00459137328551981,0.000296198637292992,-0.0059563));
#891=CARTESIAN_POINT('',(0.00414469469934405,0.000548412863401617,-0.00596122031701855));
#892=CARTESIAN_POINT('',(0.00422429540224939,0.000455213349170151,-0.0059606189233755));
#893=CARTESIAN_POINT('',(0.00428672782218198,0.000414432380922864,-0.00595909959135222));
#894=CARTESIAN_POINT('',(0.00444864360661907,0.000430701981100351,-0.00594449624212476));
#895=CARTESIAN_POINT('',(0.00448497223270377,0.000487932946584876,-0.00594345700828607));
#896=CARTESIAN_POINT('',(0.00455711270175876,0.000592375366896097,-0.0059340350833835));
#897=CARTESIAN_POINT('',(0.00404254989662573,0.00109557672729083,-0.00592477609472249));
#898=CARTESIAN_POINT('',(0.00414920837038282,0.000958996809246359,-0.00592749518170721));
#899=CARTESIAN_POINT('',(0.0041964549978316,0.000908557134776398,-0.00592330055193162));
#900=CARTESIAN_POINT('',(0.00431683735774429,0.00094386063976593,-0.00589196542709898));
#901=CARTESIAN_POINT('',(0.00433483610160408,0.00103022301991525,-0.00587465311156619));
#902=CARTESIAN_POINT('',(0.00442007036671454,0.00117299168853705,-0.0058470309939964));
#903=CARTESIAN_POINT('',(0.00395250114640856,0.00136552796458605,-0.00589241678038742));
#904=CARTESIAN_POINT('',(0.00407639073651095,0.00122615779341843,-0.00589822904987368));
#905=CARTESIAN_POINT('',(0.004117590798229,0.00118006625941672,-0.00589067672623355));
#906=CARTESIAN_POINT('',(0.00421526090750629,0.00122390400241687,-0.00584681081380838));
#907=CARTESIAN_POINT('',(0.00422473005398074,0.00131471114249054,-0.0058186758295521));
#908=CARTESIAN_POINT('',(0.00431728861543138,0.00145739139394562,-0.00578230822094753));
#909=CARTESIAN_POINT('',(0.00368208467941964,0.00187888244539204,-0.00577911879517963));
#910=CARTESIAN_POINT('',(0.00380168453729056,0.00177769984585379,-0.00577983499954658));
#911=CARTESIAN_POINT('',(0.00384082706567574,0.00175067939201503,-0.00576332353055442));
#912=CARTESIAN_POINT('',(0.00392670995196529,0.00180166940285487,-0.00570135853754669));
#913=CARTESIAN_POINT('',(0.00394442613036009,0.00188087179541429,-0.00566067211539816));
#914=CARTESIAN_POINT('',(0.00404320394534296,0.00200395103778186,-0.00561633851146431));
#915=CARTESIAN_POINT('',(0.00352813946712924,0.00213256160189181,-0.00570404025562352));
#916=CARTESIAN_POINT('',(0.00363933101965076,0.00204975070463252,-0.00570007277647134));
#917=CARTESIAN_POINT('',(0.00367585695431344,0.00203477703830459,-0.00567656414667773));
#918=CARTESIAN_POINT('',(0.0037528973443963,0.00209043577102216,-0.0056044246901699));
#919=CARTESIAN_POINT('',(0.00377422825436275,0.00216231550037549,-0.00555879903765651));
#920=CARTESIAN_POINT('',(0.00387190102653768,0.00226608202118131,-0.00551512098976562));
#921=CARTESIAN_POINT('',(0.00317909570648397,0.00262049899079177,-0.00549873153316294));
#922=CARTESIAN_POINT('',(0.00326048220219477,0.00258046042360246,-0.00547845203954592));
#923=CARTESIAN_POINT('',(0.00329337050981506,0.00258734248446053,-0.0054425883194613));
#924=CARTESIAN_POINT('',(0.00335716561834718,0.00264565368419851,-0.00536257115474485));
#925=CARTESIAN_POINT('',(0.00338372480976709,0.00269795591719638,-0.00531875686978991));
#926=CARTESIAN_POINT('',(0.00346077402140504,0.00275993825353381,-0.00528530302775113));
#927=CARTESIAN_POINT('',(0.0029839971581291,0.00285475722319194,-0.00536850135025847));
#928=CARTESIAN_POINT('',(0.00304398690237859,0.00283911928379367,-0.00533659352569576));
#929=CARTESIAN_POINT('',(0.00307585417667898,0.002855775277331,-0.0052954743363519));
#930=CARTESIAN_POINT('',(0.00313524649986706,0.00291203188566741,-0.00521786553332474));
#931=CARTESIAN_POINT('',(0.00316341924116875,0.00295207595596763,-0.00518081099246053));
#932=CARTESIAN_POINT('',(0.00322094993507766,0.00299165018429363,-0.00515673917210505));
#933=CARTESIAN_POINT('',(0.0027664822525057,0.00307259261539577,-0.00520154907095785));
#934=CARTESIAN_POINT('',(0.00279835023841562,0.00308810631283636,-0.00515320391898235));
#935=CARTESIAN_POINT('',(0.00283237986685478,0.00311192773737883,-0.00511243389987589));
#936=CARTESIAN_POINT('',(0.00289475800027429,0.00316085884743839,-0.00505255686166716));
#937=CARTESIAN_POINT('',(0.0029230518941564,0.00318559893877337,-0.00503289484567));
#938=CARTESIAN_POINT('',(0.00294686526498923,0.00320556947603239,-0.00502014282907662));
#939=CARTESIAN_POINT('',(0.0027664822525057,0.00307259261539577,-0.00520154907095785));
#940=CARTESIAN_POINT('',(0.00283021822432554,0.00310362001027696,-0.00510485876700685));
#941=CARTESIAN_POINT('',(0.00289923852332357,0.00316562840151434,-0.00504564686226338));
#942=CARTESIAN_POINT('',(0.00294686526498923,0.00320556947603239,-0.00502014282907662));
#943=CARTESIAN_POINT('',(0.00298680833922747,0.00317402800211675,-0.00504014443560686));
#944=CARTESIAN_POINT('',(0.00274954321108742,0.0029780916184289,-0.0051635352583113));
#945=CARTESIAN_POINT('',(0.00265401632371466,0.00306091964015002,-0.00547000750047738));
#946=CARTESIAN_POINT('',(0.00219327671082438,0.00380800130071268,-0.00464090012266178));
#947=CARTESIAN_POINT('',(0.00208439058192732,0.00359128138467212,-0.00480993287689076));
#948=CARTESIAN_POINT('',(0.00194890047701823,0.00367230092004226,-0.0050367124865071));
#949=CARTESIAN_POINT('',(0.00113656191370888,0.00420100529345914,-0.00422244765678964));
#950=CARTESIAN_POINT('',(0.00106230163908113,0.00405129998822802,-0.00437139273105112));
#951=CARTESIAN_POINT('',(0.0010099254887831,0.0040513,-0.00458257112432735));
#952=CARTESIAN_POINT('',(-3.58196832498678E-18,0.00420100530451866,-0.00422244764578627));
#953=CARTESIAN_POINT('',(-3.34793088388461E-18,0.0040513,-0.00437139272010238));
#954=CARTESIAN_POINT('',(-3.18286321913867E-18,0.0040513,-0.00458257111237785));
#955=MECHANICAL_DESIGN_GEOMETRIC_PRESENTATION_REPRESENTATION('',(#236),
#956);
#956=(
GEOMETRIC_REPRESENTATION_CONTEXT(3)
GLOBAL_UNCERTAINTY_ASSIGNED_CONTEXT((#957))
GLOBAL_UNIT_ASSIGNED_CONTEXT((#960,#959,#958))
REPRESENTATION_CONTEXT('Part 1','TOP_LEVEL_ASSEMBLY_PART')
);
#957=UNCERTAINTY_MEASURE_WITH_UNIT(LENGTH_MEASURE(2.E-5),#960,
'DISTANCE_ACCURACY_VALUE','Maximum Tolerance applied to model');
#958=(
NAMED_UNIT(*)
SI_UNIT($,.STERADIAN.)
SOLID_ANGLE_UNIT()
);
#959=(
NAMED_UNIT(*)
PLANE_ANGLE_UNIT()
SI_UNIT($,.RADIAN.)
);
#960=(
LENGTH_UNIT()
NAMED_UNIT(*)
SI_UNIT($,.METRE.)
);
#961=PRODUCT_DEFINITION_SHAPE('','',#962);
#962=PRODUCT_DEFINITION('','',#964,#963);
#963=PRODUCT_DEFINITION_CONTEXT('',#970,'design');
#964=PRODUCT_DEFINITION_FORMATION_WITH_SPECIFIED_SOURCE('','',#966,
 .NOT_KNOWN.);
#965=PRODUCT_RELATED_PRODUCT_CATEGORY('','',(#966));
#966=PRODUCT('Part 1','Part 1','Part 1',(#968));
#967=PRODUCT_CATEGORY('','');
#968=PRODUCT_CONTEXT('',#970,'mechanical');
#969=APPLICATION_PROTOCOL_DEFINITION('international standard',
'ap242_managed_model_based_3d_engineering',2011,#970);
#970=APPLICATION_CONTEXT('managed model based 3d engineering');
ENDSEC;
END-ISO-10303-21;
