ISO-10303-21;
HEADER;
/* Generated by software containing ST-Developer
 * from STEP Tools, Inc. (www.steptools.com) 
 */
/* OPTION: using custom renumber hook */

FILE_DESCRIPTION(
/* description */ ('STEP AP242',
'CAx-IF Rec.Pracs.---Representation and Presentation of Product Manufa
cturing Information (PMI)---4.0---2014-10-13',
'CAx-IF Rec.Pracs.---3D Tessellated Geometry---0.4---2014-09-14','2;1'),

/* implementation_level */ '2;1');

FILE_NAME(
/* name */ '680593d0c552f437d0c314c5',
/* time_stamp */ '2025-04-21T00:39:44Z',
/* author */ (''),
/* organization */ (''),
/* preprocessor_version */ 'ST-DEVELOPER v20',
/* originating_system */ 'ONSHAPE BY PTC INC, 1.196',
/* authorisation */ '  ');

FILE_SCHEMA (('AP242_MANAGED_MODEL_BASED_3D_ENGINEERING_MIM_LF { 1 0 10303 442 1 1 4 }'));
ENDSEC;

DATA;
#10=SHAPE_REPRESENTATION_RELATIONSHIP('','',#974,#11);
#11=ADVANCED_BREP_SHAPE_REPRESENTATION('',(#972),#1703);
#12=ELLIPSE('',#1054,0.000898025612106916,0.000635);
#13=ELLIPSE('',#1070,0.000898025612106916,0.000635);
#14=TOROIDAL_SURFACE('',#1040,0.017399,0.000635);
#15=TOROIDAL_SURFACE('',#1062,0.017399,0.000635);
#16=TOROIDAL_SURFACE('',#1086,0.017399,0.000635);
#17=SPHERICAL_SURFACE('',#1038,0.000635);
#18=SPHERICAL_SURFACE('',#1045,0.000635);
#19=SPHERICAL_SURFACE('',#1051,0.000635);
#20=SPHERICAL_SURFACE('',#1059,0.000635);
#21=SPHERICAL_SURFACE('',#1067,0.000635);
#22=SPHERICAL_SURFACE('',#1075,0.000635);
#23=SPHERICAL_SURFACE('',#1081,0.000635);
#24=SPHERICAL_SURFACE('',#1088,0.000635);
#25=B_SPLINE_CURVE_WITH_KNOTS('',3,(#1603,#1604,#1605,#1606,#1607),
 .UNSPECIFIED.,.F.,.F.,(4,1,4),(0.,0.000533007033179788,0.00106601406635958),
 .UNSPECIFIED.);
#26=B_SPLINE_CURVE_WITH_KNOTS('',3,(#1612,#1613,#1614,#1615,#1616),
 .UNSPECIFIED.,.F.,.F.,(4,1,4),(0.,0.000535742797287385,0.00107148559457477),
 .UNSPECIFIED.);
#27=B_SPLINE_CURVE_WITH_KNOTS('',3,(#1632,#1633,#1634,#1635,#1636),
 .UNSPECIFIED.,.F.,.F.,(4,1,4),(0.,0.000571693712434371,0.00114338742486874),
 .UNSPECIFIED.);
#28=B_SPLINE_CURVE_WITH_KNOTS('',3,(#1658,#1659,#1660,#1661,#1662),
 .UNSPECIFIED.,.F.,.F.,(4,1,4),(0.,0.000571693712434392,0.00114338742486878),
 .UNSPECIFIED.);
#29=B_SPLINE_CURVE_WITH_KNOTS('',3,(#1664,#1665,#1666,#1667,#1668),
 .UNSPECIFIED.,.F.,.F.,(4,1,4),(0.,0.000571693712434391,0.00114338742486878),
 .UNSPECIFIED.);
#30=B_SPLINE_CURVE_WITH_KNOTS('',3,(#1690,#1691,#1692,#1693,#1694),
 .UNSPECIFIED.,.F.,.F.,(4,1,4),(0.,0.00057169371243439,0.00114338742486878),
 .UNSPECIFIED.);
#31=PLANE('',#979);
#32=PLANE('',#1003);
#33=PLANE('',#1014);
#34=PLANE('',#1015);
#35=PLANE('',#1016);
#36=PLANE('',#1017);
#37=PLANE('',#1018);
#38=PLANE('',#1021);
#39=PLANE('',#1022);
#40=PLANE('',#1023);
#41=PLANE('',#1024);
#42=PLANE('',#1025);
#43=PLANE('',#1026);
#44=PLANE('',#1032);
#45=PLANE('',#1033);
#46=LINE('',#1402,#120);
#47=LINE('',#1406,#121);
#48=LINE('',#1416,#122);
#49=LINE('',#1421,#123);
#50=LINE('',#1423,#124);
#51=LINE('',#1427,#125);
#52=LINE('',#1435,#126);
#53=LINE('',#1439,#127);
#54=LINE('',#1443,#128);
#55=LINE('',#1447,#129);
#56=LINE('',#1451,#130);
#57=LINE('',#1455,#131);
#58=LINE('',#1459,#132);
#59=LINE('',#1461,#133);
#60=LINE('',#1465,#134);
#61=LINE('',#1469,#135);
#62=LINE('',#1474,#136);
#63=LINE('',#1475,#137);
#64=LINE('',#1482,#138);
#65=LINE('',#1486,#139);
#66=LINE('',#1492,#140);
#67=LINE('',#1493,#141);
#68=LINE('',#1494,#142);
#69=LINE('',#1499,#143);
#70=LINE('',#1500,#144);
#71=LINE('',#1503,#145);
#72=LINE('',#1507,#146);
#73=LINE('',#1508,#147);
#74=LINE('',#1510,#148);
#75=LINE('',#1514,#149);
#76=LINE('',#1516,#150);
#77=LINE('',#1518,#151);
#78=LINE('',#1520,#152);
#79=LINE('',#1523,#153);
#80=LINE('',#1524,#154);
#81=LINE('',#1526,#155);
#82=LINE('',#1528,#156);
#83=LINE('',#1530,#157);
#84=LINE('',#1532,#158);
#85=LINE('',#1534,#159);
#86=LINE('',#1536,#160);
#87=LINE('',#1539,#161);
#88=LINE('',#1540,#162);
#89=LINE('',#1542,#163);
#90=LINE('',#1546,#164);
#91=LINE('',#1548,#165);
#92=LINE('',#1550,#166);
#93=LINE('',#1553,#167);
#94=LINE('',#1554,#168);
#95=LINE('',#1556,#169);
#96=LINE('',#1558,#170);
#97=LINE('',#1560,#171);
#98=LINE('',#1562,#172);
#99=LINE('',#1564,#173);
#100=LINE('',#1566,#174);
#101=LINE('',#1568,#175);
#102=LINE('',#1573,#176);
#103=LINE('',#1577,#177);
#104=LINE('',#1581,#178);
#105=LINE('',#1583,#179);
#106=LINE('',#1585,#180);
#107=LINE('',#1587,#181);
#108=LINE('',#1589,#182);
#109=LINE('',#1593,#183);
#110=LINE('',#1595,#184);
#111=LINE('',#1597,#185);
#112=LINE('',#1599,#186);
#113=LINE('',#1601,#187);
#114=LINE('',#1609,#188);
#115=LINE('',#1610,#189);
#116=LINE('',#1618,#190);
#117=LINE('',#1620,#191);
#118=LINE('',#1622,#192);
#119=LINE('',#1624,#193);
#120=VECTOR('',#1097,1.);
#121=VECTOR('',#1100,1.);
#122=VECTOR('',#1111,1.);
#123=VECTOR('',#1114,1.);
#124=VECTOR('',#1115,1.);
#125=VECTOR('',#1118,1.);
#126=VECTOR('',#1125,1.);
#127=VECTOR('',#1128,1.);
#128=VECTOR('',#1131,1.);
#129=VECTOR('',#1134,1.);
#130=VECTOR('',#1137,1.);
#131=VECTOR('',#1140,1.);
#132=VECTOR('',#1145,1.);
#133=VECTOR('',#1146,1.);
#134=VECTOR('',#1151,1.);
#135=VECTOR('',#1154,1.);
#136=VECTOR('',#1159,1.);
#137=VECTOR('',#1160,1.);
#138=VECTOR('',#1169,1.);
#139=VECTOR('',#1172,1.);
#140=VECTOR('',#1177,1.);
#141=VECTOR('',#1178,1.);
#142=VECTOR('',#1179,1.);
#143=VECTOR('',#1182,1.);
#144=VECTOR('',#1183,1.);
#145=VECTOR('',#1186,1.);
#146=VECTOR('',#1191,1.);
#147=VECTOR('',#1192,1.);
#148=VECTOR('',#1195,1.);
#149=VECTOR('',#1198,1.);
#150=VECTOR('',#1201,1.);
#151=VECTOR('',#1202,1.);
#152=VECTOR('',#1205,1.);
#153=VECTOR('',#1206,1.);
#154=VECTOR('',#1207,1.);
#155=VECTOR('',#1210,1.);
#156=VECTOR('',#1211,1.);
#157=VECTOR('',#1214,1.);
#158=VECTOR('',#1215,1.);
#159=VECTOR('',#1216,1.);
#160=VECTOR('',#1219,1.);
#161=VECTOR('',#1220,1.);
#162=VECTOR('',#1221,1.);
#163=VECTOR('',#1224,1.);
#164=VECTOR('',#1229,1.);
#165=VECTOR('',#1230,1.);
#166=VECTOR('',#1233,1.);
#167=VECTOR('',#1234,1.);
#168=VECTOR('',#1235,1.);
#169=VECTOR('',#1238,1.);
#170=VECTOR('',#1239,1.);
#171=VECTOR('',#1240,1.);
#172=VECTOR('',#1243,1.);
#173=VECTOR('',#1244,1.);
#174=VECTOR('',#1247,1.);
#175=VECTOR('',#1248,1.);
#176=VECTOR('',#1253,1.);
#177=VECTOR('',#1256,1.);
#178=VECTOR('',#1259,1.);
#179=VECTOR('',#1260,1.);
#180=VECTOR('',#1261,1.);
#181=VECTOR('',#1262,1.);
#182=VECTOR('',#1263,1.);
#183=VECTOR('',#1266,1.);
#184=VECTOR('',#1267,1.);
#185=VECTOR('',#1268,1.);
#186=VECTOR('',#1269,1.);
#187=VECTOR('',#1270,1.);
#188=VECTOR('',#1273,1.);
#189=VECTOR('',#1274,1.);
#190=VECTOR('',#1277,1.);
#191=VECTOR('',#1278,1.);
#192=VECTOR('',#1281,1.);
#193=VECTOR('',#1282,1.);
#194=ORIENTED_EDGE('',*,*,#474,.T.);
#195=ORIENTED_EDGE('',*,*,#475,.T.);
#196=ORIENTED_EDGE('',*,*,#476,.T.);
#197=ORIENTED_EDGE('',*,*,#477,.F.);
#198=ORIENTED_EDGE('',*,*,#478,.T.);
#199=ORIENTED_EDGE('',*,*,#479,.T.);
#200=ORIENTED_EDGE('',*,*,#480,.T.);
#201=ORIENTED_EDGE('',*,*,#481,.T.);
#202=ORIENTED_EDGE('',*,*,#482,.F.);
#203=ORIENTED_EDGE('',*,*,#483,.T.);
#204=ORIENTED_EDGE('',*,*,#484,.T.);
#205=ORIENTED_EDGE('',*,*,#485,.T.);
#206=ORIENTED_EDGE('',*,*,#486,.T.);
#207=ORIENTED_EDGE('',*,*,#487,.F.);
#208=ORIENTED_EDGE('',*,*,#488,.F.);
#209=ORIENTED_EDGE('',*,*,#489,.T.);
#210=ORIENTED_EDGE('',*,*,#490,.F.);
#211=ORIENTED_EDGE('',*,*,#491,.F.);
#212=ORIENTED_EDGE('',*,*,#492,.T.);
#213=ORIENTED_EDGE('',*,*,#493,.F.);
#214=ORIENTED_EDGE('',*,*,#494,.F.);
#215=ORIENTED_EDGE('',*,*,#495,.F.);
#216=ORIENTED_EDGE('',*,*,#496,.T.);
#217=ORIENTED_EDGE('',*,*,#497,.T.);
#218=ORIENTED_EDGE('',*,*,#498,.T.);
#219=ORIENTED_EDGE('',*,*,#499,.T.);
#220=ORIENTED_EDGE('',*,*,#500,.F.);
#221=ORIENTED_EDGE('',*,*,#501,.F.);
#222=ORIENTED_EDGE('',*,*,#502,.T.);
#223=ORIENTED_EDGE('',*,*,#503,.F.);
#224=ORIENTED_EDGE('',*,*,#488,.T.);
#225=ORIENTED_EDGE('',*,*,#504,.T.);
#226=ORIENTED_EDGE('',*,*,#505,.F.);
#227=ORIENTED_EDGE('',*,*,#506,.F.);
#228=ORIENTED_EDGE('',*,*,#507,.F.);
#229=ORIENTED_EDGE('',*,*,#508,.T.);
#230=ORIENTED_EDGE('',*,*,#490,.T.);
#231=ORIENTED_EDGE('',*,*,#509,.F.);
#232=ORIENTED_EDGE('',*,*,#510,.T.);
#233=ORIENTED_EDGE('',*,*,#500,.T.);
#234=ORIENTED_EDGE('',*,*,#511,.F.);
#235=ORIENTED_EDGE('',*,*,#481,.F.);
#236=ORIENTED_EDGE('',*,*,#480,.F.);
#237=ORIENTED_EDGE('',*,*,#479,.F.);
#238=ORIENTED_EDGE('',*,*,#478,.F.);
#239=ORIENTED_EDGE('',*,*,#512,.T.);
#240=ORIENTED_EDGE('',*,*,#476,.F.);
#241=ORIENTED_EDGE('',*,*,#513,.T.);
#242=ORIENTED_EDGE('',*,*,#514,.T.);
#243=ORIENTED_EDGE('',*,*,#515,.T.);
#244=ORIENTED_EDGE('',*,*,#516,.T.);
#245=ORIENTED_EDGE('',*,*,#517,.T.);
#246=ORIENTED_EDGE('',*,*,#518,.F.);
#247=ORIENTED_EDGE('',*,*,#519,.T.);
#248=ORIENTED_EDGE('',*,*,#509,.T.);
#249=ORIENTED_EDGE('',*,*,#520,.F.);
#250=ORIENTED_EDGE('',*,*,#521,.T.);
#251=ORIENTED_EDGE('',*,*,#522,.T.);
#252=ORIENTED_EDGE('',*,*,#523,.T.);
#253=ORIENTED_EDGE('',*,*,#524,.T.);
#254=ORIENTED_EDGE('',*,*,#507,.T.);
#255=ORIENTED_EDGE('',*,*,#525,.F.);
#256=ORIENTED_EDGE('',*,*,#512,.F.);
#257=ORIENTED_EDGE('',*,*,#505,.T.);
#258=ORIENTED_EDGE('',*,*,#526,.T.);
#259=ORIENTED_EDGE('',*,*,#527,.F.);
#260=ORIENTED_EDGE('',*,*,#522,.F.);
#261=ORIENTED_EDGE('',*,*,#528,.T.);
#262=ORIENTED_EDGE('',*,*,#494,.T.);
#263=ORIENTED_EDGE('',*,*,#529,.T.);
#264=ORIENTED_EDGE('',*,*,#530,.F.);
#265=ORIENTED_EDGE('',*,*,#531,.T.);
#266=ORIENTED_EDGE('',*,*,#532,.T.);
#267=ORIENTED_EDGE('',*,*,#525,.T.);
#268=ORIENTED_EDGE('',*,*,#506,.T.);
#269=ORIENTED_EDGE('',*,*,#489,.F.);
#270=ORIENTED_EDGE('',*,*,#503,.T.);
#271=ORIENTED_EDGE('',*,*,#527,.T.);
#272=ORIENTED_EDGE('',*,*,#487,.T.);
#273=ORIENTED_EDGE('',*,*,#533,.T.);
#274=ORIENTED_EDGE('',*,*,#534,.T.);
#275=ORIENTED_EDGE('',*,*,#530,.T.);
#276=ORIENTED_EDGE('',*,*,#526,.F.);
#277=ORIENTED_EDGE('',*,*,#504,.F.);
#278=ORIENTED_EDGE('',*,*,#535,.T.);
#279=ORIENTED_EDGE('',*,*,#536,.T.);
#280=ORIENTED_EDGE('',*,*,#485,.F.);
#281=ORIENTED_EDGE('',*,*,#537,.F.);
#282=ORIENTED_EDGE('',*,*,#484,.F.);
#283=ORIENTED_EDGE('',*,*,#538,.T.);
#284=ORIENTED_EDGE('',*,*,#539,.T.);
#285=ORIENTED_EDGE('',*,*,#537,.T.);
#286=ORIENTED_EDGE('',*,*,#482,.T.);
#287=ORIENTED_EDGE('',*,*,#540,.T.);
#288=ORIENTED_EDGE('',*,*,#541,.T.);
#289=ORIENTED_EDGE('',*,*,#542,.T.);
#290=ORIENTED_EDGE('',*,*,#543,.T.);
#291=ORIENTED_EDGE('',*,*,#544,.T.);
#292=ORIENTED_EDGE('',*,*,#501,.T.);
#293=ORIENTED_EDGE('',*,*,#510,.F.);
#294=ORIENTED_EDGE('',*,*,#519,.F.);
#295=ORIENTED_EDGE('',*,*,#545,.F.);
#296=ORIENTED_EDGE('',*,*,#518,.T.);
#297=ORIENTED_EDGE('',*,*,#546,.T.);
#298=ORIENTED_EDGE('',*,*,#547,.T.);
#299=ORIENTED_EDGE('',*,*,#545,.T.);
#300=ORIENTED_EDGE('',*,*,#548,.T.);
#301=ORIENTED_EDGE('',*,*,#549,.T.);
#302=ORIENTED_EDGE('',*,*,#477,.T.);
#303=ORIENTED_EDGE('',*,*,#520,.T.);
#304=ORIENTED_EDGE('',*,*,#511,.T.);
#305=ORIENTED_EDGE('',*,*,#499,.F.);
#306=ORIENTED_EDGE('',*,*,#550,.T.);
#307=ORIENTED_EDGE('',*,*,#551,.T.);
#308=ORIENTED_EDGE('',*,*,#497,.F.);
#309=ORIENTED_EDGE('',*,*,#552,.T.);
#310=ORIENTED_EDGE('',*,*,#553,.F.);
#311=ORIENTED_EDGE('',*,*,#554,.T.);
#312=ORIENTED_EDGE('',*,*,#555,.T.);
#313=ORIENTED_EDGE('',*,*,#495,.T.);
#314=ORIENTED_EDGE('',*,*,#528,.F.);
#315=ORIENTED_EDGE('',*,*,#521,.F.);
#316=ORIENTED_EDGE('',*,*,#493,.T.);
#317=ORIENTED_EDGE('',*,*,#556,.T.);
#318=ORIENTED_EDGE('',*,*,#557,.T.);
#319=ORIENTED_EDGE('',*,*,#553,.T.);
#320=ORIENTED_EDGE('',*,*,#523,.F.);
#321=ORIENTED_EDGE('',*,*,#529,.F.);
#322=ORIENTED_EDGE('',*,*,#558,.T.);
#323=ORIENTED_EDGE('',*,*,#559,.T.);
#324=ORIENTED_EDGE('',*,*,#491,.T.);
#325=ORIENTED_EDGE('',*,*,#508,.F.);
#326=ORIENTED_EDGE('',*,*,#524,.F.);
#327=ORIENTED_EDGE('',*,*,#532,.F.);
#328=ORIENTED_EDGE('',*,*,#560,.T.);
#329=ORIENTED_EDGE('',*,*,#561,.T.);
#330=ORIENTED_EDGE('',*,*,#562,.F.);
#331=ORIENTED_EDGE('',*,*,#563,.T.);
#332=ORIENTED_EDGE('',*,*,#564,.T.);
#333=ORIENTED_EDGE('',*,*,#565,.T.);
#334=ORIENTED_EDGE('',*,*,#566,.T.);
#335=ORIENTED_EDGE('',*,*,#567,.T.);
#336=ORIENTED_EDGE('',*,*,#568,.T.);
#337=ORIENTED_EDGE('',*,*,#569,.T.);
#338=ORIENTED_EDGE('',*,*,#570,.T.);
#339=ORIENTED_EDGE('',*,*,#571,.T.);
#340=ORIENTED_EDGE('',*,*,#572,.T.);
#341=ORIENTED_EDGE('',*,*,#573,.T.);
#342=ORIENTED_EDGE('',*,*,#574,.T.);
#343=ORIENTED_EDGE('',*,*,#575,.T.);
#344=ORIENTED_EDGE('',*,*,#562,.T.);
#345=ORIENTED_EDGE('',*,*,#576,.T.);
#346=ORIENTED_EDGE('',*,*,#577,.T.);
#347=ORIENTED_EDGE('',*,*,#515,.F.);
#348=ORIENTED_EDGE('',*,*,#578,.T.);
#349=ORIENTED_EDGE('',*,*,#579,.T.);
#350=ORIENTED_EDGE('',*,*,#514,.F.);
#351=ORIENTED_EDGE('',*,*,#580,.T.);
#352=ORIENTED_EDGE('',*,*,#581,.T.);
#353=ORIENTED_EDGE('',*,*,#578,.F.);
#354=ORIENTED_EDGE('',*,*,#582,.T.);
#355=ORIENTED_EDGE('',*,*,#583,.T.);
#356=ORIENTED_EDGE('',*,*,#516,.F.);
#357=ORIENTED_EDGE('',*,*,#577,.F.);
#358=ORIENTED_EDGE('',*,*,#576,.F.);
#359=ORIENTED_EDGE('',*,*,#561,.F.);
#360=ORIENTED_EDGE('',*,*,#584,.F.);
#361=ORIENTED_EDGE('',*,*,#582,.F.);
#362=ORIENTED_EDGE('',*,*,#517,.F.);
#363=ORIENTED_EDGE('',*,*,#583,.F.);
#364=ORIENTED_EDGE('',*,*,#585,.F.);
#365=ORIENTED_EDGE('',*,*,#546,.F.);
#366=ORIENTED_EDGE('',*,*,#585,.T.);
#367=ORIENTED_EDGE('',*,*,#584,.T.);
#368=ORIENTED_EDGE('',*,*,#586,.F.);
#369=ORIENTED_EDGE('',*,*,#586,.T.);
#370=ORIENTED_EDGE('',*,*,#560,.F.);
#371=ORIENTED_EDGE('',*,*,#587,.F.);
#372=ORIENTED_EDGE('',*,*,#547,.F.);
#373=ORIENTED_EDGE('',*,*,#587,.T.);
#374=ORIENTED_EDGE('',*,*,#575,.F.);
#375=ORIENTED_EDGE('',*,*,#588,.F.);
#376=ORIENTED_EDGE('',*,*,#543,.F.);
#377=ORIENTED_EDGE('',*,*,#502,.F.);
#378=ORIENTED_EDGE('',*,*,#544,.F.);
#379=ORIENTED_EDGE('',*,*,#589,.F.);
#380=ORIENTED_EDGE('',*,*,#540,.F.);
#381=ORIENTED_EDGE('',*,*,#589,.T.);
#382=ORIENTED_EDGE('',*,*,#588,.T.);
#383=ORIENTED_EDGE('',*,*,#590,.F.);
#384=ORIENTED_EDGE('',*,*,#590,.T.);
#385=ORIENTED_EDGE('',*,*,#574,.F.);
#386=ORIENTED_EDGE('',*,*,#591,.F.);
#387=ORIENTED_EDGE('',*,*,#541,.F.);
#388=ORIENTED_EDGE('',*,*,#483,.F.);
#389=ORIENTED_EDGE('',*,*,#542,.F.);
#390=ORIENTED_EDGE('',*,*,#592,.F.);
#391=ORIENTED_EDGE('',*,*,#538,.F.);
#392=ORIENTED_EDGE('',*,*,#592,.T.);
#393=ORIENTED_EDGE('',*,*,#591,.T.);
#394=ORIENTED_EDGE('',*,*,#593,.F.);
#395=ORIENTED_EDGE('',*,*,#593,.T.);
#396=ORIENTED_EDGE('',*,*,#573,.F.);
#397=ORIENTED_EDGE('',*,*,#594,.F.);
#398=ORIENTED_EDGE('',*,*,#539,.F.);
#399=ORIENTED_EDGE('',*,*,#594,.T.);
#400=ORIENTED_EDGE('',*,*,#572,.F.);
#401=ORIENTED_EDGE('',*,*,#595,.F.);
#402=ORIENTED_EDGE('',*,*,#535,.F.);
#403=ORIENTED_EDGE('',*,*,#486,.F.);
#404=ORIENTED_EDGE('',*,*,#536,.F.);
#405=ORIENTED_EDGE('',*,*,#596,.F.);
#406=ORIENTED_EDGE('',*,*,#533,.F.);
#407=ORIENTED_EDGE('',*,*,#596,.T.);
#408=ORIENTED_EDGE('',*,*,#595,.T.);
#409=ORIENTED_EDGE('',*,*,#597,.F.);
#410=ORIENTED_EDGE('',*,*,#597,.T.);
#411=ORIENTED_EDGE('',*,*,#571,.F.);
#412=ORIENTED_EDGE('',*,*,#598,.F.);
#413=ORIENTED_EDGE('',*,*,#534,.F.);
#414=ORIENTED_EDGE('',*,*,#598,.T.);
#415=ORIENTED_EDGE('',*,*,#570,.F.);
#416=ORIENTED_EDGE('',*,*,#599,.F.);
#417=ORIENTED_EDGE('',*,*,#531,.F.);
#418=ORIENTED_EDGE('',*,*,#599,.T.);
#419=ORIENTED_EDGE('',*,*,#569,.F.);
#420=ORIENTED_EDGE('',*,*,#600,.F.);
#421=ORIENTED_EDGE('',*,*,#558,.F.);
#422=ORIENTED_EDGE('',*,*,#492,.F.);
#423=ORIENTED_EDGE('',*,*,#559,.F.);
#424=ORIENTED_EDGE('',*,*,#601,.F.);
#425=ORIENTED_EDGE('',*,*,#556,.F.);
#426=ORIENTED_EDGE('',*,*,#601,.T.);
#427=ORIENTED_EDGE('',*,*,#600,.T.);
#428=ORIENTED_EDGE('',*,*,#602,.F.);
#429=ORIENTED_EDGE('',*,*,#602,.T.);
#430=ORIENTED_EDGE('',*,*,#568,.F.);
#431=ORIENTED_EDGE('',*,*,#603,.F.);
#432=ORIENTED_EDGE('',*,*,#557,.F.);
#433=ORIENTED_EDGE('',*,*,#603,.T.);
#434=ORIENTED_EDGE('',*,*,#567,.F.);
#435=ORIENTED_EDGE('',*,*,#604,.F.);
#436=ORIENTED_EDGE('',*,*,#554,.F.);
#437=ORIENTED_EDGE('',*,*,#496,.F.);
#438=ORIENTED_EDGE('',*,*,#555,.F.);
#439=ORIENTED_EDGE('',*,*,#605,.F.);
#440=ORIENTED_EDGE('',*,*,#552,.F.);
#441=ORIENTED_EDGE('',*,*,#605,.T.);
#442=ORIENTED_EDGE('',*,*,#604,.T.);
#443=ORIENTED_EDGE('',*,*,#606,.F.);
#444=ORIENTED_EDGE('',*,*,#606,.T.);
#445=ORIENTED_EDGE('',*,*,#566,.F.);
#446=ORIENTED_EDGE('',*,*,#607,.F.);
#447=ORIENTED_EDGE('',*,*,#550,.F.);
#448=ORIENTED_EDGE('',*,*,#498,.F.);
#449=ORIENTED_EDGE('',*,*,#551,.F.);
#450=ORIENTED_EDGE('',*,*,#608,.F.);
#451=ORIENTED_EDGE('',*,*,#548,.F.);
#452=ORIENTED_EDGE('',*,*,#608,.T.);
#453=ORIENTED_EDGE('',*,*,#607,.T.);
#454=ORIENTED_EDGE('',*,*,#609,.F.);
#455=ORIENTED_EDGE('',*,*,#609,.T.);
#456=ORIENTED_EDGE('',*,*,#565,.F.);
#457=ORIENTED_EDGE('',*,*,#610,.F.);
#458=ORIENTED_EDGE('',*,*,#549,.F.);
#459=ORIENTED_EDGE('',*,*,#579,.F.);
#460=ORIENTED_EDGE('',*,*,#581,.F.);
#461=ORIENTED_EDGE('',*,*,#611,.F.);
#462=ORIENTED_EDGE('',*,*,#563,.F.);
#463=ORIENTED_EDGE('',*,*,#610,.T.);
#464=ORIENTED_EDGE('',*,*,#564,.F.);
#465=ORIENTED_EDGE('',*,*,#612,.F.);
#466=ORIENTED_EDGE('',*,*,#474,.F.);
#467=ORIENTED_EDGE('',*,*,#612,.T.);
#468=ORIENTED_EDGE('',*,*,#611,.T.);
#469=ORIENTED_EDGE('',*,*,#613,.F.);
#470=ORIENTED_EDGE('',*,*,#613,.T.);
#471=ORIENTED_EDGE('',*,*,#580,.F.);
#472=ORIENTED_EDGE('',*,*,#513,.F.);
#473=ORIENTED_EDGE('',*,*,#475,.F.);
#474=EDGE_CURVE('',#614,#615,#699,.F.);
#475=EDGE_CURVE('',#615,#616,#46,.T.);
#476=EDGE_CURVE('',#616,#617,#700,.T.);
#477=EDGE_CURVE('',#614,#617,#47,.T.);
#478=EDGE_CURVE('',#618,#619,#701,.T.);
#479=EDGE_CURVE('',#619,#620,#702,.T.);
#480=EDGE_CURVE('',#620,#621,#703,.T.);
#481=EDGE_CURVE('',#621,#618,#704,.T.);
#482=EDGE_CURVE('',#622,#623,#48,.T.);
#483=EDGE_CURVE('',#622,#624,#705,.F.);
#484=EDGE_CURVE('',#624,#625,#49,.T.);
#485=EDGE_CURVE('',#625,#626,#50,.T.);
#486=EDGE_CURVE('',#626,#627,#706,.F.);
#487=EDGE_CURVE('',#628,#627,#51,.T.);
#488=EDGE_CURVE('',#629,#628,#707,.T.);
#489=EDGE_CURVE('',#629,#630,#708,.F.);
#490=EDGE_CURVE('',#631,#630,#709,.T.);
#491=EDGE_CURVE('',#632,#631,#52,.T.);
#492=EDGE_CURVE('',#632,#633,#710,.F.);
#493=EDGE_CURVE('',#634,#633,#53,.T.);
#494=EDGE_CURVE('',#635,#634,#711,.T.);
#495=EDGE_CURVE('',#636,#635,#54,.T.);
#496=EDGE_CURVE('',#636,#637,#712,.F.);
#497=EDGE_CURVE('',#637,#638,#55,.T.);
#498=EDGE_CURVE('',#638,#639,#713,.F.);
#499=EDGE_CURVE('',#639,#640,#56,.T.);
#500=EDGE_CURVE('',#641,#640,#714,.T.);
#501=EDGE_CURVE('',#642,#641,#57,.T.);
#502=EDGE_CURVE('',#642,#623,#715,.F.);
#503=EDGE_CURVE('',#629,#643,#58,.T.);
#504=EDGE_CURVE('',#628,#644,#59,.F.);
#505=EDGE_CURVE('',#643,#644,#716,.T.);
#506=EDGE_CURVE('',#645,#630,#60,.F.);
#507=EDGE_CURVE('',#646,#645,#717,.T.);
#508=EDGE_CURVE('',#646,#631,#61,.T.);
#509=EDGE_CURVE('',#647,#648,#718,.T.);
#510=EDGE_CURVE('',#647,#641,#62,.T.);
#511=EDGE_CURVE('',#648,#640,#63,.T.);
#512=EDGE_CURVE('',#649,#649,#719,.T.);
#513=EDGE_CURVE('',#616,#650,#720,.F.);
#514=EDGE_CURVE('',#650,#651,#64,.T.);
#515=EDGE_CURVE('',#651,#652,#721,.T.);
#516=EDGE_CURVE('',#652,#653,#65,.T.);
#517=EDGE_CURVE('',#653,#654,#722,.F.);
#518=EDGE_CURVE('',#655,#654,#723,.T.);
#519=EDGE_CURVE('',#655,#647,#66,.T.);
#520=EDGE_CURVE('',#617,#648,#67,.T.);
#521=EDGE_CURVE('',#656,#657,#68,.T.);
#522=EDGE_CURVE('',#657,#658,#724,.T.);
#523=EDGE_CURVE('',#658,#656,#69,.T.);
#524=EDGE_CURVE('',#659,#646,#70,.T.);
#525=EDGE_CURVE('',#659,#645,#725,.T.);
#526=EDGE_CURVE('',#644,#660,#71,.T.);
#527=EDGE_CURVE('',#643,#660,#726,.T.);
#528=EDGE_CURVE('',#657,#635,#72,.T.);
#529=EDGE_CURVE('',#634,#658,#73,.F.);
#530=EDGE_CURVE('',#661,#660,#74,.T.);
#531=EDGE_CURVE('',#661,#662,#727,.F.);
#532=EDGE_CURVE('',#662,#659,#75,.T.);
#533=EDGE_CURVE('',#627,#663,#76,.F.);
#534=EDGE_CURVE('',#663,#661,#77,.T.);
#535=EDGE_CURVE('',#664,#665,#78,.F.);
#536=EDGE_CURVE('',#665,#626,#79,.T.);
#537=EDGE_CURVE('',#664,#625,#80,.T.);
#538=EDGE_CURVE('',#624,#666,#81,.F.);
#539=EDGE_CURVE('',#666,#664,#82,.F.);
#540=EDGE_CURVE('',#623,#667,#83,.F.);
#541=EDGE_CURVE('',#667,#668,#84,.T.);
#542=EDGE_CURVE('',#668,#622,#85,.T.);
#543=EDGE_CURVE('',#669,#670,#86,.T.);
#544=EDGE_CURVE('',#670,#642,#87,.T.);
#545=EDGE_CURVE('',#669,#655,#88,.T.);
#546=EDGE_CURVE('',#654,#671,#89,.F.);
#547=EDGE_CURVE('',#671,#669,#728,.F.);
#548=EDGE_CURVE('',#639,#672,#90,.F.);
#549=EDGE_CURVE('',#672,#614,#91,.F.);
#550=EDGE_CURVE('',#673,#674,#92,.F.);
#551=EDGE_CURVE('',#674,#638,#93,.T.);
#552=EDGE_CURVE('',#637,#673,#94,.F.);
#553=EDGE_CURVE('',#675,#656,#95,.T.);
#554=EDGE_CURVE('',#675,#676,#96,.T.);
#555=EDGE_CURVE('',#676,#636,#97,.T.);
#556=EDGE_CURVE('',#633,#677,#98,.F.);
#557=EDGE_CURVE('',#677,#675,#99,.T.);
#558=EDGE_CURVE('',#662,#678,#100,.T.);
#559=EDGE_CURVE('',#678,#632,#101,.T.);
#560=EDGE_CURVE('',#679,#680,#729,.T.);
#561=EDGE_CURVE('',#680,#681,#102,.F.);
#562=EDGE_CURVE('',#682,#681,#730,.T.);
#563=EDGE_CURVE('',#682,#683,#103,.F.);
#564=EDGE_CURVE('',#683,#684,#731,.T.);
#565=EDGE_CURVE('',#684,#685,#104,.T.);
#566=EDGE_CURVE('',#685,#686,#105,.T.);
#567=EDGE_CURVE('',#686,#687,#106,.F.);
#568=EDGE_CURVE('',#687,#688,#107,.F.);
#569=EDGE_CURVE('',#688,#689,#108,.F.);
#570=EDGE_CURVE('',#689,#690,#732,.T.);
#571=EDGE_CURVE('',#690,#691,#109,.F.);
#572=EDGE_CURVE('',#691,#692,#110,.T.);
#573=EDGE_CURVE('',#692,#693,#111,.T.);
#574=EDGE_CURVE('',#693,#694,#112,.F.);
#575=EDGE_CURVE('',#694,#679,#113,.F.);
#576=EDGE_CURVE('',#681,#695,#25,.T.);
#577=EDGE_CURVE('',#695,#652,#114,.F.);
#578=EDGE_CURVE('',#651,#696,#115,.T.);
#579=EDGE_CURVE('',#696,#682,#26,.T.);
#580=EDGE_CURVE('',#650,#697,#116,.F.);
#581=EDGE_CURVE('',#697,#696,#117,.T.);
#582=EDGE_CURVE('',#695,#698,#118,.T.);
#583=EDGE_CURVE('',#698,#653,#119,.T.);
#584=EDGE_CURVE('',#698,#680,#733,.T.);
#585=EDGE_CURVE('',#671,#698,#734,.T.);
#586=EDGE_CURVE('',#671,#680,#735,.F.);
#587=EDGE_CURVE('',#669,#679,#27,.T.);
#588=EDGE_CURVE('',#670,#694,#736,.T.);
#589=EDGE_CURVE('',#667,#670,#737,.T.);
#590=EDGE_CURVE('',#667,#694,#738,.F.);
#591=EDGE_CURVE('',#668,#693,#739,.T.);
#592=EDGE_CURVE('',#666,#668,#740,.T.);
#593=EDGE_CURVE('',#666,#693,#741,.F.);
#594=EDGE_CURVE('',#664,#692,#12,.T.);
#595=EDGE_CURVE('',#665,#691,#742,.T.);
#596=EDGE_CURVE('',#663,#665,#743,.T.);
#597=EDGE_CURVE('',#663,#691,#744,.F.);
#598=EDGE_CURVE('',#661,#690,#28,.T.);
#599=EDGE_CURVE('',#662,#689,#29,.T.);
#600=EDGE_CURVE('',#678,#688,#745,.T.);
#601=EDGE_CURVE('',#677,#678,#746,.T.);
#602=EDGE_CURVE('',#677,#688,#747,.F.);
#603=EDGE_CURVE('',#675,#687,#13,.T.);
#604=EDGE_CURVE('',#676,#686,#748,.T.);
#605=EDGE_CURVE('',#673,#676,#749,.T.);
#606=EDGE_CURVE('',#673,#686,#750,.F.);
#607=EDGE_CURVE('',#674,#685,#751,.T.);
#608=EDGE_CURVE('',#672,#674,#752,.T.);
#609=EDGE_CURVE('',#672,#685,#753,.F.);
#610=EDGE_CURVE('',#614,#684,#30,.T.);
#611=EDGE_CURVE('',#683,#697,#754,.T.);
#612=EDGE_CURVE('',#615,#683,#755,.T.);
#613=EDGE_CURVE('',#615,#697,#756,.F.);
#614=VERTEX_POINT('',#1400);
#615=VERTEX_POINT('',#1401);
#616=VERTEX_POINT('',#1403);
#617=VERTEX_POINT('',#1405);
#618=VERTEX_POINT('',#1409);
#619=VERTEX_POINT('',#1410);
#620=VERTEX_POINT('',#1412);
#621=VERTEX_POINT('',#1414);
#622=VERTEX_POINT('',#1417);
#623=VERTEX_POINT('',#1418);
#624=VERTEX_POINT('',#1420);
#625=VERTEX_POINT('',#1422);
#626=VERTEX_POINT('',#1424);
#627=VERTEX_POINT('',#1426);
#628=VERTEX_POINT('',#1428);
#629=VERTEX_POINT('',#1430);
#630=VERTEX_POINT('',#1432);
#631=VERTEX_POINT('',#1434);
#632=VERTEX_POINT('',#1436);
#633=VERTEX_POINT('',#1438);
#634=VERTEX_POINT('',#1440);
#635=VERTEX_POINT('',#1442);
#636=VERTEX_POINT('',#1444);
#637=VERTEX_POINT('',#1446);
#638=VERTEX_POINT('',#1448);
#639=VERTEX_POINT('',#1450);
#640=VERTEX_POINT('',#1452);
#641=VERTEX_POINT('',#1454);
#642=VERTEX_POINT('',#1456);
#643=VERTEX_POINT('',#1460);
#644=VERTEX_POINT('',#1462);
#645=VERTEX_POINT('',#1466);
#646=VERTEX_POINT('',#1468);
#647=VERTEX_POINT('',#1472);
#648=VERTEX_POINT('',#1473);
#649=VERTEX_POINT('',#1478);
#650=VERTEX_POINT('',#1481);
#651=VERTEX_POINT('',#1483);
#652=VERTEX_POINT('',#1485);
#653=VERTEX_POINT('',#1487);
#654=VERTEX_POINT('',#1489);
#655=VERTEX_POINT('',#1491);
#656=VERTEX_POINT('',#1495);
#657=VERTEX_POINT('',#1496);
#658=VERTEX_POINT('',#1498);
#659=VERTEX_POINT('',#1501);
#660=VERTEX_POINT('',#1504);
#661=VERTEX_POINT('',#1511);
#662=VERTEX_POINT('',#1513);
#663=VERTEX_POINT('',#1517);
#664=VERTEX_POINT('',#1521);
#665=VERTEX_POINT('',#1522);
#666=VERTEX_POINT('',#1527);
#667=VERTEX_POINT('',#1531);
#668=VERTEX_POINT('',#1533);
#669=VERTEX_POINT('',#1537);
#670=VERTEX_POINT('',#1538);
#671=VERTEX_POINT('',#1543);
#672=VERTEX_POINT('',#1547);
#673=VERTEX_POINT('',#1551);
#674=VERTEX_POINT('',#1552);
#675=VERTEX_POINT('',#1557);
#676=VERTEX_POINT('',#1559);
#677=VERTEX_POINT('',#1563);
#678=VERTEX_POINT('',#1567);
#679=VERTEX_POINT('',#1571);
#680=VERTEX_POINT('',#1572);
#681=VERTEX_POINT('',#1574);
#682=VERTEX_POINT('',#1576);
#683=VERTEX_POINT('',#1578);
#684=VERTEX_POINT('',#1580);
#685=VERTEX_POINT('',#1582);
#686=VERTEX_POINT('',#1584);
#687=VERTEX_POINT('',#1586);
#688=VERTEX_POINT('',#1588);
#689=VERTEX_POINT('',#1590);
#690=VERTEX_POINT('',#1592);
#691=VERTEX_POINT('',#1594);
#692=VERTEX_POINT('',#1596);
#693=VERTEX_POINT('',#1598);
#694=VERTEX_POINT('',#1600);
#695=VERTEX_POINT('',#1608);
#696=VERTEX_POINT('',#1611);
#697=VERTEX_POINT('',#1619);
#698=VERTEX_POINT('',#1623);
#699=CIRCLE('',#977,0.018034);
#700=CIRCLE('',#978,0.018034);
#701=CIRCLE('',#980,0.038989);
#702=CIRCLE('',#981,0.038989);
#703=CIRCLE('',#982,0.038989);
#704=CIRCLE('',#983,0.038989);
#705=CIRCLE('',#984,0.000635);
#706=CIRCLE('',#985,0.000635);
#707=CIRCLE('',#986,0.0362585);
#708=CIRCLE('',#987,0.018034);
#709=CIRCLE('',#988,0.0362585);
#710=CIRCLE('',#989,0.000635);
#711=CIRCLE('',#990,0.0362585);
#712=CIRCLE('',#991,0.000635);
#713=CIRCLE('',#992,0.000635);
#714=CIRCLE('',#993,0.0362585);
#715=CIRCLE('',#994,0.000635);
#716=CIRCLE('',#996,0.0362585);
#717=CIRCLE('',#998,0.0362585);
#718=CIRCLE('',#1000,0.0362585);
#719=CIRCLE('',#1002,0.038989);
#720=CIRCLE('',#1004,0.000635);
#721=CIRCLE('',#1005,0.01397);
#722=CIRCLE('',#1006,0.000635);
#723=CIRCLE('',#1007,0.018034);
#724=CIRCLE('',#1008,0.0362585);
#725=CIRCLE('',#1009,0.018034);
#726=CIRCLE('',#1010,0.018034);
#727=CIRCLE('',#1013,0.018034);
#728=CIRCLE('',#1020,0.018034);
#729=CIRCLE('',#1027,0.017399);
#730=CIRCLE('',#1028,0.01397);
#731=CIRCLE('',#1029,0.017399);
#732=CIRCLE('',#1030,0.017399);
#733=CIRCLE('',#1035,0.000635);
#734=CIRCLE('',#1037,0.000635);
#735=CIRCLE('',#1039,0.000635);
#736=CIRCLE('',#1042,0.000635);
#737=CIRCLE('',#1044,0.000635);
#738=CIRCLE('',#1046,0.000635);
#739=CIRCLE('',#1048,0.000635);
#740=CIRCLE('',#1050,0.000635);
#741=CIRCLE('',#1052,0.000635);
#742=CIRCLE('',#1056,0.000635);
#743=CIRCLE('',#1058,0.000635);
#744=CIRCLE('',#1060,0.000635);
#745=CIRCLE('',#1064,0.000635);
#746=CIRCLE('',#1066,0.000635);
#747=CIRCLE('',#1068,0.000635);
#748=CIRCLE('',#1072,0.000635);
#749=CIRCLE('',#1074,0.000635);
#750=CIRCLE('',#1076,0.000635);
#751=CIRCLE('',#1078,0.000635);
#752=CIRCLE('',#1080,0.000635);
#753=CIRCLE('',#1082,0.000635);
#754=CIRCLE('',#1085,0.000635);
#755=CIRCLE('',#1087,0.000635);
#756=CIRCLE('',#1089,0.000635);
#757=EDGE_LOOP('',(#194,#195,#196,#197));
#758=EDGE_LOOP('',(#198,#199,#200,#201));
#759=EDGE_LOOP('',(#202,#203,#204,#205,#206,#207,#208,#209,#210,#211,#212,
#213,#214,#215,#216,#217,#218,#219,#220,#221,#222));
#760=EDGE_LOOP('',(#223,#224,#225,#226));
#761=EDGE_LOOP('',(#227,#228,#229,#230));
#762=EDGE_LOOP('',(#231,#232,#233,#234));
#763=EDGE_LOOP('',(#235,#236,#237,#238));
#764=EDGE_LOOP('',(#239));
#765=EDGE_LOOP('',(#240,#241,#242,#243,#244,#245,#246,#247,#248,#249));
#766=EDGE_LOOP('',(#250,#251,#252));
#767=EDGE_LOOP('',(#253,#254,#255));
#768=EDGE_LOOP('',(#256));
#769=EDGE_LOOP('',(#257,#258,#259));
#770=EDGE_LOOP('',(#260,#261,#262,#263));
#771=EDGE_LOOP('',(#264,#265,#266,#267,#268,#269,#270,#271));
#772=EDGE_LOOP('',(#272,#273,#274,#275,#276,#277));
#773=EDGE_LOOP('',(#278,#279,#280,#281));
#774=EDGE_LOOP('',(#282,#283,#284,#285));
#775=EDGE_LOOP('',(#286,#287,#288,#289));
#776=EDGE_LOOP('',(#290,#291,#292,#293,#294,#295));
#777=EDGE_LOOP('',(#296,#297,#298,#299));
#778=EDGE_LOOP('',(#300,#301,#302,#303,#304,#305));
#779=EDGE_LOOP('',(#306,#307,#308,#309));
#780=EDGE_LOOP('',(#310,#311,#312,#313,#314,#315));
#781=EDGE_LOOP('',(#316,#317,#318,#319,#320,#321));
#782=EDGE_LOOP('',(#322,#323,#324,#325,#326,#327));
#783=EDGE_LOOP('',(#328,#329,#330,#331,#332,#333,#334,#335,#336,#337,#338,
#339,#340,#341,#342,#343));
#784=EDGE_LOOP('',(#344,#345,#346,#347,#348,#349));
#785=EDGE_LOOP('',(#350,#351,#352,#353));
#786=EDGE_LOOP('',(#354,#355,#356,#357));
#787=EDGE_LOOP('',(#358,#359,#360,#361));
#788=EDGE_LOOP('',(#362,#363,#364,#365));
#789=EDGE_LOOP('',(#366,#367,#368));
#790=EDGE_LOOP('',(#369,#370,#371,#372));
#791=EDGE_LOOP('',(#373,#374,#375,#376));
#792=EDGE_LOOP('',(#377,#378,#379,#380));
#793=EDGE_LOOP('',(#381,#382,#383));
#794=EDGE_LOOP('',(#384,#385,#386,#387));
#795=EDGE_LOOP('',(#388,#389,#390,#391));
#796=EDGE_LOOP('',(#392,#393,#394));
#797=EDGE_LOOP('',(#395,#396,#397,#398));
#798=EDGE_LOOP('',(#399,#400,#401,#402));
#799=EDGE_LOOP('',(#403,#404,#405,#406));
#800=EDGE_LOOP('',(#407,#408,#409));
#801=EDGE_LOOP('',(#410,#411,#412,#413));
#802=EDGE_LOOP('',(#414,#415,#416,#417));
#803=EDGE_LOOP('',(#418,#419,#420,#421));
#804=EDGE_LOOP('',(#422,#423,#424,#425));
#805=EDGE_LOOP('',(#426,#427,#428));
#806=EDGE_LOOP('',(#429,#430,#431,#432));
#807=EDGE_LOOP('',(#433,#434,#435,#436));
#808=EDGE_LOOP('',(#437,#438,#439,#440));
#809=EDGE_LOOP('',(#441,#442,#443));
#810=EDGE_LOOP('',(#444,#445,#446,#447));
#811=EDGE_LOOP('',(#448,#449,#450,#451));
#812=EDGE_LOOP('',(#452,#453,#454));
#813=EDGE_LOOP('',(#455,#456,#457,#458));
#814=EDGE_LOOP('',(#459,#460,#461,#462));
#815=EDGE_LOOP('',(#463,#464,#465,#466));
#816=EDGE_LOOP('',(#467,#468,#469));
#817=EDGE_LOOP('',(#470,#471,#472,#473));
#818=FACE_BOUND('',#757,.T.);
#819=FACE_BOUND('',#758,.T.);
#820=FACE_BOUND('',#759,.T.);
#821=FACE_BOUND('',#760,.T.);
#822=FACE_BOUND('',#761,.T.);
#823=FACE_BOUND('',#762,.T.);
#824=FACE_BOUND('',#763,.T.);
#825=FACE_BOUND('',#764,.T.);
#826=FACE_BOUND('',#765,.T.);
#827=FACE_BOUND('',#766,.T.);
#828=FACE_BOUND('',#767,.T.);
#829=FACE_BOUND('',#768,.T.);
#830=FACE_BOUND('',#769,.T.);
#831=FACE_BOUND('',#770,.T.);
#832=FACE_BOUND('',#771,.T.);
#833=FACE_BOUND('',#772,.T.);
#834=FACE_BOUND('',#773,.T.);
#835=FACE_BOUND('',#774,.T.);
#836=FACE_BOUND('',#775,.T.);
#837=FACE_BOUND('',#776,.T.);
#838=FACE_BOUND('',#777,.T.);
#839=FACE_BOUND('',#778,.T.);
#840=FACE_BOUND('',#779,.T.);
#841=FACE_BOUND('',#780,.T.);
#842=FACE_BOUND('',#781,.T.);
#843=FACE_BOUND('',#782,.T.);
#844=FACE_BOUND('',#783,.T.);
#845=FACE_BOUND('',#784,.T.);
#846=FACE_BOUND('',#785,.T.);
#847=FACE_BOUND('',#786,.T.);
#848=FACE_BOUND('',#787,.T.);
#849=FACE_BOUND('',#788,.T.);
#850=FACE_BOUND('',#789,.T.);
#851=FACE_BOUND('',#790,.T.);
#852=FACE_BOUND('',#791,.T.);
#853=FACE_BOUND('',#792,.T.);
#854=FACE_BOUND('',#793,.T.);
#855=FACE_BOUND('',#794,.T.);
#856=FACE_BOUND('',#795,.T.);
#857=FACE_BOUND('',#796,.T.);
#858=FACE_BOUND('',#797,.T.);
#859=FACE_BOUND('',#798,.T.);
#860=FACE_BOUND('',#799,.T.);
#861=FACE_BOUND('',#800,.T.);
#862=FACE_BOUND('',#801,.T.);
#863=FACE_BOUND('',#802,.T.);
#864=FACE_BOUND('',#803,.T.);
#865=FACE_BOUND('',#804,.T.);
#866=FACE_BOUND('',#805,.T.);
#867=FACE_BOUND('',#806,.T.);
#868=FACE_BOUND('',#807,.T.);
#869=FACE_BOUND('',#808,.T.);
#870=FACE_BOUND('',#809,.T.);
#871=FACE_BOUND('',#810,.T.);
#872=FACE_BOUND('',#811,.T.);
#873=FACE_BOUND('',#812,.T.);
#874=FACE_BOUND('',#813,.T.);
#875=FACE_BOUND('',#814,.T.);
#876=FACE_BOUND('',#815,.T.);
#877=FACE_BOUND('',#816,.T.);
#878=FACE_BOUND('',#817,.T.);
#879=CYLINDRICAL_SURFACE('',#976,0.018034);
#880=CYLINDRICAL_SURFACE('',#995,0.0362585);
#881=CYLINDRICAL_SURFACE('',#997,0.0362585);
#882=CYLINDRICAL_SURFACE('',#999,0.0362585);
#883=CYLINDRICAL_SURFACE('',#1001,0.038989);
#884=CYLINDRICAL_SURFACE('',#1011,0.0362585);
#885=CYLINDRICAL_SURFACE('',#1012,0.018034);
#886=CYLINDRICAL_SURFACE('',#1019,0.018034);
#887=CYLINDRICAL_SURFACE('',#1031,0.01397);
#888=CYLINDRICAL_SURFACE('',#1034,0.000635);
#889=CYLINDRICAL_SURFACE('',#1036,0.000635);
#890=CYLINDRICAL_SURFACE('',#1041,0.000635);
#891=CYLINDRICAL_SURFACE('',#1043,0.000635);
#892=CYLINDRICAL_SURFACE('',#1047,0.000635);
#893=CYLINDRICAL_SURFACE('',#1049,0.000635);
#894=CYLINDRICAL_SURFACE('',#1053,0.000635);
#895=CYLINDRICAL_SURFACE('',#1055,0.000635);
#896=CYLINDRICAL_SURFACE('',#1057,0.000635);
#897=CYLINDRICAL_SURFACE('',#1061,0.000635);
#898=CYLINDRICAL_SURFACE('',#1063,0.000635);
#899=CYLINDRICAL_SURFACE('',#1065,0.000635);
#900=CYLINDRICAL_SURFACE('',#1069,0.000635);
#901=CYLINDRICAL_SURFACE('',#1071,0.000635);
#902=CYLINDRICAL_SURFACE('',#1073,0.000635);
#903=CYLINDRICAL_SURFACE('',#1077,0.000635);
#904=CYLINDRICAL_SURFACE('',#1079,0.000635);
#905=CYLINDRICAL_SURFACE('',#1083,0.000635);
#906=CYLINDRICAL_SURFACE('',#1084,0.000635);
#907=CYLINDRICAL_SURFACE('',#1090,0.000635);
#908=ADVANCED_FACE('',(#818),#879,.T.);
#909=ADVANCED_FACE('',(#819,#820),#31,.T.);
#910=ADVANCED_FACE('',(#821),#880,.F.);
#911=ADVANCED_FACE('',(#822),#881,.F.);
#912=ADVANCED_FACE('',(#823),#882,.F.);
#913=ADVANCED_FACE('',(#824,#825),#883,.T.);
#914=ADVANCED_FACE('',(#826,#827,#828,#829,#830),#32,.F.);
#915=ADVANCED_FACE('',(#831),#884,.F.);
#916=ADVANCED_FACE('',(#832),#885,.T.);
#917=ADVANCED_FACE('',(#833),#33,.T.);
#918=ADVANCED_FACE('',(#834),#34,.F.);
#919=ADVANCED_FACE('',(#835),#35,.F.);
#920=ADVANCED_FACE('',(#836),#36,.T.);
#921=ADVANCED_FACE('',(#837),#37,.T.);
#922=ADVANCED_FACE('',(#838),#886,.T.);
#923=ADVANCED_FACE('',(#839),#38,.F.);
#924=ADVANCED_FACE('',(#840),#39,.F.);
#925=ADVANCED_FACE('',(#841),#40,.T.);
#926=ADVANCED_FACE('',(#842),#41,.T.);
#927=ADVANCED_FACE('',(#843),#42,.T.);
#928=ADVANCED_FACE('',(#844),#43,.T.);
#929=ADVANCED_FACE('',(#845),#887,.F.);
#930=ADVANCED_FACE('',(#846),#44,.F.);
#931=ADVANCED_FACE('',(#847),#45,.F.);
#932=ADVANCED_FACE('',(#848),#888,.T.);
#933=ADVANCED_FACE('',(#849),#889,.T.);
#934=ADVANCED_FACE('',(#850),#17,.T.);
#935=ADVANCED_FACE('',(#851),#14,.T.);
#936=ADVANCED_FACE('',(#852),#890,.T.);
#937=ADVANCED_FACE('',(#853),#891,.T.);
#938=ADVANCED_FACE('',(#854),#18,.T.);
#939=ADVANCED_FACE('',(#855),#892,.T.);
#940=ADVANCED_FACE('',(#856),#893,.T.);
#941=ADVANCED_FACE('',(#857),#19,.T.);
#942=ADVANCED_FACE('',(#858),#894,.T.);
#943=ADVANCED_FACE('',(#859),#895,.T.);
#944=ADVANCED_FACE('',(#860),#896,.T.);
#945=ADVANCED_FACE('',(#861),#20,.T.);
#946=ADVANCED_FACE('',(#862),#897,.T.);
#947=ADVANCED_FACE('',(#863),#15,.T.);
#948=ADVANCED_FACE('',(#864),#898,.T.);
#949=ADVANCED_FACE('',(#865),#899,.T.);
#950=ADVANCED_FACE('',(#866),#21,.T.);
#951=ADVANCED_FACE('',(#867),#900,.T.);
#952=ADVANCED_FACE('',(#868),#901,.T.);
#953=ADVANCED_FACE('',(#869),#902,.T.);
#954=ADVANCED_FACE('',(#870),#22,.T.);
#955=ADVANCED_FACE('',(#871),#903,.T.);
#956=ADVANCED_FACE('',(#872),#904,.T.);
#957=ADVANCED_FACE('',(#873),#23,.T.);
#958=ADVANCED_FACE('',(#874),#905,.T.);
#959=ADVANCED_FACE('',(#875),#906,.T.);
#960=ADVANCED_FACE('',(#876),#16,.T.);
#961=ADVANCED_FACE('',(#877),#24,.T.);
#962=ADVANCED_FACE('',(#878),#907,.T.);
#963=CLOSED_SHELL('',(#908,#909,#910,#911,#912,#913,#914,#915,#916,#917,
#918,#919,#920,#921,#922,#923,#924,#925,#926,#927,#928,#929,#930,#931,#932,
#933,#934,#935,#936,#937,#938,#939,#940,#941,#942,#943,#944,#945,#946,#947,
#948,#949,#950,#951,#952,#953,#954,#955,#956,#957,#958,#959,#960,#961,#962));
#964=STYLED_ITEM('',(#965),#972);
#965=PRESENTATION_STYLE_ASSIGNMENT((#966));
#966=SURFACE_STYLE_USAGE(.BOTH.,#967);
#967=SURFACE_SIDE_STYLE('',(#968));
#968=SURFACE_STYLE_FILL_AREA(#969);
#969=FILL_AREA_STYLE('',(#970));
#970=FILL_AREA_STYLE_COLOUR('',#971);
#971=COLOUR_RGB('',0.615686274509804,0.811764705882353,0.929411764705882);
#972=MANIFOLD_SOLID_BREP('Part 1',#963);
#973=SHAPE_DEFINITION_REPRESENTATION(#1708,#974);
#974=SHAPE_REPRESENTATION('Part 1',(#975),#1703);
#975=AXIS2_PLACEMENT_3D('',#1397,#1091,#1092);
#976=AXIS2_PLACEMENT_3D('',#1398,#1093,#1094);
#977=AXIS2_PLACEMENT_3D('',#1399,#1095,#1096);
#978=AXIS2_PLACEMENT_3D('',#1404,#1098,#1099);
#979=AXIS2_PLACEMENT_3D('',#1407,#1101,#1102);
#980=AXIS2_PLACEMENT_3D('',#1408,#1103,#1104);
#981=AXIS2_PLACEMENT_3D('',#1411,#1105,#1106);
#982=AXIS2_PLACEMENT_3D('',#1413,#1107,#1108);
#983=AXIS2_PLACEMENT_3D('',#1415,#1109,#1110);
#984=AXIS2_PLACEMENT_3D('',#1419,#1112,#1113);
#985=AXIS2_PLACEMENT_3D('',#1425,#1116,#1117);
#986=AXIS2_PLACEMENT_3D('',#1429,#1119,#1120);
#987=AXIS2_PLACEMENT_3D('',#1431,#1121,#1122);
#988=AXIS2_PLACEMENT_3D('',#1433,#1123,#1124);
#989=AXIS2_PLACEMENT_3D('',#1437,#1126,#1127);
#990=AXIS2_PLACEMENT_3D('',#1441,#1129,#1130);
#991=AXIS2_PLACEMENT_3D('',#1445,#1132,#1133);
#992=AXIS2_PLACEMENT_3D('',#1449,#1135,#1136);
#993=AXIS2_PLACEMENT_3D('',#1453,#1138,#1139);
#994=AXIS2_PLACEMENT_3D('',#1457,#1141,#1142);
#995=AXIS2_PLACEMENT_3D('',#1458,#1143,#1144);
#996=AXIS2_PLACEMENT_3D('',#1463,#1147,#1148);
#997=AXIS2_PLACEMENT_3D('',#1464,#1149,#1150);
#998=AXIS2_PLACEMENT_3D('',#1467,#1152,#1153);
#999=AXIS2_PLACEMENT_3D('',#1470,#1155,#1156);
#1000=AXIS2_PLACEMENT_3D('',#1471,#1157,#1158);
#1001=AXIS2_PLACEMENT_3D('',#1476,#1161,#1162);
#1002=AXIS2_PLACEMENT_3D('',#1477,#1163,#1164);
#1003=AXIS2_PLACEMENT_3D('',#1479,#1165,#1166);
#1004=AXIS2_PLACEMENT_3D('',#1480,#1167,#1168);
#1005=AXIS2_PLACEMENT_3D('',#1484,#1170,#1171);
#1006=AXIS2_PLACEMENT_3D('',#1488,#1173,#1174);
#1007=AXIS2_PLACEMENT_3D('',#1490,#1175,#1176);
#1008=AXIS2_PLACEMENT_3D('',#1497,#1180,#1181);
#1009=AXIS2_PLACEMENT_3D('',#1502,#1184,#1185);
#1010=AXIS2_PLACEMENT_3D('',#1505,#1187,#1188);
#1011=AXIS2_PLACEMENT_3D('',#1506,#1189,#1190);
#1012=AXIS2_PLACEMENT_3D('',#1509,#1193,#1194);
#1013=AXIS2_PLACEMENT_3D('',#1512,#1196,#1197);
#1014=AXIS2_PLACEMENT_3D('',#1515,#1199,#1200);
#1015=AXIS2_PLACEMENT_3D('',#1519,#1203,#1204);
#1016=AXIS2_PLACEMENT_3D('',#1525,#1208,#1209);
#1017=AXIS2_PLACEMENT_3D('',#1529,#1212,#1213);
#1018=AXIS2_PLACEMENT_3D('',#1535,#1217,#1218);
#1019=AXIS2_PLACEMENT_3D('',#1541,#1222,#1223);
#1020=AXIS2_PLACEMENT_3D('',#1544,#1225,#1226);
#1021=AXIS2_PLACEMENT_3D('',#1545,#1227,#1228);
#1022=AXIS2_PLACEMENT_3D('',#1549,#1231,#1232);
#1023=AXIS2_PLACEMENT_3D('',#1555,#1236,#1237);
#1024=AXIS2_PLACEMENT_3D('',#1561,#1241,#1242);
#1025=AXIS2_PLACEMENT_3D('',#1565,#1245,#1246);
#1026=AXIS2_PLACEMENT_3D('',#1569,#1249,#1250);
#1027=AXIS2_PLACEMENT_3D('',#1570,#1251,#1252);
#1028=AXIS2_PLACEMENT_3D('',#1575,#1254,#1255);
#1029=AXIS2_PLACEMENT_3D('',#1579,#1257,#1258);
#1030=AXIS2_PLACEMENT_3D('',#1591,#1264,#1265);
#1031=AXIS2_PLACEMENT_3D('',#1602,#1271,#1272);
#1032=AXIS2_PLACEMENT_3D('',#1617,#1275,#1276);
#1033=AXIS2_PLACEMENT_3D('',#1621,#1279,#1280);
#1034=AXIS2_PLACEMENT_3D('',#1625,#1283,#1284);
#1035=AXIS2_PLACEMENT_3D('',#1626,#1285,#1286);
#1036=AXIS2_PLACEMENT_3D('',#1627,#1287,#1288);
#1037=AXIS2_PLACEMENT_3D('',#1628,#1289,#1290);
#1038=AXIS2_PLACEMENT_3D('',#1629,#1291,#1292);
#1039=AXIS2_PLACEMENT_3D('',#1630,#1293,#1294);
#1040=AXIS2_PLACEMENT_3D('',#1631,#1295,#1296);
#1041=AXIS2_PLACEMENT_3D('',#1637,#1297,#1298);
#1042=AXIS2_PLACEMENT_3D('',#1638,#1299,#1300);
#1043=AXIS2_PLACEMENT_3D('',#1639,#1301,#1302);
#1044=AXIS2_PLACEMENT_3D('',#1640,#1303,#1304);
#1045=AXIS2_PLACEMENT_3D('',#1641,#1305,#1306);
#1046=AXIS2_PLACEMENT_3D('',#1642,#1307,#1308);
#1047=AXIS2_PLACEMENT_3D('',#1643,#1309,#1310);
#1048=AXIS2_PLACEMENT_3D('',#1644,#1311,#1312);
#1049=AXIS2_PLACEMENT_3D('',#1645,#1313,#1314);
#1050=AXIS2_PLACEMENT_3D('',#1646,#1315,#1316);
#1051=AXIS2_PLACEMENT_3D('',#1647,#1317,#1318);
#1052=AXIS2_PLACEMENT_3D('',#1648,#1319,#1320);
#1053=AXIS2_PLACEMENT_3D('',#1649,#1321,#1322);
#1054=AXIS2_PLACEMENT_3D('',#1650,#1323,#1324);
#1055=AXIS2_PLACEMENT_3D('',#1651,#1325,#1326);
#1056=AXIS2_PLACEMENT_3D('',#1652,#1327,#1328);
#1057=AXIS2_PLACEMENT_3D('',#1653,#1329,#1330);
#1058=AXIS2_PLACEMENT_3D('',#1654,#1331,#1332);
#1059=AXIS2_PLACEMENT_3D('',#1655,#1333,#1334);
#1060=AXIS2_PLACEMENT_3D('',#1656,#1335,#1336);
#1061=AXIS2_PLACEMENT_3D('',#1657,#1337,#1338);
#1062=AXIS2_PLACEMENT_3D('',#1663,#1339,#1340);
#1063=AXIS2_PLACEMENT_3D('',#1669,#1341,#1342);
#1064=AXIS2_PLACEMENT_3D('',#1670,#1343,#1344);
#1065=AXIS2_PLACEMENT_3D('',#1671,#1345,#1346);
#1066=AXIS2_PLACEMENT_3D('',#1672,#1347,#1348);
#1067=AXIS2_PLACEMENT_3D('',#1673,#1349,#1350);
#1068=AXIS2_PLACEMENT_3D('',#1674,#1351,#1352);
#1069=AXIS2_PLACEMENT_3D('',#1675,#1353,#1354);
#1070=AXIS2_PLACEMENT_3D('',#1676,#1355,#1356);
#1071=AXIS2_PLACEMENT_3D('',#1677,#1357,#1358);
#1072=AXIS2_PLACEMENT_3D('',#1678,#1359,#1360);
#1073=AXIS2_PLACEMENT_3D('',#1679,#1361,#1362);
#1074=AXIS2_PLACEMENT_3D('',#1680,#1363,#1364);
#1075=AXIS2_PLACEMENT_3D('',#1681,#1365,#1366);
#1076=AXIS2_PLACEMENT_3D('',#1682,#1367,#1368);
#1077=AXIS2_PLACEMENT_3D('',#1683,#1369,#1370);
#1078=AXIS2_PLACEMENT_3D('',#1684,#1371,#1372);
#1079=AXIS2_PLACEMENT_3D('',#1685,#1373,#1374);
#1080=AXIS2_PLACEMENT_3D('',#1686,#1375,#1376);
#1081=AXIS2_PLACEMENT_3D('',#1687,#1377,#1378);
#1082=AXIS2_PLACEMENT_3D('',#1688,#1379,#1380);
#1083=AXIS2_PLACEMENT_3D('',#1689,#1381,#1382);
#1084=AXIS2_PLACEMENT_3D('',#1695,#1383,#1384);
#1085=AXIS2_PLACEMENT_3D('',#1696,#1385,#1386);
#1086=AXIS2_PLACEMENT_3D('',#1697,#1387,#1388);
#1087=AXIS2_PLACEMENT_3D('',#1698,#1389,#1390);
#1088=AXIS2_PLACEMENT_3D('',#1699,#1391,#1392);
#1089=AXIS2_PLACEMENT_3D('',#1700,#1393,#1394);
#1090=AXIS2_PLACEMENT_3D('',#1701,#1395,#1396);
#1091=DIRECTION('',(0.,0.,1.));
#1092=DIRECTION('',(1.,0.,0.));
#1093=DIRECTION('',(0.,0.,-1.));
#1094=DIRECTION('',(-1.,0.,0.));
#1095=DIRECTION('',(0.,0.,1.));
#1096=DIRECTION('',(1.,0.,0.));
#1097=DIRECTION('',(0.,0.,-1.));
#1098=DIRECTION('',(0.,0.,1.));
#1099=DIRECTION('',(1.,0.,0.));
#1100=DIRECTION('',(0.,0.,-1.));
#1101=DIRECTION('',(0.,0.,1.));
#1102=DIRECTION('',(1.,0.,0.));
#1103=DIRECTION('',(0.,0.,1.));
#1104=DIRECTION('',(1.,0.,0.));
#1105=DIRECTION('',(0.,0.,1.));
#1106=DIRECTION('',(1.,0.,0.));
#1107=DIRECTION('',(0.,0.,1.));
#1108=DIRECTION('',(1.,0.,0.));
#1109=DIRECTION('',(0.,0.,1.));
#1110=DIRECTION('',(1.,0.,0.));
#1111=DIRECTION('',(-1.,0.,0.));
#1112=DIRECTION('',(0.,0.,1.));
#1113=DIRECTION('',(1.,0.,0.));
#1114=DIRECTION('',(0.,-1.,0.));
#1115=DIRECTION('',(1.,0.,0.));
#1116=DIRECTION('',(0.,0.,1.));
#1117=DIRECTION('',(1.,0.,0.));
#1118=DIRECTION('',(0.,1.,0.));
#1119=DIRECTION('',(0.,0.,1.));
#1120=DIRECTION('',(1.,0.,0.));
#1121=DIRECTION('',(0.,0.,1.));
#1122=DIRECTION('',(1.,0.,0.));
#1123=DIRECTION('',(0.,0.,1.));
#1124=DIRECTION('',(1.,0.,0.));
#1125=DIRECTION('',(0.,1.,0.));
#1126=DIRECTION('',(0.,0.,1.));
#1127=DIRECTION('',(1.,0.,0.));
#1128=DIRECTION('',(1.,0.,0.));
#1129=DIRECTION('',(0.,0.,1.));
#1130=DIRECTION('',(1.,0.,0.));
#1131=DIRECTION('',(0.,1.,0.));
#1132=DIRECTION('',(0.,0.,1.));
#1133=DIRECTION('',(1.,0.,0.));
#1134=DIRECTION('',(-1.,0.,0.));
#1135=DIRECTION('',(0.,0.,1.));
#1136=DIRECTION('',(1.,0.,0.));
#1137=DIRECTION('',(0.,1.,0.));
#1138=DIRECTION('',(0.,0.,1.));
#1139=DIRECTION('',(1.,0.,0.));
#1140=DIRECTION('',(0.,-1.,0.));
#1141=DIRECTION('',(0.,0.,1.));
#1142=DIRECTION('',(1.,0.,0.));
#1143=DIRECTION('',(0.,0.,1.));
#1144=DIRECTION('',(1.,0.,0.));
#1145=DIRECTION('',(0.,0.,-1.));
#1146=DIRECTION('',(0.,0.,1.));
#1147=DIRECTION('',(0.,0.,1.));
#1148=DIRECTION('',(1.,0.,0.));
#1149=DIRECTION('',(0.,0.,1.));
#1150=DIRECTION('',(1.,0.,0.));
#1151=DIRECTION('',(0.,0.,-1.));
#1152=DIRECTION('',(0.,0.,1.));
#1153=DIRECTION('',(1.,0.,0.));
#1154=DIRECTION('',(0.,0.,1.));
#1155=DIRECTION('',(0.,0.,1.));
#1156=DIRECTION('',(1.,0.,0.));
#1157=DIRECTION('',(0.,0.,1.));
#1158=DIRECTION('',(1.,0.,0.));
#1159=DIRECTION('',(0.,0.,1.));
#1160=DIRECTION('',(0.,0.,1.));
#1161=DIRECTION('',(0.,0.,-1.));
#1162=DIRECTION('',(-1.,0.,0.));
#1163=DIRECTION('',(0.,0.,1.));
#1164=DIRECTION('',(1.,0.,0.));
#1165=DIRECTION('',(0.,0.,1.));
#1166=DIRECTION('',(1.,0.,0.));
#1167=DIRECTION('',(0.,0.,1.));
#1168=DIRECTION('',(1.,0.,0.));
#1169=DIRECTION('',(0.,1.,0.));
#1170=DIRECTION('',(0.,0.,1.));
#1171=DIRECTION('',(1.,0.,0.));
#1172=DIRECTION('',(0.,1.,0.));
#1173=DIRECTION('',(0.,0.,1.));
#1174=DIRECTION('',(1.,0.,0.));
#1175=DIRECTION('',(0.,0.,1.));
#1176=DIRECTION('',(1.,0.,0.));
#1177=DIRECTION('',(0.,1.,0.));
#1178=DIRECTION('',(0.,-1.,0.));
#1179=DIRECTION('',(0.,-1.,0.));
#1180=DIRECTION('',(0.,0.,1.));
#1181=DIRECTION('',(1.,0.,0.));
#1182=DIRECTION('',(-1.,0.,0.));
#1183=DIRECTION('',(0.,-1.,0.));
#1184=DIRECTION('',(0.,0.,1.));
#1185=DIRECTION('',(1.,0.,0.));
#1186=DIRECTION('',(0.,-1.,0.));
#1187=DIRECTION('',(0.,0.,1.));
#1188=DIRECTION('',(1.,0.,0.));
#1189=DIRECTION('',(0.,0.,1.));
#1190=DIRECTION('',(1.,0.,0.));
#1191=DIRECTION('',(0.,0.,1.));
#1192=DIRECTION('',(0.,0.,1.));
#1193=DIRECTION('',(0.,0.,-1.));
#1194=DIRECTION('',(-1.,0.,0.));
#1195=DIRECTION('',(0.,0.,-1.));
#1196=DIRECTION('',(0.,0.,1.));
#1197=DIRECTION('',(1.,0.,0.));
#1198=DIRECTION('',(0.,0.,-1.));
#1199=DIRECTION('',(1.,0.,0.));
#1200=DIRECTION('',(0.,0.,-1.));
#1201=DIRECTION('',(0.,0.,-1.));
#1202=DIRECTION('',(0.,-1.,0.));
#1203=DIRECTION('',(0.,-1.,0.));
#1204=DIRECTION('',(0.,0.,-1.));
#1205=DIRECTION('',(-1.,0.,0.));
#1206=DIRECTION('',(0.,0.,-1.));
#1207=DIRECTION('',(0.,0.,-1.));
#1208=DIRECTION('',(-1.,0.,0.));
#1209=DIRECTION('',(0.,0.,1.));
#1210=DIRECTION('',(0.,0.,-1.));
#1211=DIRECTION('',(0.,1.,0.));
#1212=DIRECTION('',(0.,1.,0.));
#1213=DIRECTION('',(0.,0.,1.));
#1214=DIRECTION('',(0.,0.,-1.));
#1215=DIRECTION('',(1.,0.,0.));
#1216=DIRECTION('',(0.,0.,-1.));
#1217=DIRECTION('',(-1.,0.,0.));
#1218=DIRECTION('',(0.,0.,1.));
#1219=DIRECTION('',(0.,1.,0.));
#1220=DIRECTION('',(0.,0.,-1.));
#1221=DIRECTION('',(0.,0.,-1.));
#1222=DIRECTION('',(0.,0.,-1.));
#1223=DIRECTION('',(-1.,0.,0.));
#1224=DIRECTION('',(0.,0.,-1.));
#1225=DIRECTION('',(0.,0.,1.));
#1226=DIRECTION('',(1.,0.,0.));
#1227=DIRECTION('',(1.,0.,0.));
#1228=DIRECTION('',(0.,0.,-1.));
#1229=DIRECTION('',(0.,0.,-1.));
#1230=DIRECTION('',(0.,-1.,0.));
#1231=DIRECTION('',(0.,1.,0.));
#1232=DIRECTION('',(0.,0.,1.));
#1233=DIRECTION('',(1.,0.,0.));
#1234=DIRECTION('',(0.,0.,-1.));
#1235=DIRECTION('',(0.,0.,-1.));
#1236=DIRECTION('',(1.,0.,0.));
#1237=DIRECTION('',(0.,0.,-1.));
#1238=DIRECTION('',(0.,0.,-1.));
#1239=DIRECTION('',(0.,-1.,0.));
#1240=DIRECTION('',(0.,0.,-1.));
#1241=DIRECTION('',(0.,-1.,0.));
#1242=DIRECTION('',(0.,0.,-1.));
#1243=DIRECTION('',(0.,0.,-1.));
#1244=DIRECTION('',(-1.,0.,0.));
#1245=DIRECTION('',(1.,0.,0.));
#1246=DIRECTION('',(0.,0.,-1.));
#1247=DIRECTION('',(0.,-1.,0.));
#1248=DIRECTION('',(0.,0.,-1.));
#1249=DIRECTION('',(0.,0.,1.));
#1250=DIRECTION('',(1.,0.,0.));
#1251=DIRECTION('',(0.,0.,1.));
#1252=DIRECTION('',(1.,0.,0.));
#1253=DIRECTION('',(0.,1.,0.));
#1254=DIRECTION('',(0.,0.,1.));
#1255=DIRECTION('',(1.,0.,0.));
#1256=DIRECTION('',(0.,1.,0.));
#1257=DIRECTION('',(0.,0.,1.));
#1258=DIRECTION('',(1.,0.,0.));
#1259=DIRECTION('',(0.,-1.,0.));
#1260=DIRECTION('',(1.,0.,0.));
#1261=DIRECTION('',(0.,-1.,0.));
#1262=DIRECTION('',(-1.,0.,0.));
#1263=DIRECTION('',(0.,-1.,0.));
#1264=DIRECTION('',(0.,0.,1.));
#1265=DIRECTION('',(1.,0.,0.));
#1266=DIRECTION('',(0.,-1.,0.));
#1267=DIRECTION('',(-1.,0.,0.));
#1268=DIRECTION('',(0.,1.,0.));
#1269=DIRECTION('',(1.,0.,0.));
#1270=DIRECTION('',(0.,1.,0.));
#1271=DIRECTION('',(0.,0.,1.));
#1272=DIRECTION('',(1.,0.,0.));
#1273=DIRECTION('',(0.,0.,1.));
#1274=DIRECTION('',(0.,0.,1.));
#1275=DIRECTION('',(1.,0.,0.));
#1276=DIRECTION('',(0.,0.,-1.));
#1277=DIRECTION('',(0.,0.,-1.));
#1278=DIRECTION('',(0.,1.,0.));
#1279=DIRECTION('',(1.,0.,0.));
#1280=DIRECTION('',(0.,0.,-1.));
#1281=DIRECTION('',(0.,1.,0.));
#1282=DIRECTION('',(0.,0.,-1.));
#1283=DIRECTION('',(0.,-1.,0.));
#1284=DIRECTION('',(0.,0.,-1.));
#1285=DIRECTION('',(0.,1.,0.));
#1286=DIRECTION('',(0.,0.,1.));
#1287=DIRECTION('',(0.,0.,-1.));
#1288=DIRECTION('',(-1.,0.,0.));
#1289=DIRECTION('',(0.,0.,1.));
#1290=DIRECTION('',(1.,0.,0.));
#1291=DIRECTION('',(0.,-5.46369598732853E-15,1.));
#1292=DIRECTION('',(0.,-1.,-5.46369598732853E-15));
#1293=DIRECTION('',(-0.921871981773347,-0.387494579602452,0.));
#1294=DIRECTION('',(0.387494579602452,-0.921871981773347,0.));
#1295=DIRECTION('',(0.,0.,1.));
#1296=DIRECTION('',(1.,0.,0.));
#1297=DIRECTION('',(0.,1.,0.));
#1298=DIRECTION('',(0.,0.,1.));
#1299=DIRECTION('',(0.,1.,0.));
#1300=DIRECTION('',(0.,0.,1.));
#1301=DIRECTION('',(0.,0.,-1.));
#1302=DIRECTION('',(-1.,0.,0.));
#1303=DIRECTION('',(0.,0.,1.));
#1304=DIRECTION('',(1.,0.,0.));
#1305=DIRECTION('',(-1.,0.,0.));
#1306=DIRECTION('',(0.,0.,1.));
#1307=DIRECTION('',(-1.,0.,0.));
#1308=DIRECTION('',(0.,0.,1.));
#1309=DIRECTION('',(1.,0.,0.));
#1310=DIRECTION('',(0.,0.,-1.));
#1311=DIRECTION('',(1.,0.,0.));
#1312=DIRECTION('',(0.,0.,-1.));
#1313=DIRECTION('',(0.,0.,1.));
#1314=DIRECTION('',(1.,0.,0.));
#1315=DIRECTION('',(0.,0.,1.));
#1316=DIRECTION('',(1.,0.,0.));
#1317=DIRECTION('',(0.,1.,0.));
#1318=DIRECTION('',(0.,0.,1.));
#1319=DIRECTION('',(0.,1.,0.));
#1320=DIRECTION('',(0.,0.,1.));
#1321=DIRECTION('',(0.,-1.,0.));
#1322=DIRECTION('',(0.,0.,-1.));
#1323=DIRECTION('',(0.707106781186548,-0.707106781186548,0.));
#1324=DIRECTION('',(0.707106781186548,0.707106781186548,0.));
#1325=DIRECTION('',(1.,0.,0.));
#1326=DIRECTION('',(0.,0.,-1.));
#1327=DIRECTION('',(1.,0.,0.));
#1328=DIRECTION('',(0.,0.,-1.));
#1329=DIRECTION('',(0.,0.,1.));
#1330=DIRECTION('',(1.,0.,0.));
#1331=DIRECTION('',(0.,0.,1.));
#1332=DIRECTION('',(1.,0.,0.));
#1333=DIRECTION('',(0.,1.,0.));
#1334=DIRECTION('',(0.,0.,1.));
#1335=DIRECTION('',(0.,1.,0.));
#1336=DIRECTION('',(0.,0.,1.));
#1337=DIRECTION('',(0.,-1.,0.));
#1338=DIRECTION('',(0.,0.,-1.));
#1339=DIRECTION('',(0.,0.,1.));
#1340=DIRECTION('',(1.,0.,0.));
#1341=DIRECTION('',(0.,-1.,0.));
#1342=DIRECTION('',(0.,0.,-1.));
#1343=DIRECTION('',(0.,-1.,0.));
#1344=DIRECTION('',(0.,0.,-1.));
#1345=DIRECTION('',(0.,0.,-1.));
#1346=DIRECTION('',(-1.,0.,0.));
#1347=DIRECTION('',(0.,0.,1.));
#1348=DIRECTION('',(1.,0.,0.));
#1349=DIRECTION('',(1.,0.,0.));
#1350=DIRECTION('',(0.,0.,-1.));
#1351=DIRECTION('',(1.,0.,0.));
#1352=DIRECTION('',(0.,0.,-1.));
#1353=DIRECTION('',(-1.,0.,0.));
#1354=DIRECTION('',(0.,0.,1.));
#1355=DIRECTION('',(-0.707106781186548,-0.707106781186548,0.));
#1356=DIRECTION('',(-0.707106781186548,0.707106781186548,0.));
#1357=DIRECTION('',(0.,-1.,0.));
#1358=DIRECTION('',(0.,0.,-1.));
#1359=DIRECTION('',(0.,-1.,0.));
#1360=DIRECTION('',(0.,0.,-1.));
#1361=DIRECTION('',(0.,0.,1.));
#1362=DIRECTION('',(1.,0.,0.));
#1363=DIRECTION('',(0.,0.,1.));
#1364=DIRECTION('',(1.,0.,0.));
#1365=DIRECTION('',(1.,0.,0.));
#1366=DIRECTION('',(0.,0.,-1.));
#1367=DIRECTION('',(1.,0.,0.));
#1368=DIRECTION('',(0.,0.,-1.));
#1369=DIRECTION('',(-1.,0.,0.));
#1370=DIRECTION('',(0.,0.,1.));
#1371=DIRECTION('',(-1.,0.,0.));
#1372=DIRECTION('',(0.,0.,1.));
#1373=DIRECTION('',(0.,0.,-1.));
#1374=DIRECTION('',(-1.,0.,0.));
#1375=DIRECTION('',(0.,0.,1.));
#1376=DIRECTION('',(1.,0.,0.));
#1377=DIRECTION('',(0.,-1.,0.));
#1378=DIRECTION('',(0.,0.,-1.));
#1379=DIRECTION('',(0.,-1.,0.));
#1380=DIRECTION('',(0.,0.,-1.));
#1381=DIRECTION('',(0.,1.,0.));
#1382=DIRECTION('',(0.,0.,1.));
#1383=DIRECTION('',(0.,-1.,0.));
#1384=DIRECTION('',(0.,0.,-1.));
#1385=DIRECTION('',(0.,-1.,0.));
#1386=DIRECTION('',(0.,0.,-1.));
#1387=DIRECTION('',(0.,0.,1.));
#1388=DIRECTION('',(1.,0.,0.));
#1389=DIRECTION('',(-0.921871981773346,0.387494579602456,-4.63556670350831E-15));
#1390=DIRECTION('',(-0.387494579602456,-0.921871981773346,0.));
#1391=DIRECTION('',(0.,5.46369598732853E-15,1.));
#1392=DIRECTION('',(0.,-1.,5.46369598732853E-15));
#1393=DIRECTION('',(0.,0.,1.));
#1394=DIRECTION('',(1.,0.,0.));
#1395=DIRECTION('',(0.,0.,-1.));
#1396=DIRECTION('',(-1.,0.,0.));
#1397=CARTESIAN_POINT('',(0.,0.,0.));
#1398=CARTESIAN_POINT('',(0.020907375,2.42861286636753E-17,0.015875));
#1399=CARTESIAN_POINT('',(0.020907375,2.42861286636753E-17,0.01524));
#1400=CARTESIAN_POINT('',(0.017097375,-0.0176269411980639,0.01524));
#1401=CARTESIAN_POINT('',(0.0139192977514493,-0.0166250393193005,0.01524));
#1402=CARTESIAN_POINT('',(0.0139192977514493,-0.0166250393193005,0.015875));
#1403=CARTESIAN_POINT('',(0.0139192977514493,-0.0166250393193005,0.));
#1404=CARTESIAN_POINT('',(0.020907375,2.42861286636753E-17,0.));
#1405=CARTESIAN_POINT('',(0.017097375,-0.0176269411980639,0.));
#1406=CARTESIAN_POINT('',(0.017097375,-0.0176269411980639,0.015875));
#1407=CARTESIAN_POINT('',(0.,0.,0.0079375));
#1408=CARTESIAN_POINT('',(0.,2.38738770259781E-18,0.0079375));
#1409=CARTESIAN_POINT('',(0.0209114710800611,0.0329067242105283,0.0079375));
#1410=CARTESIAN_POINT('',(0.0195374895574878,-0.0337406079197019,0.0079375));
#1411=CARTESIAN_POINT('',(0.,2.38738770259781E-18,0.0079375));
#1412=CARTESIAN_POINT('',(0.024717375,-0.0301528355898641,0.0079375));
#1413=CARTESIAN_POINT('',(0.,2.38738770259781E-18,0.0079375));
#1414=CARTESIAN_POINT('',(0.024717375,0.0301528355898641,0.0079375));
#1415=CARTESIAN_POINT('',(0.,2.38738770259781E-18,0.0079375));
#1416=CARTESIAN_POINT('',(0.,0.0329067242105283,0.0079375));
#1417=CARTESIAN_POINT('',(0.0202764710800611,0.0329067242105283,0.0079375));
#1418=CARTESIAN_POINT('',(0.017732375,0.0329067242105283,0.0079375));
#1419=CARTESIAN_POINT('',(0.0202764710800611,0.0322717242105283,0.0079375));
#1420=CARTESIAN_POINT('',(0.0209114710800611,0.0322717242105283,0.0079375));
#1421=CARTESIAN_POINT('',(0.0209114710800611,0.,0.0079375));
#1422=CARTESIAN_POINT('',(0.0209114710800611,0.0301528355898641,0.0079375));
#1423=CARTESIAN_POINT('',(0.,0.0301528355898641,0.0079375));
#1424=CARTESIAN_POINT('',(0.024082375,0.0301528355898641,0.0079375));
#1425=CARTESIAN_POINT('',(0.024082375,0.0295178355898641,0.0079375));
#1426=CARTESIAN_POINT('',(0.024717375,0.0295178355898641,0.0079375));
#1427=CARTESIAN_POINT('',(0.024717375,0.,0.0079375));
#1428=CARTESIAN_POINT('',(0.024717375,0.0265279135131163,0.0079375));
#1429=CARTESIAN_POINT('',(0.,4.552136646632E-18,0.0079375));
#1430=CARTESIAN_POINT('',(0.0341164779328018,0.0122778155919791,0.0079375));
#1431=CARTESIAN_POINT('',(0.020907375,-2.09264814473987E-18,0.0079375));
#1432=CARTESIAN_POINT('',(0.0341164779328018,-0.0122778155919791,0.0079375));
#1433=CARTESIAN_POINT('',(0.,4.552136646632E-18,0.0079375));
#1434=CARTESIAN_POINT('',(0.024717375,-0.0265279135131163,0.0079375));
#1435=CARTESIAN_POINT('',(0.024717375,0.,0.0079375));
#1436=CARTESIAN_POINT('',(0.024717375,-0.0295178355898641,0.0079375));
#1437=CARTESIAN_POINT('',(0.024082375,-0.0295178355898641,0.0079375));
#1438=CARTESIAN_POINT('',(0.024082375,-0.0301528355898641,0.0079375));
#1439=CARTESIAN_POINT('',(0.,-0.0301528355898641,0.0079375));
#1440=CARTESIAN_POINT('',(0.0201366662618375,-0.0301528355898641,0.0079375));
#1441=CARTESIAN_POINT('',(0.,4.552136646632E-18,0.0079375));
#1442=CARTESIAN_POINT('',(0.0195374895574878,-0.0305444810733634,0.0079375));
#1443=CARTESIAN_POINT('',(0.0195374895574878,0.,0.0079375));
#1444=CARTESIAN_POINT('',(0.0195374895574878,-0.0331056079197019,0.0079375));
#1445=CARTESIAN_POINT('',(0.0189024895574878,-0.0331056079197019,0.0079375));
#1446=CARTESIAN_POINT('',(0.0189024895574878,-0.0337406079197019,0.0079375));
#1447=CARTESIAN_POINT('',(0.,-0.0337406079197019,0.0079375));
#1448=CARTESIAN_POINT('',(0.017732375,-0.0337406079197019,0.0079375));
#1449=CARTESIAN_POINT('',(0.017732375,-0.0331056079197019,0.0079375));
#1450=CARTESIAN_POINT('',(0.017097375,-0.0331056079197019,0.0079375));
#1451=CARTESIAN_POINT('',(0.017097375,0.,0.0079375));
#1452=CARTESIAN_POINT('',(0.017097375,-0.0319743426884647,0.0079375));
#1453=CARTESIAN_POINT('',(0.,4.552136646632E-18,0.0079375));
#1454=CARTESIAN_POINT('',(0.017097375,0.0319743426884647,0.0079375));
#1455=CARTESIAN_POINT('',(0.017097375,0.,0.0079375));
#1456=CARTESIAN_POINT('',(0.017097375,0.0322717242105283,0.0079375));
#1457=CARTESIAN_POINT('',(0.017732375,0.0322717242105283,0.0079375));
#1458=CARTESIAN_POINT('',(0.,4.552136646632E-18,-0.0174625));
#1459=CARTESIAN_POINT('',(0.0341164779328018,0.0122778155919791,0.0079375));
#1460=CARTESIAN_POINT('',(0.0341164779328018,0.0122778155919791,0.));
#1461=CARTESIAN_POINT('',(0.024717375,0.0265279135131163,-0.0174625));
#1462=CARTESIAN_POINT('',(0.024717375,0.0265279135131163,0.));
#1463=CARTESIAN_POINT('',(0.,4.552136646632E-18,0.));
#1464=CARTESIAN_POINT('',(0.,4.552136646632E-18,-0.0174625));
#1465=CARTESIAN_POINT('',(0.0341164779328018,-0.0122778155919791,0.0079375));
#1466=CARTESIAN_POINT('',(0.0341164779328018,-0.0122778155919791,0.));
#1467=CARTESIAN_POINT('',(0.,4.552136646632E-18,0.));
#1468=CARTESIAN_POINT('',(0.024717375,-0.0265279135131163,0.));
#1469=CARTESIAN_POINT('',(0.024717375,-0.0265279135131163,-0.0174625));
#1470=CARTESIAN_POINT('',(0.,4.552136646632E-18,-0.0174625));
#1471=CARTESIAN_POINT('',(0.,4.552136646632E-18,0.));
#1472=CARTESIAN_POINT('',(0.017097375,0.0319743426884647,0.));
#1473=CARTESIAN_POINT('',(0.017097375,-0.0319743426884647,0.));
#1474=CARTESIAN_POINT('',(0.017097375,0.0319743426884647,-0.0174625));
#1475=CARTESIAN_POINT('',(0.017097375,-0.0319743426884647,-0.0174625));
#1476=CARTESIAN_POINT('',(0.,2.38738770259781E-18,0.0079375));
#1477=CARTESIAN_POINT('',(0.,2.38738770259781E-18,0.));
#1478=CARTESIAN_POINT('',(0.038989,2.38738770259781E-18,0.));
#1479=CARTESIAN_POINT('',(0.,0.,0.));
#1480=CARTESIAN_POINT('',(0.0141653568094969,-0.0160396506108744,0.));
#1481=CARTESIAN_POINT('',(0.0135303568094969,-0.0160396506108744,0.));
#1482=CARTESIAN_POINT('',(0.0135303568094969,0.,0.));
#1483=CARTESIAN_POINT('',(0.0135303568094969,-0.0118634102439807,0.));
#1484=CARTESIAN_POINT('',(0.020907375,-1.23723235553544E-18,0.));
#1485=CARTESIAN_POINT('',(0.0135303568094969,0.0118634102439807,0.));
#1486=CARTESIAN_POINT('',(0.0135303568094969,0.,0.));
#1487=CARTESIAN_POINT('',(0.0135303568094969,0.0160396506108745,0.));
#1488=CARTESIAN_POINT('',(0.0141653568094969,0.0160396506108745,0.));
#1489=CARTESIAN_POINT('',(0.0139192977514493,0.0166250393193005,0.));
#1490=CARTESIAN_POINT('',(0.020907375,2.42861286636753E-17,0.));
#1491=CARTESIAN_POINT('',(0.017097375,0.0176269411980639,0.));
#1492=CARTESIAN_POINT('',(0.017097375,0.0315297799001962,0.));
#1493=CARTESIAN_POINT('',(0.017097375,-0.0319467217547831,0.));
#1494=CARTESIAN_POINT('',(0.0195374895574878,-0.0319467217547831,0.));
#1495=CARTESIAN_POINT('',(0.0195374895574878,-0.0301528355898641,0.));
#1496=CARTESIAN_POINT('',(0.0195374895574878,-0.0305444810733634,0.));
#1497=CARTESIAN_POINT('',(0.,4.552136646632E-18,0.));
#1498=CARTESIAN_POINT('',(0.0201366662618376,-0.0301528355898641,0.));
#1499=CARTESIAN_POINT('',(0.0221274322787439,-0.0301528355898641,0.));
#1500=CARTESIAN_POINT('',(0.024717375,-0.0238898883939639,0.));
#1501=CARTESIAN_POINT('',(0.024717375,-0.0176269411980639,0.));
#1502=CARTESIAN_POINT('',(0.020907375,-2.09264814473987E-18,0.));
#1503=CARTESIAN_POINT('',(0.024717375,0.0238898883939639,0.));
#1504=CARTESIAN_POINT('',(0.024717375,0.0176269411980639,0.));
#1505=CARTESIAN_POINT('',(0.020907375,-2.09264814473987E-18,0.));
#1506=CARTESIAN_POINT('',(0.,4.552136646632E-18,-0.0174625));
#1507=CARTESIAN_POINT('',(0.0195374895574878,-0.0305444810733634,-0.0174625));
#1508=CARTESIAN_POINT('',(0.0201366662618375,-0.0301528355898641,-0.0174625));
#1509=CARTESIAN_POINT('',(0.020907375,-2.09264814473987E-18,0.015875));
#1510=CARTESIAN_POINT('',(0.024717375,0.0176269411980639,0.015875));
#1511=CARTESIAN_POINT('',(0.024717375,0.0176269411980639,0.01524));
#1512=CARTESIAN_POINT('',(0.020907375,-2.09264814473987E-18,0.01524));
#1513=CARTESIAN_POINT('',(0.024717375,-0.0176269411980639,0.01524));
#1514=CARTESIAN_POINT('',(0.024717375,-0.0176269411980639,0.015875));
#1515=CARTESIAN_POINT('',(0.024717375,0.0238898883939639,0.015875));
#1516=CARTESIAN_POINT('',(0.024717375,0.0295178355898641,0.015875));
#1517=CARTESIAN_POINT('',(0.024717375,0.0295178355898641,0.01524));
#1518=CARTESIAN_POINT('',(0.024717375,0.0238898883939639,0.01524));
#1519=CARTESIAN_POINT('',(0.0228144230400305,0.0301528355898641,0.015875));
#1520=CARTESIAN_POINT('',(0.024717375,0.0301528355898641,0.01524));
#1521=CARTESIAN_POINT('',(0.0209114710800611,0.0301528355898641,0.01524));
#1522=CARTESIAN_POINT('',(0.024082375,0.0301528355898641,0.01524));
#1523=CARTESIAN_POINT('',(0.024082375,0.0301528355898641,0.0079375));
#1524=CARTESIAN_POINT('',(0.0209114710800611,0.0301528355898641,0.015875));
#1525=CARTESIAN_POINT('',(0.0209114710800611,0.0315297799001962,0.015875));
#1526=CARTESIAN_POINT('',(0.0209114710800611,0.0322717242105283,0.015875));
#1527=CARTESIAN_POINT('',(0.0209114710800611,0.0322717242105283,0.01524));
#1528=CARTESIAN_POINT('',(0.0209114710800611,0.0301528355898641,0.01524));
#1529=CARTESIAN_POINT('',(0.0190044230400305,0.0329067242105283,0.015875));
#1530=CARTESIAN_POINT('',(0.017732375,0.0329067242105283,0.015875));
#1531=CARTESIAN_POINT('',(0.017732375,0.0329067242105283,0.01524));
#1532=CARTESIAN_POINT('',(0.0190044230400305,0.0329067242105283,0.01524));
#1533=CARTESIAN_POINT('',(0.0202764710800611,0.0329067242105283,0.01524));
#1534=CARTESIAN_POINT('',(0.0202764710800611,0.0329067242105283,0.0079375));
#1535=CARTESIAN_POINT('',(0.017097375,0.0315297799001962,0.015875));
#1536=CARTESIAN_POINT('',(0.017097375,0.0315297799001962,0.01524));
#1537=CARTESIAN_POINT('',(0.017097375,0.0176269411980639,0.01524));
#1538=CARTESIAN_POINT('',(0.017097375,0.0322717242105283,0.01524));
#1539=CARTESIAN_POINT('',(0.017097375,0.0322717242105283,0.015875));
#1540=CARTESIAN_POINT('',(0.017097375,0.0176269411980639,0.015875));
#1541=CARTESIAN_POINT('',(0.020907375,2.42861286636753E-17,0.015875));
#1542=CARTESIAN_POINT('',(0.0139192977514493,0.0166250393193005,0.015875));
#1543=CARTESIAN_POINT('',(0.0139192977514493,0.0166250393193005,0.01524));
#1544=CARTESIAN_POINT('',(0.020907375,2.42861286636753E-17,0.01524));
#1545=CARTESIAN_POINT('',(0.017097375,-0.0319467217547831,0.015875));
#1546=CARTESIAN_POINT('',(0.017097375,-0.0331056079197019,0.015875));
#1547=CARTESIAN_POINT('',(0.017097375,-0.0331056079197019,0.01524));
#1548=CARTESIAN_POINT('',(0.017097375,-0.0176269411980639,0.01524));
#1549=CARTESIAN_POINT('',(0.0183174322787439,-0.0337406079197019,0.015875));
#1550=CARTESIAN_POINT('',(0.017097375,-0.0337406079197019,0.01524));
#1551=CARTESIAN_POINT('',(0.0189024895574878,-0.0337406079197019,0.01524));
#1552=CARTESIAN_POINT('',(0.017732375,-0.0337406079197019,0.01524));
#1553=CARTESIAN_POINT('',(0.017732375,-0.0337406079197019,0.015875));
#1554=CARTESIAN_POINT('',(0.0189024895574878,-0.0337406079197019,0.015875));
#1555=CARTESIAN_POINT('',(0.0195374895574878,-0.0319467217547831,0.015875));
#1556=CARTESIAN_POINT('',(0.0195374895574878,-0.0301528355898641,0.015875));
#1557=CARTESIAN_POINT('',(0.0195374895574878,-0.0301528355898641,0.01524));
#1558=CARTESIAN_POINT('',(0.0195374895574878,-0.0319467217547831,0.01524));
#1559=CARTESIAN_POINT('',(0.0195374895574878,-0.0331056079197019,0.01524));
#1560=CARTESIAN_POINT('',(0.0195374895574878,-0.0331056079197019,0.0079375));
#1561=CARTESIAN_POINT('',(0.0221274322787439,-0.0301528355898641,0.015875));
#1562=CARTESIAN_POINT('',(0.024082375,-0.0301528355898641,0.015875));
#1563=CARTESIAN_POINT('',(0.024082375,-0.0301528355898641,0.01524));
#1564=CARTESIAN_POINT('',(0.0221274322787439,-0.0301528355898641,0.01524));
#1565=CARTESIAN_POINT('',(0.024717375,-0.0238898883939639,0.015875));
#1566=CARTESIAN_POINT('',(0.024717375,-0.0238898883939639,0.01524));
#1567=CARTESIAN_POINT('',(0.024717375,-0.0295178355898641,0.01524));
#1568=CARTESIAN_POINT('',(0.024717375,-0.0295178355898641,0.015875));
#1569=CARTESIAN_POINT('',(0.0209311875,-0.000416941854586829,0.015875));
#1570=CARTESIAN_POINT('',(0.020907375,2.42861286636753E-17,0.015875));
#1571=CARTESIAN_POINT('',(0.017732375,0.0171068575723305,0.015875));
#1572=CARTESIAN_POINT('',(0.0141653568094969,0.0160396506108745,0.015875));
#1573=CARTESIAN_POINT('',(0.0141653568094969,0.0118634102439807,0.015875));
#1574=CARTESIAN_POINT('',(0.0141653568094969,0.0122354440343996,0.015875));
#1575=CARTESIAN_POINT('',(0.020907375,-1.23723235553544E-18,0.015875));
#1576=CARTESIAN_POINT('',(0.0141653568094969,-0.0122354440343996,0.015875));
#1577=CARTESIAN_POINT('',(0.0141653568094969,-0.0164561465300047,0.015875));
#1578=CARTESIAN_POINT('',(0.0141653568094969,-0.0160396506108744,0.015875));
#1579=CARTESIAN_POINT('',(0.020907375,2.42861286636753E-17,0.015875));
#1580=CARTESIAN_POINT('',(0.017732375,-0.0171068575723305,0.015875));
#1581=CARTESIAN_POINT('',(0.017732375,-0.0337406079197019,0.015875));
#1582=CARTESIAN_POINT('',(0.017732375,-0.0331056079197019,0.015875));
#1583=CARTESIAN_POINT('',(0.0195374895574878,-0.0331056079197019,0.015875));
#1584=CARTESIAN_POINT('',(0.0189024895574878,-0.0331056079197019,0.015875));
#1585=CARTESIAN_POINT('',(0.0189024895574878,-0.000416941854586829,0.015875));
#1586=CARTESIAN_POINT('',(0.0189024895574878,-0.0295178355898641,0.015875));
#1587=CARTESIAN_POINT('',(0.0209311875,-0.0295178355898641,0.015875));
#1588=CARTESIAN_POINT('',(0.024082375,-0.0295178355898641,0.015875));
#1589=CARTESIAN_POINT('',(0.024082375,-0.000416941854586829,0.015875));
#1590=CARTESIAN_POINT('',(0.024082375,-0.0171068575723305,0.015875));
#1591=CARTESIAN_POINT('',(0.020907375,-2.09264814473987E-18,0.015875));
#1592=CARTESIAN_POINT('',(0.024082375,0.0171068575723305,0.015875));
#1593=CARTESIAN_POINT('',(0.024082375,-0.000416941854586829,0.015875));
#1594=CARTESIAN_POINT('',(0.024082375,0.0295178355898641,0.015875));
#1595=CARTESIAN_POINT('',(0.0209114710800611,0.0295178355898641,0.015875));
#1596=CARTESIAN_POINT('',(0.0202764710800611,0.0295178355898641,0.015875));
#1597=CARTESIAN_POINT('',(0.0202764710800611,0.0329067242105283,0.015875));
#1598=CARTESIAN_POINT('',(0.0202764710800611,0.0322717242105283,0.015875));
#1599=CARTESIAN_POINT('',(0.0209311875,0.0322717242105283,0.015875));
#1600=CARTESIAN_POINT('',(0.017732375,0.0322717242105283,0.015875));
#1601=CARTESIAN_POINT('',(0.017732375,-0.000416941854586829,0.015875));
#1602=CARTESIAN_POINT('',(0.020907375,-1.23723235553544E-18,-0.009525));
#1603=CARTESIAN_POINT('',(0.0141653568094969,0.0122354440343996,0.015875));
#1604=CARTESIAN_POINT('',(0.0140066772219183,0.0121480078397745,0.015875));
#1605=CARTESIAN_POINT('',(0.0136975293626956,0.0119684083429103,0.0157616686097224));
#1606=CARTESIAN_POINT('',(0.0135303568094969,0.0118634102439807,0.0154220396918827));
#1607=CARTESIAN_POINT('',(0.0135303568094969,0.0118634102439807,0.01524));
#1608=CARTESIAN_POINT('',(0.0135303568094969,0.0118634102439807,0.01524));
#1609=CARTESIAN_POINT('',(0.0135303568094969,0.0118634102439807,-0.009525));
#1610=CARTESIAN_POINT('',(0.0135303568094969,-0.0118634102439807,-0.009525));
#1611=CARTESIAN_POINT('',(0.0135303568094969,-0.0118634102439807,0.01524));
#1612=CARTESIAN_POINT('',(0.0135303568094969,-0.0118634102439807,0.01524));
#1613=CARTESIAN_POINT('',(0.0135303568094969,-0.0118634102439807,0.015421377733339));
#1614=CARTESIAN_POINT('',(0.0136951813566636,-0.0119670117176314,0.015759984700508));
#1615=CARTESIAN_POINT('',(0.0140070481993494,-0.0121482122570872,0.015875));
#1616=CARTESIAN_POINT('',(0.0141653568094969,-0.0122354440343996,0.015875));
#1617=CARTESIAN_POINT('',(0.0135303568094969,0.00237756129354239,-0.009525));
#1618=CARTESIAN_POINT('',(0.0135303568094969,-0.0160396506108744,-0.009525));
#1619=CARTESIAN_POINT('',(0.0135303568094969,-0.0160396506108744,0.01524));
#1620=CARTESIAN_POINT('',(0.0135303568094969,-0.0118634102439807,0.01524));
#1621=CARTESIAN_POINT('',(0.0135303568094969,0.00237756129354239,-0.009525));
#1622=CARTESIAN_POINT('',(0.0135303568094969,0.0164561465300047,0.01524));
#1623=CARTESIAN_POINT('',(0.0135303568094969,0.0160396506108745,0.01524));
#1624=CARTESIAN_POINT('',(0.0135303568094969,0.0160396506108745,-0.009525));
#1625=CARTESIAN_POINT('',(0.0141653568094969,0.00237756129354239,0.01524));
#1626=CARTESIAN_POINT('',(0.0141653568094969,0.0160396506108745,0.01524));
#1627=CARTESIAN_POINT('',(0.0141653568094969,0.0160396506108745,0.015875));
#1628=CARTESIAN_POINT('',(0.0141653568094969,0.0160396506108745,0.01524));
#1629=CARTESIAN_POINT('',(0.0141653568094969,0.0160396506108745,0.01524));
#1630=CARTESIAN_POINT('',(0.0141653568094969,0.0160396506108745,0.01524));
#1631=CARTESIAN_POINT('',(0.020907375,2.42861286636753E-17,0.01524));
#1632=CARTESIAN_POINT('',(0.017097375,0.0176269411980639,0.01524));
#1633=CARTESIAN_POINT('',(0.017097375,0.0176269411980639,0.0154336915979779));
#1634=CARTESIAN_POINT('',(0.0172856665618307,0.0174752995211365,0.0157803969645705));
#1635=CARTESIAN_POINT('',(0.0175858396317289,0.0172286871453244,0.015875));
#1636=CARTESIAN_POINT('',(0.017732375,0.0171068575723305,0.015875));
#1637=CARTESIAN_POINT('',(0.017732375,0.0315297799001962,0.01524));
#1638=CARTESIAN_POINT('',(0.017732375,0.0322717242105283,0.01524));
#1639=CARTESIAN_POINT('',(0.017732375,0.0322717242105283,0.015875));
#1640=CARTESIAN_POINT('',(0.017732375,0.0322717242105283,0.01524));
#1641=CARTESIAN_POINT('',(0.017732375,0.0322717242105283,0.01524));
#1642=CARTESIAN_POINT('',(0.017732375,0.0322717242105283,0.01524));
#1643=CARTESIAN_POINT('',(0.0190044230400305,0.0322717242105283,0.01524));
#1644=CARTESIAN_POINT('',(0.0202764710800611,0.0322717242105283,0.01524));
#1645=CARTESIAN_POINT('',(0.0202764710800611,0.0322717242105283,0.015875));
#1646=CARTESIAN_POINT('',(0.0202764710800611,0.0322717242105283,0.01524));
#1647=CARTESIAN_POINT('',(0.0202764710800611,0.0322717242105283,0.01524));
#1648=CARTESIAN_POINT('',(0.0202764710800611,0.0322717242105283,0.01524));
#1649=CARTESIAN_POINT('',(0.0202764710800611,-0.000416941854586829,0.01524));
#1650=CARTESIAN_POINT('',(0.0202764710800611,0.0295178355898641,0.01524));
#1651=CARTESIAN_POINT('',(0.0209311875,0.0295178355898641,0.01524));
#1652=CARTESIAN_POINT('',(0.024082375,0.0295178355898641,0.01524));
#1653=CARTESIAN_POINT('',(0.024082375,0.0295178355898641,0.015875));
#1654=CARTESIAN_POINT('',(0.024082375,0.0295178355898641,0.01524));
#1655=CARTESIAN_POINT('',(0.024082375,0.0295178355898641,0.01524));
#1656=CARTESIAN_POINT('',(0.024082375,0.0295178355898641,0.01524));
#1657=CARTESIAN_POINT('',(0.024082375,0.0238898883939639,0.01524));
#1658=CARTESIAN_POINT('',(0.024717375,0.0176269411980639,0.01524));
#1659=CARTESIAN_POINT('',(0.024717375,0.0176269411980639,0.0154336915979779));
#1660=CARTESIAN_POINT('',(0.0245290834381698,0.0174752995211359,0.0157803969645705));
#1661=CARTESIAN_POINT('',(0.0242289103682702,0.0172286871453255,0.015875));
#1662=CARTESIAN_POINT('',(0.024082375,0.0171068575723305,0.015875));
#1663=CARTESIAN_POINT('',(0.020907375,-2.09264814473987E-18,0.01524));
#1664=CARTESIAN_POINT('',(0.024717375,-0.0176269411980639,0.01524));
#1665=CARTESIAN_POINT('',(0.024717375,-0.0176269411980639,0.0154336915979779));
#1666=CARTESIAN_POINT('',(0.0245290834381698,-0.0174752995211359,0.0157803969645705));
#1667=CARTESIAN_POINT('',(0.0242289103682702,-0.0172286871453255,0.015875));
#1668=CARTESIAN_POINT('',(0.024082375,-0.0171068575723305,0.015875));
#1669=CARTESIAN_POINT('',(0.024082375,-0.0238898883939639,0.01524));
#1670=CARTESIAN_POINT('',(0.024082375,-0.0295178355898641,0.01524));
#1671=CARTESIAN_POINT('',(0.024082375,-0.0295178355898641,0.015875));
#1672=CARTESIAN_POINT('',(0.024082375,-0.0295178355898641,0.01524));
#1673=CARTESIAN_POINT('',(0.024082375,-0.0295178355898641,0.01524));
#1674=CARTESIAN_POINT('',(0.024082375,-0.0295178355898641,0.01524));
#1675=CARTESIAN_POINT('',(0.0221274322787439,-0.0295178355898641,0.01524));
#1676=CARTESIAN_POINT('',(0.0189024895574878,-0.0295178355898641,0.01524));
#1677=CARTESIAN_POINT('',(0.0189024895574878,-0.0319467217547831,0.01524));
#1678=CARTESIAN_POINT('',(0.0189024895574878,-0.0331056079197019,0.01524));
#1679=CARTESIAN_POINT('',(0.0189024895574878,-0.0331056079197019,0.015875));
#1680=CARTESIAN_POINT('',(0.0189024895574878,-0.0331056079197019,0.01524));
#1681=CARTESIAN_POINT('',(0.0189024895574878,-0.0331056079197019,0.01524));
#1682=CARTESIAN_POINT('',(0.0189024895574878,-0.0331056079197019,0.01524));
#1683=CARTESIAN_POINT('',(0.0209311875,-0.0331056079197019,0.01524));
#1684=CARTESIAN_POINT('',(0.017732375,-0.0331056079197019,0.01524));
#1685=CARTESIAN_POINT('',(0.017732375,-0.0331056079197019,0.015875));
#1686=CARTESIAN_POINT('',(0.017732375,-0.0331056079197019,0.01524));
#1687=CARTESIAN_POINT('',(0.017732375,-0.0331056079197019,0.01524));
#1688=CARTESIAN_POINT('',(0.017732375,-0.0331056079197019,0.01524));
#1689=CARTESIAN_POINT('',(0.017732375,-0.000416941854586829,0.01524));
#1690=CARTESIAN_POINT('',(0.017097375,-0.0176269411980639,0.01524));
#1691=CARTESIAN_POINT('',(0.017097375,-0.0176269411980639,0.0154336915979779));
#1692=CARTESIAN_POINT('',(0.0172856665618307,-0.0174752995211365,0.0157803969645705));
#1693=CARTESIAN_POINT('',(0.0175858396317289,-0.0172286871453243,0.015875));
#1694=CARTESIAN_POINT('',(0.017732375,-0.0171068575723305,0.015875));
#1695=CARTESIAN_POINT('',(0.0141653568094969,0.00237756129354239,0.01524));
#1696=CARTESIAN_POINT('',(0.0141653568094969,-0.0160396506108744,0.01524));
#1697=CARTESIAN_POINT('',(0.020907375,2.42861286636753E-17,0.01524));
#1698=CARTESIAN_POINT('',(0.0141653568094969,-0.0160396506108745,0.01524));
#1699=CARTESIAN_POINT('',(0.0141653568094969,-0.0160396506108745,0.01524));
#1700=CARTESIAN_POINT('',(0.0141653568094969,-0.0160396506108744,0.01524));
#1701=CARTESIAN_POINT('',(0.0141653568094969,-0.0160396506108744,0.015875));
#1702=MECHANICAL_DESIGN_GEOMETRIC_PRESENTATION_REPRESENTATION('',(#964),
#1703);
#1703=(
GEOMETRIC_REPRESENTATION_CONTEXT(3)
GLOBAL_UNCERTAINTY_ASSIGNED_CONTEXT((#1704))
GLOBAL_UNIT_ASSIGNED_CONTEXT((#1707,#1706,#1705))
REPRESENTATION_CONTEXT('Part 1','TOP_LEVEL_ASSEMBLY_PART')
);
#1704=UNCERTAINTY_MEASURE_WITH_UNIT(LENGTH_MEASURE(2.E-5),#1707,
'DISTANCE_ACCURACY_VALUE','Maximum Tolerance applied to model');
#1705=(
NAMED_UNIT(*)
SI_UNIT($,.STERADIAN.)
SOLID_ANGLE_UNIT()
);
#1706=(
NAMED_UNIT(*)
PLANE_ANGLE_UNIT()
SI_UNIT($,.RADIAN.)
);
#1707=(
LENGTH_UNIT()
NAMED_UNIT(*)
SI_UNIT($,.METRE.)
);
#1708=PRODUCT_DEFINITION_SHAPE('','',#1709);
#1709=PRODUCT_DEFINITION('','',#1711,#1710);
#1710=PRODUCT_DEFINITION_CONTEXT('',#1717,'design');
#1711=PRODUCT_DEFINITION_FORMATION_WITH_SPECIFIED_SOURCE('','',#1713,
 .NOT_KNOWN.);
#1712=PRODUCT_RELATED_PRODUCT_CATEGORY('','',(#1713));
#1713=PRODUCT('Part 1','Part 1','Part 1',(#1715));
#1714=PRODUCT_CATEGORY('','');
#1715=PRODUCT_CONTEXT('',#1717,'mechanical');
#1716=APPLICATION_PROTOCOL_DEFINITION('international standard',
'ap242_managed_model_based_3d_engineering',2011,#1717);
#1717=APPLICATION_CONTEXT('managed model based 3d engineering');
ENDSEC;
END-ISO-10303-21;
