ISO-10303-21;
HEADER;
/* Generated by software containing ST-Developer
 * from STEP Tools, Inc. (www.steptools.com) 
 */
/* OPTION: using custom renumber hook */

FILE_DESCRIPTION(
/* description */ ('STEP AP242',
'CAx-IF Rec.Pracs.---Representation and Presentation of Product Manufa
cturing Information (PMI)---4.0---2014-10-13',
'CAx-IF Rec.Pracs.---3D Tessellated Geometry---0.4---2014-09-14','2;1'),

/* implementation_level */ '2;1');

FILE_NAME(
/* name */ '680593c5c552f437d0c314ab',
/* time_stamp */ '2025-04-21T00:39:34Z',
/* author */ (''),
/* organization */ (''),
/* preprocessor_version */ 'ST-DEVELOPER v20',
/* originating_system */ 'ONSHAPE BY PTC INC, 1.196',
/* authorisation */ '  ');

FILE_SCHEMA (('AP242_MANAGED_MODEL_BASED_3D_ENGINEERING_MIM_LF { 1 0 10303 442 1 1 4 }'));
ENDSEC;

DATA;
#10=SHAPE_REPRESENTATION_RELATIONSHIP('','',#253,#11);
#11=ADVANCED_BREP_SHAPE_REPRESENTATION('',(#251),#445);
#12=TOROIDAL_SURFACE('',#278,0.05588,0.00127);
#13=TOROIDAL_SURFACE('',#279,0.04318,0.00127);
#14=ELLIPSE('',#276,0.00179605122421383,0.00127);
#15=ELLIPSE('',#281,0.00179605122421383,0.00127);
#16=B_SPLINE_CURVE_WITH_KNOTS('',3,(#417,#418,#419,#420,#421),
 .UNSPECIFIED.,.F.,.F.,(4,1,4),(0.,0.00121309065272016,0.00242618130544032),
 .UNSPECIFIED.);
#17=B_SPLINE_CURVE_WITH_KNOTS('',3,(#424,#425,#426,#427,#428),
 .UNSPECIFIED.,.F.,.F.,(4,1,4),(0.,0.00121560248241711,0.00243120496483422),
 .UNSPECIFIED.);
#18=B_SPLINE_CURVE_WITH_KNOTS('',3,(#430,#431,#432,#433,#434),
 .UNSPECIFIED.,.F.,.F.,(4,1,4),(0.,0.00121309065272012,0.00242618130544025),
 .UNSPECIFIED.);
#19=B_SPLINE_CURVE_WITH_KNOTS('',3,(#436,#437,#438,#439,#440),
 .UNSPECIFIED.,.F.,.F.,(4,1,4),(0.,0.00121560248241714,0.00243120496483429),
 .UNSPECIFIED.);
#20=PLANE('',#261);
#21=PLANE('',#268);
#22=PLANE('',#272);
#23=PLANE('',#273);
#24=PLANE('',#274);
#25=LINE('',#362,#41);
#26=LINE('',#366,#42);
#27=LINE('',#371,#43);
#28=LINE('',#375,#44);
#29=LINE('',#377,#45);
#30=LINE('',#385,#46);
#31=LINE('',#387,#47);
#32=LINE('',#392,#48);
#33=LINE('',#398,#49);
#34=LINE('',#402,#50);
#35=LINE('',#406,#51);
#36=LINE('',#408,#52);
#37=LINE('',#409,#53);
#38=LINE('',#411,#54);
#39=LINE('',#413,#55);
#40=LINE('',#415,#56);
#41=VECTOR('',#289,1.);
#42=VECTOR('',#292,1.);
#43=VECTOR('',#297,1.);
#44=VECTOR('',#300,1.);
#45=VECTOR('',#303,1.);
#46=VECTOR('',#310,1.);
#47=VECTOR('',#313,1.);
#48=VECTOR('',#316,1.);
#49=VECTOR('',#323,1.);
#50=VECTOR('',#326,1.);
#51=VECTOR('',#331,1.);
#52=VECTOR('',#332,1.);
#53=VECTOR('',#333,1.);
#54=VECTOR('',#336,1.);
#55=VECTOR('',#339,1.);
#56=VECTOR('',#340,1.);
#57=ORIENTED_EDGE('',*,*,#125,.T.);
#58=ORIENTED_EDGE('',*,*,#126,.T.);
#59=ORIENTED_EDGE('',*,*,#127,.T.);
#60=ORIENTED_EDGE('',*,*,#128,.T.);
#61=ORIENTED_EDGE('',*,*,#129,.T.);
#62=ORIENTED_EDGE('',*,*,#130,.T.);
#63=ORIENTED_EDGE('',*,*,#131,.F.);
#64=ORIENTED_EDGE('',*,*,#132,.F.);
#65=ORIENTED_EDGE('',*,*,#133,.T.);
#66=ORIENTED_EDGE('',*,*,#134,.T.);
#67=ORIENTED_EDGE('',*,*,#135,.T.);
#68=ORIENTED_EDGE('',*,*,#136,.T.);
#69=ORIENTED_EDGE('',*,*,#137,.T.);
#70=ORIENTED_EDGE('',*,*,#129,.F.);
#71=ORIENTED_EDGE('',*,*,#138,.F.);
#72=ORIENTED_EDGE('',*,*,#139,.T.);
#73=ORIENTED_EDGE('',*,*,#140,.T.);
#74=ORIENTED_EDGE('',*,*,#141,.T.);
#75=ORIENTED_EDGE('',*,*,#142,.T.);
#76=ORIENTED_EDGE('',*,*,#143,.T.);
#77=ORIENTED_EDGE('',*,*,#144,.T.);
#78=ORIENTED_EDGE('',*,*,#145,.T.);
#79=ORIENTED_EDGE('',*,*,#146,.T.);
#80=ORIENTED_EDGE('',*,*,#127,.F.);
#81=ORIENTED_EDGE('',*,*,#147,.T.);
#82=ORIENTED_EDGE('',*,*,#148,.T.);
#83=ORIENTED_EDGE('',*,*,#133,.F.);
#84=ORIENTED_EDGE('',*,*,#132,.T.);
#85=ORIENTED_EDGE('',*,*,#149,.T.);
#86=ORIENTED_EDGE('',*,*,#140,.F.);
#87=ORIENTED_EDGE('',*,*,#131,.T.);
#88=ORIENTED_EDGE('',*,*,#150,.T.);
#89=ORIENTED_EDGE('',*,*,#141,.F.);
#90=ORIENTED_EDGE('',*,*,#149,.F.);
#91=ORIENTED_EDGE('',*,*,#137,.F.);
#92=ORIENTED_EDGE('',*,*,#151,.T.);
#93=ORIENTED_EDGE('',*,*,#152,.T.);
#94=ORIENTED_EDGE('',*,*,#138,.T.);
#95=ORIENTED_EDGE('',*,*,#150,.F.);
#96=ORIENTED_EDGE('',*,*,#130,.F.);
#97=ORIENTED_EDGE('',*,*,#153,.F.);
#98=ORIENTED_EDGE('',*,*,#152,.F.);
#99=ORIENTED_EDGE('',*,*,#154,.F.);
#100=ORIENTED_EDGE('',*,*,#145,.F.);
#101=ORIENTED_EDGE('',*,*,#151,.F.);
#102=ORIENTED_EDGE('',*,*,#136,.F.);
#103=ORIENTED_EDGE('',*,*,#155,.F.);
#104=ORIENTED_EDGE('',*,*,#128,.F.);
#105=ORIENTED_EDGE('',*,*,#146,.F.);
#106=ORIENTED_EDGE('',*,*,#154,.T.);
#107=ORIENTED_EDGE('',*,*,#153,.T.);
#108=ORIENTED_EDGE('',*,*,#144,.F.);
#109=ORIENTED_EDGE('',*,*,#156,.F.);
#110=ORIENTED_EDGE('',*,*,#139,.F.);
#111=ORIENTED_EDGE('',*,*,#155,.T.);
#112=ORIENTED_EDGE('',*,*,#135,.F.);
#113=ORIENTED_EDGE('',*,*,#157,.F.);
#114=ORIENTED_EDGE('',*,*,#125,.F.);
#115=ORIENTED_EDGE('',*,*,#143,.F.);
#116=ORIENTED_EDGE('',*,*,#158,.F.);
#117=ORIENTED_EDGE('',*,*,#147,.F.);
#118=ORIENTED_EDGE('',*,*,#156,.T.);
#119=ORIENTED_EDGE('',*,*,#134,.F.);
#120=ORIENTED_EDGE('',*,*,#148,.F.);
#121=ORIENTED_EDGE('',*,*,#158,.T.);
#122=ORIENTED_EDGE('',*,*,#142,.F.);
#123=ORIENTED_EDGE('',*,*,#126,.F.);
#124=ORIENTED_EDGE('',*,*,#157,.T.);
#125=EDGE_CURVE('',#159,#160,#181,.F.);
#126=EDGE_CURVE('',#160,#161,#25,.T.);
#127=EDGE_CURVE('',#161,#162,#182,.T.);
#128=EDGE_CURVE('',#162,#159,#26,.F.);
#129=EDGE_CURVE('',#163,#164,#183,.T.);
#130=EDGE_CURVE('',#164,#165,#27,.T.);
#131=EDGE_CURVE('',#166,#165,#184,.T.);
#132=EDGE_CURVE('',#163,#166,#28,.T.);
#133=EDGE_CURVE('',#163,#167,#29,.T.);
#134=EDGE_CURVE('',#167,#168,#185,.T.);
#135=EDGE_CURVE('',#168,#169,#186,.T.);
#136=EDGE_CURVE('',#169,#170,#187,.T.);
#137=EDGE_CURVE('',#170,#164,#30,.T.);
#138=EDGE_CURVE('',#171,#172,#31,.T.);
#139=EDGE_CURVE('',#171,#173,#188,.F.);
#140=EDGE_CURVE('',#173,#174,#32,.T.);
#141=EDGE_CURVE('',#174,#172,#189,.T.);
#142=EDGE_CURVE('',#161,#175,#190,.F.);
#143=EDGE_CURVE('',#175,#176,#33,.F.);
#144=EDGE_CURVE('',#176,#177,#191,.T.);
#145=EDGE_CURVE('',#177,#178,#34,.T.);
#146=EDGE_CURVE('',#178,#162,#192,.F.);
#147=EDGE_CURVE('',#173,#179,#35,.T.);
#148=EDGE_CURVE('',#179,#167,#36,.F.);
#149=EDGE_CURVE('',#166,#174,#37,.T.);
#150=EDGE_CURVE('',#165,#172,#38,.T.);
#151=EDGE_CURVE('',#170,#180,#39,.F.);
#152=EDGE_CURVE('',#180,#171,#40,.F.);
#153=EDGE_CURVE('',#171,#177,#16,.T.);
#154=EDGE_CURVE('',#178,#180,#14,.F.);
#155=EDGE_CURVE('',#159,#169,#17,.F.);
#156=EDGE_CURVE('',#173,#176,#18,.T.);
#157=EDGE_CURVE('',#160,#168,#19,.F.);
#158=EDGE_CURVE('',#179,#175,#15,.F.);
#159=VERTEX_POINT('',#360);
#160=VERTEX_POINT('',#361);
#161=VERTEX_POINT('',#363);
#162=VERTEX_POINT('',#365);
#163=VERTEX_POINT('',#369);
#164=VERTEX_POINT('',#370);
#165=VERTEX_POINT('',#372);
#166=VERTEX_POINT('',#374);
#167=VERTEX_POINT('',#378);
#168=VERTEX_POINT('',#380);
#169=VERTEX_POINT('',#382);
#170=VERTEX_POINT('',#384);
#171=VERTEX_POINT('',#388);
#172=VERTEX_POINT('',#389);
#173=VERTEX_POINT('',#391);
#174=VERTEX_POINT('',#393);
#175=VERTEX_POINT('',#397);
#176=VERTEX_POINT('',#399);
#177=VERTEX_POINT('',#401);
#178=VERTEX_POINT('',#403);
#179=VERTEX_POINT('',#407);
#180=VERTEX_POINT('',#414);
#181=CIRCLE('',#256,0.04445);
#182=CIRCLE('',#257,0.04445);
#183=CIRCLE('',#259,0.04191);
#184=CIRCLE('',#260,0.04191);
#185=CIRCLE('',#262,0.00127);
#186=CIRCLE('',#263,0.04318);
#187=CIRCLE('',#264,0.00127);
#188=CIRCLE('',#266,0.05715);
#189=CIRCLE('',#267,0.05715);
#190=CIRCLE('',#269,0.00127);
#191=CIRCLE('',#270,0.05588);
#192=CIRCLE('',#271,0.00127);
#193=EDGE_LOOP('',(#57,#58,#59,#60));
#194=EDGE_LOOP('',(#61,#62,#63,#64));
#195=EDGE_LOOP('',(#65,#66,#67,#68,#69,#70));
#196=EDGE_LOOP('',(#71,#72,#73,#74));
#197=EDGE_LOOP('',(#75,#76,#77,#78,#79,#80));
#198=EDGE_LOOP('',(#81,#82,#83,#84,#85,#86));
#199=EDGE_LOOP('',(#87,#88,#89,#90));
#200=EDGE_LOOP('',(#91,#92,#93,#94,#95,#96));
#201=EDGE_LOOP('',(#97,#98,#99,#100));
#202=EDGE_LOOP('',(#101,#102,#103,#104,#105,#106));
#203=EDGE_LOOP('',(#107,#108,#109,#110));
#204=EDGE_LOOP('',(#111,#112,#113,#114));
#205=EDGE_LOOP('',(#115,#116,#117,#118));
#206=EDGE_LOOP('',(#119,#120,#121,#122,#123,#124));
#207=FACE_BOUND('',#193,.T.);
#208=FACE_BOUND('',#194,.T.);
#209=FACE_BOUND('',#195,.T.);
#210=FACE_BOUND('',#196,.T.);
#211=FACE_BOUND('',#197,.T.);
#212=FACE_BOUND('',#198,.T.);
#213=FACE_BOUND('',#199,.T.);
#214=FACE_BOUND('',#200,.T.);
#215=FACE_BOUND('',#201,.T.);
#216=FACE_BOUND('',#202,.T.);
#217=FACE_BOUND('',#203,.T.);
#218=FACE_BOUND('',#204,.T.);
#219=FACE_BOUND('',#205,.T.);
#220=FACE_BOUND('',#206,.T.);
#221=CYLINDRICAL_SURFACE('',#255,0.04445);
#222=CYLINDRICAL_SURFACE('',#258,0.04191);
#223=CYLINDRICAL_SURFACE('',#265,0.05715);
#224=CYLINDRICAL_SURFACE('',#275,0.00127);
#225=CYLINDRICAL_SURFACE('',#277,0.00127);
#226=CYLINDRICAL_SURFACE('',#280,0.00127);
#227=CYLINDRICAL_SURFACE('',#282,0.00127);
#228=ADVANCED_FACE('',(#207),#221,.T.);
#229=ADVANCED_FACE('',(#208),#222,.F.);
#230=ADVANCED_FACE('',(#209),#20,.T.);
#231=ADVANCED_FACE('',(#210),#223,.T.);
#232=ADVANCED_FACE('',(#211),#21,.T.);
#233=ADVANCED_FACE('',(#212),#22,.F.);
#234=ADVANCED_FACE('',(#213),#23,.F.);
#235=ADVANCED_FACE('',(#214),#24,.T.);
#236=ADVANCED_FACE('',(#215),#224,.T.);
#237=ADVANCED_FACE('',(#216),#225,.T.);
#238=ADVANCED_FACE('',(#217),#12,.T.);
#239=ADVANCED_FACE('',(#218),#13,.T.);
#240=ADVANCED_FACE('',(#219),#226,.T.);
#241=ADVANCED_FACE('',(#220),#227,.T.);
#242=CLOSED_SHELL('',(#228,#229,#230,#231,#232,#233,#234,#235,#236,#237,
#238,#239,#240,#241));
#243=STYLED_ITEM('',(#244),#251);
#244=PRESENTATION_STYLE_ASSIGNMENT((#245));
#245=SURFACE_STYLE_USAGE(.BOTH.,#246);
#246=SURFACE_SIDE_STYLE('',(#247));
#247=SURFACE_STYLE_FILL_AREA(#248);
#248=FILL_AREA_STYLE('',(#249));
#249=FILL_AREA_STYLE_COLOUR('',#250);
#250=COLOUR_RGB('',0.615686274509804,0.811764705882353,0.929411764705882);
#251=MANIFOLD_SOLID_BREP('Part 1',#242);
#252=SHAPE_DEFINITION_REPRESENTATION(#450,#253);
#253=SHAPE_REPRESENTATION('Part 1',(#254),#445);
#254=AXIS2_PLACEMENT_3D('',#357,#283,#284);
#255=AXIS2_PLACEMENT_3D('',#358,#285,#286);
#256=AXIS2_PLACEMENT_3D('',#359,#287,#288);
#257=AXIS2_PLACEMENT_3D('',#364,#290,#291);
#258=AXIS2_PLACEMENT_3D('',#367,#293,#294);
#259=AXIS2_PLACEMENT_3D('',#368,#295,#296);
#260=AXIS2_PLACEMENT_3D('',#373,#298,#299);
#261=AXIS2_PLACEMENT_3D('',#376,#301,#302);
#262=AXIS2_PLACEMENT_3D('',#379,#304,#305);
#263=AXIS2_PLACEMENT_3D('',#381,#306,#307);
#264=AXIS2_PLACEMENT_3D('',#383,#308,#309);
#265=AXIS2_PLACEMENT_3D('',#386,#311,#312);
#266=AXIS2_PLACEMENT_3D('',#390,#314,#315);
#267=AXIS2_PLACEMENT_3D('',#394,#317,#318);
#268=AXIS2_PLACEMENT_3D('',#395,#319,#320);
#269=AXIS2_PLACEMENT_3D('',#396,#321,#322);
#270=AXIS2_PLACEMENT_3D('',#400,#324,#325);
#271=AXIS2_PLACEMENT_3D('',#404,#327,#328);
#272=AXIS2_PLACEMENT_3D('',#405,#329,#330);
#273=AXIS2_PLACEMENT_3D('',#410,#334,#335);
#274=AXIS2_PLACEMENT_3D('',#412,#337,#338);
#275=AXIS2_PLACEMENT_3D('',#416,#341,#342);
#276=AXIS2_PLACEMENT_3D('',#422,#343,#344);
#277=AXIS2_PLACEMENT_3D('',#423,#345,#346);
#278=AXIS2_PLACEMENT_3D('',#429,#347,#348);
#279=AXIS2_PLACEMENT_3D('',#435,#349,#350);
#280=AXIS2_PLACEMENT_3D('',#441,#351,#352);
#281=AXIS2_PLACEMENT_3D('',#442,#353,#354);
#282=AXIS2_PLACEMENT_3D('',#443,#355,#356);
#283=DIRECTION('',(0.,0.,1.));
#284=DIRECTION('',(1.,0.,0.));
#285=DIRECTION('',(0.,0.,-1.));
#286=DIRECTION('',(-1.,0.,0.));
#287=DIRECTION('',(0.,0.,1.));
#288=DIRECTION('',(1.,0.,0.));
#289=DIRECTION('',(0.,0.,-1.));
#290=DIRECTION('',(0.,0.,1.));
#291=DIRECTION('',(1.,0.,0.));
#292=DIRECTION('',(0.,0.,-1.));
#293=DIRECTION('',(0.,0.,-1.));
#294=DIRECTION('',(-1.,0.,0.));
#295=DIRECTION('',(0.,0.,1.));
#296=DIRECTION('',(1.,0.,0.));
#297=DIRECTION('',(0.,0.,-1.));
#298=DIRECTION('',(0.,0.,1.));
#299=DIRECTION('',(1.,0.,0.));
#300=DIRECTION('',(0.,0.,-1.));
#301=DIRECTION('',(0.,0.,1.));
#302=DIRECTION('',(1.,0.,0.));
#303=DIRECTION('',(-1.,-1.49245473852218E-15,0.));
#304=DIRECTION('',(0.,0.,1.));
#305=DIRECTION('',(1.,0.,0.));
#306=DIRECTION('',(0.,0.,1.));
#307=DIRECTION('',(1.,0.,0.));
#308=DIRECTION('',(0.,0.,1.));
#309=DIRECTION('',(1.,0.,0.));
#310=DIRECTION('',(0.707108060260768,0.707105502110014,0.));
#311=DIRECTION('',(0.,0.,-1.));
#312=DIRECTION('',(-1.,0.,0.));
#313=DIRECTION('',(0.,0.,-1.));
#314=DIRECTION('',(0.,0.,1.));
#315=DIRECTION('',(1.,0.,0.));
#316=DIRECTION('',(0.,0.,-1.));
#317=DIRECTION('',(0.,0.,1.));
#318=DIRECTION('',(1.,0.,0.));
#319=DIRECTION('',(0.,0.,1.));
#320=DIRECTION('',(1.,0.,0.));
#321=DIRECTION('',(0.,0.,1.));
#322=DIRECTION('',(1.,0.,0.));
#323=DIRECTION('',(1.,1.49245473852218E-15,0.));
#324=DIRECTION('',(0.,0.,1.));
#325=DIRECTION('',(1.,0.,0.));
#326=DIRECTION('',(0.707108060260768,0.707105502110014,0.));
#327=DIRECTION('',(0.,0.,1.));
#328=DIRECTION('',(1.,0.,0.));
#329=DIRECTION('',(1.49245473852218E-15,-1.,0.));
#330=DIRECTION('',(1.,1.49245473852218E-15,0.));
#331=DIRECTION('',(1.,1.49245473852218E-15,0.));
#332=DIRECTION('',(0.,0.,-1.));
#333=DIRECTION('',(-1.,-1.49245473852218E-15,0.));
#334=DIRECTION('',(0.,0.,1.));
#335=DIRECTION('',(1.,0.,0.));
#336=DIRECTION('',(-0.707108060260768,-0.707105502110014,0.));
#337=DIRECTION('',(0.707105502110014,-0.707108060260768,0.));
#338=DIRECTION('',(0.707108060260768,0.707105502110014,0.));
#339=DIRECTION('',(0.,0.,1.));
#340=DIRECTION('',(0.707108060260768,0.707105502110014,0.));
#341=DIRECTION('',(0.707108060260768,0.707105502110014,0.));
#342=DIRECTION('',(-0.707105502110014,0.707108060260768,0.));
#343=DIRECTION('',(-0.500000904442055,-0.499999095556309,-0.707106781186548));
#344=DIRECTION('',(0.500000904442055,0.499999095556309,-0.707106781186548));
#345=DIRECTION('',(0.,0.,-1.));
#346=DIRECTION('',(-1.,0.,0.));
#347=DIRECTION('',(0.,0.,1.));
#348=DIRECTION('',(1.,0.,0.));
#349=DIRECTION('',(0.,0.,1.));
#350=DIRECTION('',(1.,0.,0.));
#351=DIRECTION('',(-1.,-1.49245473852218E-15,0.));
#352=DIRECTION('',(1.49245473852218E-15,-1.,0.));
#353=DIRECTION('',(-0.707106781186548,-1.05532486622303E-15,-0.707106781186548));
#354=DIRECTION('',(0.707106781186548,1.05532486622303E-15,-0.707106781186548));
#355=DIRECTION('',(0.,0.,-1.));
#356=DIRECTION('',(-1.,0.,0.));
#357=CARTESIAN_POINT('',(0.,0.,0.));
#358=CARTESIAN_POINT('',(1.07530521261531E-17,6.67038585949564E-18,0.01524));
#359=CARTESIAN_POINT('',(1.07530521261531E-17,6.67038585949564E-18,0.01397));
#360=CARTESIAN_POINT('',(-0.0323417920922183,-0.0304928021713932,0.01397));
#361=CARTESIAN_POINT('',(-0.0444307700618298,-0.00130735294117647,0.01397));
#362=CARTESIAN_POINT('',(-0.0444307700618299,-0.00130735294117647,0.01524));
#363=CARTESIAN_POINT('',(-0.0444307700618299,-0.00130735294117647,0.00254));
#364=CARTESIAN_POINT('',(-4.83105674656612E-18,1.46621543156521E-18,0.00254));
#365=CARTESIAN_POINT('',(-0.0323417920922183,-0.0304928021713933,0.00254));
#366=CARTESIAN_POINT('',(-0.0323417920922183,-0.0304928021713933,0.01524));
#367=CARTESIAN_POINT('',(7.26734053625612E-19,-8.26359993181825E-19,0.01524));
#368=CARTESIAN_POINT('',(7.26734053625612E-19,-8.26359993181825E-19,0.01524));
#369=CARTESIAN_POINT('',(-0.04191,-1.65271998636365E-18,0.01524));
#370=CARTESIAN_POINT('',(-0.0296348988055288,-0.0296347915934307,0.01524));
#371=CARTESIAN_POINT('',(-0.0296348988055288,-0.0296347915934307,0.01524));
#372=CARTESIAN_POINT('',(-0.0296348988055288,-0.0296347915934307,0.));
#373=CARTESIAN_POINT('',(7.26734053625612E-19,-8.26359993181825E-19,0.));
#374=CARTESIAN_POINT('',(-0.04191,-1.65271998636365E-18,0.));
#375=CARTESIAN_POINT('',(-0.04191,-1.65271998636365E-18,0.01524));
#376=CARTESIAN_POINT('',(-0.022225,-0.022225,0.01524));
#377=CARTESIAN_POINT('',(-0.04318,-3.54813750428682E-18,0.01524));
#378=CARTESIAN_POINT('',(-0.0431613194886348,-3.52025768658171E-18,0.01524));
#379=CARTESIAN_POINT('',(-0.0431613194886348,-0.00127,0.01524));
#380=CARTESIAN_POINT('',(-0.0431799999997814,-1.3739384794479E-7,0.01524));
#381=CARTESIAN_POINT('',(1.07530521261531E-17,6.67038585949564E-18,0.01524));
#382=CARTESIAN_POINT('',(-0.0305330231938513,-0.0305327184286585,0.01524));
#383=CARTESIAN_POINT('',(-0.0314177408895835,-0.0296215792522106,0.01524));
#384=CARTESIAN_POINT('',(-0.0305197169019038,-0.0305196064887418,0.01524));
#385=CARTESIAN_POINT('',(-0.0222250402024129,-0.0222249597974416,0.01524));
#386=CARTESIAN_POINT('',(7.6377976902165E-18,6.34957615183511E-18,0.00254));
#387=CARTESIAN_POINT('',(-0.0404112256439029,-0.0404110794455873,0.00254));
#388=CARTESIAN_POINT('',(-0.0404112256439029,-0.0404110794455873,0.00127));
#389=CARTESIAN_POINT('',(-0.0404112256439029,-0.0404110794455873,0.));
#390=CARTESIAN_POINT('',(7.6377976902165E-18,6.34957615183511E-18,0.00127));
#391=CARTESIAN_POINT('',(-0.05715,-6.08517443753103E-18,0.00127));
#392=CARTESIAN_POINT('',(-0.05715,-6.08517443753103E-18,0.00254));
#393=CARTESIAN_POINT('',(-0.05715,-6.08517443753103E-18,0.));
#394=CARTESIAN_POINT('',(7.6377976902165E-18,6.34957615183511E-18,0.));
#395=CARTESIAN_POINT('',(-0.028575,-0.028575,0.00254));
#396=CARTESIAN_POINT('',(-0.0431613194886348,-0.00127,0.00254));
#397=CARTESIAN_POINT('',(-0.0444313194886348,-0.00127,0.00254));
#398=CARTESIAN_POINT('',(-0.05715,-0.00127000000000002,0.00254));
#399=CARTESIAN_POINT('',(-0.0558655663177239,-0.00127000000000002,0.00254));
#400=CARTESIAN_POINT('',(7.6377976902165E-18,6.34957615183511E-18,0.00254));
#401=CARTESIAN_POINT('',(-0.0404010162219747,-0.0386048220852232,0.00254));
#402=CARTESIAN_POINT('',(-0.0294730756764964,-0.0276769210744651,0.00254));
#403=CARTESIAN_POINT('',(-0.0323157681261147,-0.0305196032398903,0.00254));
#404=CARTESIAN_POINT('',(-0.0314177408895835,-0.0296215792522106,0.00254));
#405=CARTESIAN_POINT('',(-0.04318,-3.54813750428682E-18,0.01524));
#406=CARTESIAN_POINT('',(-0.04445,-5.44355502220999E-18,0.00127));
#407=CARTESIAN_POINT('',(-0.0431613194886348,-3.52025768658171E-18,0.00127));
#408=CARTESIAN_POINT('',(-0.0431613194886348,-3.52025768658171E-18,0.01524));
#409=CARTESIAN_POINT('',(-0.04318,-3.54813750428682E-18,0.));
#410=CARTESIAN_POINT('',(-0.022225,-0.022225,0.));
#411=CARTESIAN_POINT('',(-0.0380996949970722,-0.0380995571613312,0.));
#412=CARTESIAN_POINT('',(-0.0380996949970722,-0.0380995571613312,0.0254));
#413=CARTESIAN_POINT('',(-0.0305197169019038,-0.0305196064887418,0.00254));
#414=CARTESIAN_POINT('',(-0.0305197169019038,-0.0305196064887418,0.00127));
#415=CARTESIAN_POINT('',(-0.0380996949970722,-0.0380995571613312,0.00127));
#416=CARTESIAN_POINT('',(-0.0294730756764964,-0.0276769210744651,0.00127));
#417=CARTESIAN_POINT('',(-0.0404112256439029,-0.0404110794455873,0.00127));
#418=CARTESIAN_POINT('',(-0.0404112256439029,-0.0404110794455873,0.00168146089206175));
#419=CARTESIAN_POINT('',(-0.0404114724942621,-0.0398275093848056,0.00237432448112642));
#420=CARTESIAN_POINT('',(-0.0404056030746041,-0.0390091600003399,0.00254));
#421=CARTESIAN_POINT('',(-0.0404010162219747,-0.0386048220852232,0.00254));
#422=CARTESIAN_POINT('',(-0.0314177408895835,-0.0296215792522106,0.00127));
#423=CARTESIAN_POINT('',(-0.0314177408895835,-0.0296215792522106,0.01524));
#424=CARTESIAN_POINT('',(-0.0305330231938513,-0.0305327184286585,0.01524));
#425=CARTESIAN_POINT('',(-0.0308288507710974,-0.0308199675111703,0.01524));
#426=CARTESIAN_POINT('',(-0.031616216009754,-0.0310077054002298,0.0148291995834482));
#427=CARTESIAN_POINT('',(-0.0321438191674242,-0.0307027795666352,0.0142544367549152));
#428=CARTESIAN_POINT('',(-0.0323417920922183,-0.0304928021713932,0.01397));
#429=CARTESIAN_POINT('',(7.6377976902165E-18,6.34957615183511E-18,0.00127));
#430=CARTESIAN_POINT('',(-0.05715,-6.08517443753103E-18,0.00127));
#431=CARTESIAN_POINT('',(-0.05715,-6.08517443753103E-18,0.00168146089206174));
#432=CARTESIAN_POINT('',(-0.0567375289490336,-0.000412821642953177,0.0023743244811264));
#433=CARTESIAN_POINT('',(-0.0561547192826795,-0.000987332789882945,0.00254));
#434=CARTESIAN_POINT('',(-0.0558655663177239,-0.00127000000000002,0.00254));
#435=CARTESIAN_POINT('',(1.07530521261531E-17,6.67038585949564E-18,0.01397));
#436=CARTESIAN_POINT('',(-0.0431799999997814,-1.3739384794479E-7,0.01524));
#437=CARTESIAN_POINT('',(-0.0435922974708197,-6.20255984791348E-6,0.01524));
#438=CARTESIAN_POINT('',(-0.0442818002717501,-0.000430201877749631,0.0148291995834966));
#439=CARTESIAN_POINT('',(-0.0444392579824917,-0.00101888848804215,0.0142544367548184));
#440=CARTESIAN_POINT('',(-0.0444307700618298,-0.00130735294117647,0.01397));
#441=CARTESIAN_POINT('',(-0.04318,-0.00127,0.00127));
#442=CARTESIAN_POINT('',(-0.0431613194886348,-0.00127,0.00127));
#443=CARTESIAN_POINT('',(-0.0431613194886348,-0.00127,0.01524));
#444=MECHANICAL_DESIGN_GEOMETRIC_PRESENTATION_REPRESENTATION('',(#243),
#445);
#445=(
GEOMETRIC_REPRESENTATION_CONTEXT(3)
GLOBAL_UNCERTAINTY_ASSIGNED_CONTEXT((#446))
GLOBAL_UNIT_ASSIGNED_CONTEXT((#449,#448,#447))
REPRESENTATION_CONTEXT('Part 1','TOP_LEVEL_ASSEMBLY_PART')
);
#446=UNCERTAINTY_MEASURE_WITH_UNIT(LENGTH_MEASURE(2.E-5),#449,
'DISTANCE_ACCURACY_VALUE','Maximum Tolerance applied to model');
#447=(
NAMED_UNIT(*)
SI_UNIT($,.STERADIAN.)
SOLID_ANGLE_UNIT()
);
#448=(
NAMED_UNIT(*)
PLANE_ANGLE_UNIT()
SI_UNIT($,.RADIAN.)
);
#449=(
LENGTH_UNIT()
NAMED_UNIT(*)
SI_UNIT($,.METRE.)
);
#450=PRODUCT_DEFINITION_SHAPE('','',#451);
#451=PRODUCT_DEFINITION('','',#453,#452);
#452=PRODUCT_DEFINITION_CONTEXT('',#459,'design');
#453=PRODUCT_DEFINITION_FORMATION_WITH_SPECIFIED_SOURCE('','',#455,
 .NOT_KNOWN.);
#454=PRODUCT_RELATED_PRODUCT_CATEGORY('','',(#455));
#455=PRODUCT('Part 1','Part 1','Part 1',(#457));
#456=PRODUCT_CATEGORY('','');
#457=PRODUCT_CONTEXT('',#459,'mechanical');
#458=APPLICATION_PROTOCOL_DEFINITION('international standard',
'ap242_managed_model_based_3d_engineering',2011,#459);
#459=APPLICATION_CONTEXT('managed model based 3d engineering');
ENDSEC;
END-ISO-10303-21;
