ISO-10303-21;
HEADER;
/* Generated by software containing ST-Developer
 * from STEP Tools, Inc. (www.steptools.com) 
 */
/* OPTION: using custom renumber hook */

FILE_DESCRIPTION(
/* description */ ('STEP AP242',
'CAx-IF Rec.Pracs.---Representation and Presentation of Product Manufa
cturing Information (PMI)---4.0---2014-10-13',
'CAx-IF Rec.Pracs.---3D Tessellated Geometry---0.4---2014-09-14','2;1'),

/* implementation_level */ '2;1');

FILE_NAME(
/* name */ '680507a7c9accf630d5e7d46',
/* time_stamp */ '2025-04-20T14:41:43Z',
/* author */ (''),
/* organization */ (''),
/* preprocessor_version */ 'ST-DEVELOPER v20',
/* originating_system */ 'ONSHAPE BY PTC INC, 1.196',
/* authorisation */ '  ');

FILE_SCHEMA (('AP242_MANAGED_MODEL_BASED_3D_ENGINEERING_MIM_LF { 1 0 10303 442 1 1 4 }'));
ENDSEC;

DATA;
#10=SHAPE_REPRESENTATION_RELATIONSHIP('','',#113,#11);
#11=ADVANCED_BREP_SHAPE_REPRESENTATION('',(#111),#179);
#12=CYLINDRICAL_SURFACE('',#122,0.0381);
#13=LINE('',#156,#23);
#14=LINE('',#158,#24);
#15=LINE('',#160,#25);
#16=LINE('',#162,#26);
#17=LINE('',#164,#27);
#18=LINE('',#166,#28);
#19=LINE('',#168,#29);
#20=LINE('',#170,#30);
#21=LINE('',#172,#31);
#22=LINE('',#174,#32);
#23=VECTOR('',#129,1.);
#24=VECTOR('',#130,1.);
#25=VECTOR('',#131,1.);
#26=VECTOR('',#134,1.);
#27=VECTOR('',#135,1.);
#28=VECTOR('',#136,1.);
#29=VECTOR('',#139,1.);
#30=VECTOR('',#140,1.);
#31=VECTOR('',#143,1.);
#32=VECTOR('',#144,1.);
#33=ORIENTED_EDGE('',*,*,#57,.F.);
#34=ORIENTED_EDGE('',*,*,#58,.T.);
#35=ORIENTED_EDGE('',*,*,#59,.T.);
#36=ORIENTED_EDGE('',*,*,#60,.T.);
#37=ORIENTED_EDGE('',*,*,#58,.F.);
#38=ORIENTED_EDGE('',*,*,#61,.T.);
#39=ORIENTED_EDGE('',*,*,#62,.T.);
#40=ORIENTED_EDGE('',*,*,#63,.F.);
#41=ORIENTED_EDGE('',*,*,#64,.T.);
#42=ORIENTED_EDGE('',*,*,#65,.F.);
#43=ORIENTED_EDGE('',*,*,#59,.F.);
#44=ORIENTED_EDGE('',*,*,#63,.T.);
#45=ORIENTED_EDGE('',*,*,#66,.T.);
#46=ORIENTED_EDGE('',*,*,#67,.T.);
#47=ORIENTED_EDGE('',*,*,#60,.F.);
#48=ORIENTED_EDGE('',*,*,#65,.T.);
#49=ORIENTED_EDGE('',*,*,#68,.F.);
#50=ORIENTED_EDGE('',*,*,#66,.F.);
#51=ORIENTED_EDGE('',*,*,#64,.F.);
#52=ORIENTED_EDGE('',*,*,#62,.F.);
#53=ORIENTED_EDGE('',*,*,#57,.T.);
#54=ORIENTED_EDGE('',*,*,#67,.F.);
#55=ORIENTED_EDGE('',*,*,#68,.T.);
#56=ORIENTED_EDGE('',*,*,#61,.F.);
#57=EDGE_CURVE('',#69,#70,#77,.F.);
#58=EDGE_CURVE('',#69,#71,#13,.T.);
#59=EDGE_CURVE('',#71,#72,#14,.T.);
#60=EDGE_CURVE('',#72,#70,#15,.T.);
#61=EDGE_CURVE('',#69,#73,#16,.T.);
#62=EDGE_CURVE('',#73,#74,#17,.T.);
#63=EDGE_CURVE('',#71,#74,#18,.T.);
#64=EDGE_CURVE('',#74,#75,#19,.T.);
#65=EDGE_CURVE('',#72,#75,#20,.T.);
#66=EDGE_CURVE('',#75,#76,#21,.T.);
#67=EDGE_CURVE('',#76,#70,#22,.F.);
#68=EDGE_CURVE('',#76,#73,#78,.T.);
#69=VERTEX_POINT('',#154);
#70=VERTEX_POINT('',#155);
#71=VERTEX_POINT('',#157);
#72=VERTEX_POINT('',#159);
#73=VERTEX_POINT('',#163);
#74=VERTEX_POINT('',#165);
#75=VERTEX_POINT('',#169);
#76=VERTEX_POINT('',#173);
#77=CIRCLE('',#116,0.0381);
#78=CIRCLE('',#121,0.0381);
#79=EDGE_LOOP('',(#33,#34,#35,#36));
#80=EDGE_LOOP('',(#37,#38,#39,#40));
#81=EDGE_LOOP('',(#41,#42,#43,#44));
#82=EDGE_LOOP('',(#45,#46,#47,#48));
#83=EDGE_LOOP('',(#49,#50,#51,#52));
#84=EDGE_LOOP('',(#53,#54,#55,#56));
#85=FACE_BOUND('',#79,.T.);
#86=FACE_BOUND('',#80,.T.);
#87=FACE_BOUND('',#81,.T.);
#88=FACE_BOUND('',#82,.T.);
#89=FACE_BOUND('',#83,.T.);
#90=FACE_BOUND('',#84,.T.);
#91=PLANE('',#115);
#92=PLANE('',#117);
#93=PLANE('',#118);
#94=PLANE('',#119);
#95=PLANE('',#120);
#96=ADVANCED_FACE('',(#85),#91,.T.);
#97=ADVANCED_FACE('',(#86),#92,.F.);
#98=ADVANCED_FACE('',(#87),#93,.F.);
#99=ADVANCED_FACE('',(#88),#94,.F.);
#100=ADVANCED_FACE('',(#89),#95,.F.);
#101=ADVANCED_FACE('',(#90),#12,.T.);
#102=CLOSED_SHELL('',(#96,#97,#98,#99,#100,#101));
#103=STYLED_ITEM('',(#104),#111);
#104=PRESENTATION_STYLE_ASSIGNMENT((#105));
#105=SURFACE_STYLE_USAGE(.BOTH.,#106);
#106=SURFACE_SIDE_STYLE('',(#107));
#107=SURFACE_STYLE_FILL_AREA(#108);
#108=FILL_AREA_STYLE('',(#109));
#109=FILL_AREA_STYLE_COLOUR('',#110);
#110=COLOUR_RGB('',0.615686274509804,0.811764705882353,0.929411764705882);
#111=MANIFOLD_SOLID_BREP('Part 1',#102);
#112=SHAPE_DEFINITION_REPRESENTATION(#184,#113);
#113=SHAPE_REPRESENTATION('Part 1',(#114),#179);
#114=AXIS2_PLACEMENT_3D('',#151,#123,#124);
#115=AXIS2_PLACEMENT_3D('',#152,#125,#126);
#116=AXIS2_PLACEMENT_3D('',#153,#127,#128);
#117=AXIS2_PLACEMENT_3D('',#161,#132,#133);
#118=AXIS2_PLACEMENT_3D('',#167,#137,#138);
#119=AXIS2_PLACEMENT_3D('',#171,#141,#142);
#120=AXIS2_PLACEMENT_3D('',#175,#145,#146);
#121=AXIS2_PLACEMENT_3D('',#176,#147,#148);
#122=AXIS2_PLACEMENT_3D('',#177,#149,#150);
#123=DIRECTION('',(0.,0.,1.));
#124=DIRECTION('',(1.,0.,0.));
#125=DIRECTION('',(0.,0.,1.));
#126=DIRECTION('',(1.,0.,0.));
#127=DIRECTION('',(0.,0.,1.));
#128=DIRECTION('',(1.,0.,0.));
#129=DIRECTION('',(0.646757001358912,0.762696126378802,0.));
#130=DIRECTION('',(-0.762696126378802,0.646757001358912,0.));
#131=DIRECTION('',(-0.646757001358912,-0.762696126378802,0.));
#132=DIRECTION('',(-0.762696126378802,0.646757001358912,0.));
#133=DIRECTION('',(-0.646757001358912,-0.762696126378802,0.));
#134=DIRECTION('',(0.,0.,-1.));
#135=DIRECTION('',(0.646757001358912,0.762696126378802,0.));
#136=DIRECTION('',(0.,0.,-1.));
#137=DIRECTION('',(-0.646757001358912,-0.762696126378801,0.));
#138=DIRECTION('',(0.762696126378801,-0.646757001358912,0.));
#139=DIRECTION('',(-0.762696126378802,0.646757001358912,0.));
#140=DIRECTION('',(0.,0.,-1.));
#141=DIRECTION('',(0.762696126378802,-0.646757001358912,0.));
#142=DIRECTION('',(0.646757001358912,0.762696126378802,0.));
#143=DIRECTION('',(-0.646757001358912,-0.762696126378802,0.));
#144=DIRECTION('',(0.,0.,-1.));
#145=DIRECTION('',(0.,0.,1.));
#146=DIRECTION('',(1.,0.,0.));
#147=DIRECTION('',(0.,0.,1.));
#148=DIRECTION('',(1.,0.,0.));
#149=DIRECTION('',(0.,0.,-1.));
#150=DIRECTION('',(-1.,0.,0.));
#151=CARTESIAN_POINT('',(0.,0.,0.));
#152=CARTESIAN_POINT('',(0.0128774525654506,0.00231485655272007,0.01524));
#153=CARTESIAN_POINT('',(0.02794,0.0283980633142474,0.01524));
#154=CARTESIAN_POINT('',(0.00221277904198057,0.000296104276179428,0.01524));
#155=CARTESIAN_POINT('',(0.000393041343617582,0.00207744271397351,0.01524));
#156=CARTESIAN_POINT('',(0.0119115073884216,0.0117334486343982,0.01524));
#157=CARTESIAN_POINT('',(0.0131080187857151,0.0131444493749645,0.01524));
#158=CARTESIAN_POINT('',(0.012139394705214,0.0139658307666903,0.01524));
#159=CARTESIAN_POINT('',(0.0111707706247129,0.0147872121584161,0.01524));
#160=CARTESIAN_POINT('',(0.00470214889310455,0.00715901064325447,0.01524));
#161=CARTESIAN_POINT('',(0.0119115073884216,0.0117334486343982,0.01524));
#162=CARTESIAN_POINT('',(0.00221277904198057,0.000296104276179432,0.0254));
#163=CARTESIAN_POINT('',(0.00221277904198057,0.000296104276179428,0.));
#164=CARTESIAN_POINT('',(0.0119115073884216,0.0117334486343982,0.));
#165=CARTESIAN_POINT('',(0.0131080187857151,0.0131444493749645,0.));
#166=CARTESIAN_POINT('',(0.0131080187857151,0.0131444493749645,0.01524));
#167=CARTESIAN_POINT('',(0.012139394705214,0.0139658307666903,0.01524));
#168=CARTESIAN_POINT('',(0.012139394705214,0.0139658307666903,0.));
#169=CARTESIAN_POINT('',(0.0111707706247129,0.0147872121584161,0.));
#170=CARTESIAN_POINT('',(0.0111707706247129,0.0147872121584161,0.01524));
#171=CARTESIAN_POINT('',(0.00470214889310455,0.00715901064325447,0.01524));
#172=CARTESIAN_POINT('',(0.00470214889310455,0.00715901064325447,0.));
#173=CARTESIAN_POINT('',(0.000393041343617582,0.00207744271397351,0.));
#174=CARTESIAN_POINT('',(0.000393041343617586,0.00207744271397352,0.0254));
#175=CARTESIAN_POINT('',(0.0128774525654506,0.00231485655272007,0.));
#176=CARTESIAN_POINT('',(0.02794,0.0283980633142474,0.));
#177=CARTESIAN_POINT('',(0.02794,0.0283980633142474,0.0254));
#178=MECHANICAL_DESIGN_GEOMETRIC_PRESENTATION_REPRESENTATION('',(#103),
#179);
#179=(
GEOMETRIC_REPRESENTATION_CONTEXT(3)
GLOBAL_UNCERTAINTY_ASSIGNED_CONTEXT((#180))
GLOBAL_UNIT_ASSIGNED_CONTEXT((#183,#182,#181))
REPRESENTATION_CONTEXT('Part 1','TOP_LEVEL_ASSEMBLY_PART')
);
#180=UNCERTAINTY_MEASURE_WITH_UNIT(LENGTH_MEASURE(1.E-8),#183,
'DISTANCE_ACCURACY_VALUE','Maximum Tolerance applied to model');
#181=(
NAMED_UNIT(*)
SI_UNIT($,.STERADIAN.)
SOLID_ANGLE_UNIT()
);
#182=(
NAMED_UNIT(*)
PLANE_ANGLE_UNIT()
SI_UNIT($,.RADIAN.)
);
#183=(
LENGTH_UNIT()
NAMED_UNIT(*)
SI_UNIT($,.METRE.)
);
#184=PRODUCT_DEFINITION_SHAPE('','',#185);
#185=PRODUCT_DEFINITION('','',#187,#186);
#186=PRODUCT_DEFINITION_CONTEXT('',#193,'design');
#187=PRODUCT_DEFINITION_FORMATION_WITH_SPECIFIED_SOURCE('','',#189,
 .NOT_KNOWN.);
#188=PRODUCT_RELATED_PRODUCT_CATEGORY('','',(#189));
#189=PRODUCT('Part 1','Part 1','Part 1',(#191));
#190=PRODUCT_CATEGORY('','');
#191=PRODUCT_CONTEXT('',#193,'mechanical');
#192=APPLICATION_PROTOCOL_DEFINITION('international standard',
'ap242_managed_model_based_3d_engineering',2011,#193);
#193=APPLICATION_CONTEXT('managed model based 3d engineering');
ENDSEC;
END-ISO-10303-21;
